<svg xmlns="http://www.w3.org/2000/svg" aria-hidden="true" style="position:absolute;width:0;height:0;overflow:hidden">
	<defs>
		<symbol id="icon-ellipse" viewBox="0 0 34 32">
			<path fill="#f593bc" d="M32.889 16c0 8.837-7.163 16-16 16s-16-7.163-16-16 7.163-16 16-16 16 7.163 16 16z" style="fill:var(--color1, #f593bc)"/>
		</symbol>
		<symbol id="icon-ellipse-active" viewBox="0 0 32 32">
			<path fill="#fff" d="M31.385 16c0 8.497-6.888 15.385-15.385 15.385S.615 24.497.615 16 7.503.615 16 .615 31.385 7.503 31.385 16z" style="fill:var(--color2, #fff)"/>
		</symbol>
		<symbol id="icon-exclamation" viewBox="0 0 35 32">
			<path fill="#fff" d="M17.495 22.477c-.978 0-1.798.82-1.798 1.798s.82 1.798 1.798 1.798c.942 0 1.798-.82 1.755-1.755a1.756 1.756 0 0 0-1.755-1.841z" style="fill:var(--color2, #fff)"/>
			<path fill="#fff" d="M34.139 28.85c1.129-1.949 1.136-4.273.014-6.215L22.889 3.128C21.774 1.164 19.76-.001 17.502-.001s-4.273 1.172-5.387 3.122L.837 22.649A6.19 6.19 0 0 0 .859 28.9a6.155 6.155 0 0 0 5.373 3.086h22.499c2.251 0 4.273-1.172 5.409-3.136zm-2.446-1.41a3.399 3.399 0 0 1-2.971 1.719H6.223a3.354 3.354 0 0 1-2.935-1.683 3.402 3.402 0 0 1-.007-3.431L14.559 4.524a3.337 3.337 0 0 1 2.942-1.705c1.23 0 2.33.64 2.942 1.712l11.271 19.521c.604 1.05.597 2.316-.022 3.388z" style="fill:var(--color2, #fff)"/>
			<path fill="#fff" d="M17.049 9.854c-.856.245-1.388 1.021-1.388 1.964.043.568.079 1.144.122 1.712.122 2.165.245 4.287.367 6.452.043.734.611 1.266 1.345 1.266s1.309-.568 1.345-1.309c0-.446 0-.856.043-1.309.079-1.388.165-2.776.245-4.165.043-.899.122-1.798.165-2.697 0-.324-.043-.611-.165-.899a1.802 1.802 0 0 0-2.079-1.014z" style="fill:var(--color2, #fff)"/>
		</symbol>
		<symbol id="icon-left-arrow" viewBox="0 0 63 32">
			<path fill="#fff" d="M25.602.444c.15.251.374.443.504.443.135 0 .234.075.234.176 0 .096-.15.176-.334.176-.284 0-.334.117-.334.789 0 .731.035.795.459.843.299.037.479.171.514.4.035.192.209.475.389.635.534.459.234.885-.613.885-.633 0-.703.043-.633.347.05.213.249.368.514.4.344.043.459.176.563.677.075.336.095.805.05 1.024-.07.336-.199.4-.833.4-.848 0-.962.229-.284.576.549.283.678.832.264 1.146-.165.128-.234.235-.15.235.399.005 9.913.565 13.638.805 6.053.389 18.245 1.306 18.659 1.413.449.112.598.549.294.88-.18.197-.504.245-1.202.187-.873-.075-.843-.059.374.187 1.68.336 2.124.539 2.05.944-.08.416-.603.384-5.46-.368-2.244-.347-4.897-.672-5.904-.725l-1.83-.096 2.493.331c2.164.288 8.367 1.37 10.063 1.76.434.096.583.224.583.491 0 .453-.065.448-4.822-.421-2.194-.405-5.415-.896-7.151-1.098-3.525-.405-13.448-1.088-15.383-1.061l-1.247.021.997.155c1.476.235 13.453 1.653 20.21 2.394 4.558.501 6.058.725 6.567.992.733.373 1.376 1.162 1.147 1.402-.169.181-7.136-.485-19.277-1.845-5.47-.613-8.746-.906-9.23-.832l-.748.117.917.123c.504.069 5.67.608 11.474 1.2s11.534 1.194 12.725 1.333c1.197.144 2.613.256 3.176.256 1.062 0 1.92.389 1.361.619-.145.059-4.223-.293-9.065-.784-12.257-1.248-15.408-1.413-6.787-.363 2.478.304 5.161.661 5.989.795.823.139 3.411.421 5.739.629 6.253.56 6.068.528 6.128 1.098.065.619-.224.699-1.855.528-1.062-.112-1.321-.091-1.441.133-.125.235-.324.219-1.606-.112-1.985-.512-1.945-.507-10.626-1.2-12.675-1.008-14.007-1.013-3.989-.005 8.582.864 16.181 1.797 16.43 2.026.11.101.534.203.947.235.733.053.748.069.748.677v.624l-3.077-.075-.11.72c-.06.389-.209.763-.324.811-.12.048-3.276-.203-7.001-.555-8.467-.8-16.575-1.472-19.507-1.616-1.232-.059-2.583-.155-2.992-.208-.563-.075-.703-.048-.563.107.11.123 3.361.517 8.148.986 14.486 1.429 23.76 2.437 23.965 2.608.11.091.185.507.165.912-.025.603-.1.757-.384.8-.189.032-7.385-.635-15.967-1.477s-16.001-1.536-16.475-1.546c-.583-.011-.982.085-1.257.304-.454.368-.823 1.349-.798 2.112.01.283-.125.683-.299.891s-.399.629-.499.949c-.165.517-.15.576.15.576.185 0 .374.117.424.267.145.411-.279.843-.708.725-.304-.085-.399.005-.568.539-.19.608-.234.635-.833.549-.514-.075-.648-.027-.713.251-.105.427-.748.453-.898.037-.06-.171.005-.368.174-.496.239-.187.135-.293-.848-.842-.613-.347-1.501-.683-1.955-.747-.464-.064-.962-.155-1.132-.208-.314-.096-.374-.613-.1-.901.13-.139.025-.251-.359-.389-.299-.107-.683-.197-.858-.197-.289 0-.374-.176-.309-.656.015-.117-.289-.293-.688-.4-1.466-.379-1.551-.432-1.611-.986-.03-.283-.209-.64-.404-.789-2.713-2.122-3.825-2.821-4.672-2.933-.947-.128-1.546-.587-1.376-1.061.095-.267-.653-.997-1.017-.997-.09 0-.464-.283-.813-.619-1.247-1.189-3.884-3.295-4.124-3.295-.529 0-.214-.565.713-1.285.763-.592.977-.859.967-1.205-.015-.405.035-.443.583-.411.464.027.748-.101 1.267-.571 2.304-2.106 8.916-6.452 15.368-10.105 1.147-.651 2.189-1.306 2.304-1.45s.429-.267.698-.267c.299 0 .633-.16.853-.411.558-.624 1.685-.645 2.059-.037zM22.52 2.123c-.209.144-.209.181.01.256.563.192 1.98.288 1.98.128 0-.128-.314-.229-1.666-.533-.045-.011-.19.059-.324.149zm-2.418 1.205c-.499.261-.913.539-.913.619s.259.144.573.144c.464 0 .583-.075.623-.4.035-.293.174-.416.509-.453.249-.027.419-.128.369-.213-.13-.235-.13-.235-1.162.304zM17.858 4.72c0 .043.15.08.334.08s.334-.123.334-.277c0-.219-.065-.235-.334-.08-.184.107-.334.235-.334.277zm-1.331.72c0 .037.159.069.339.069.185 0 .294-.08.239-.176-.09-.16-.578-.069-.578.107zm5.654 2.213c.499.075 1.217.128 1.581.123l.663-.011-.663-.123c-.364-.069-1.082-.123-1.581-.123h-.917l.917.133zM10.473 9.109c-1.765 1.157-3.76 2.608-3.76 2.736 0 .256.643 0 .713-.283.055-.224.284-.379.683-.453.334-.064.598-.224.598-.363 0-.453.648-.619 2.812-.725 2.029-.101 2.169-.085 2.284.229.17.485.399.603 1.147.587l.663-.016-.559-.171c-.319-.096-.593-.309-.638-.496-.06-.235-.309-.368-.858-.453-.434-.069-.868-.208-.987-.315-.284-.245-.249-1.008.05-1.13.135-.053.204-.187.15-.283-.14-.245-.404-.112-2.299 1.136zm3.241-.859c.115.123 3.81.597 6.403.827 4.009.352 3.027.08-1.431-.405-4.607-.496-5.076-.533-4.971-.421zm9.504 1.109c.155.043.464.048.668.011s.075-.075-.294-.08c-.364-.005-.534.027-.374.069zm-6.402 1.611c.299.037.783.037 1.082 0s.06-.069-.539-.069c-.603 0-.843.032-.543.069zm2.867.234c.683.069 1.7.123 2.244.117l.997-.011-1.167-.107a32.63 32.63 0 0 0-2.244-.117l-1.082-.011 1.252.128zm3.954.299c.12.048.334.048.499 0s.075-.091-.209-.091c-.284.005-.409.043-.289.091zm21.621 1.248c.12.048.334.048.499 0 .165-.053.075-.091-.209-.091s-.409.037-.289.091zm-15.138 0c.12.048.334.048.499 0 .165-.053.075-.091-.209-.091-.279 0-.404.037-.289.091zm-25.286.485c-.294.235-.289.245.04.357.194.064.489.005.688-.144.334-.245.334-.261.04-.347-.165-.048-.344-.091-.389-.096s-.214.096-.379.229zm20.838.096c.234.144 1.361.267 1.745.187.324-.069-.683-.32-1.331-.331-.444-.005-.583.037-.414.144zm-16.78.965c.115.123 2.827.56 8.896 1.429 3.126.448 5.729.811 5.774.811s.045-.149 0-.347c-.05-.208-.259-.368-.524-.4-.299-.037-.434-.155-.419-.363.015-.176-.04-.309-.125-.309-.08 0-1.671-.123-3.516-.277a229.788 229.788 0 0 0-6.278-.416c-1.596-.08-3.126-.155-3.396-.171-.264-.016-.454.005-.414.043zm-6.372.667-1.017.736.399.32c.364.293.404.293.459.016.1-.517.489-.704 1.272-.608.713.091.733.08.698-.427-.02-.336-.15-.555-.364-.629l-.384-.133c-.025-.005-.494.315-1.062.725zm24.199-.453c.055.059.199.064.314.016.135-.059.1-.096-.1-.107-.165-.005-.264.037-.214.091zm11.803 2.319c.155.043.464.048.663.011.204-.037.075-.075-.289-.08-.369-.005-.534.027-.374.069zm-24.274-.005c.055.059.199.064.314.016.135-.053.1-.096-.1-.107-.165-.011-.269.032-.214.091zm-10.88.33c.399.315.648.389.913.283.404-.165.663-.133 9.215 1.056 6.752.944 7.021.971 7.021.731 0-.165-6.901-1.221-12.227-1.877-6.098-.752-5.615-.736-4.922-.192zm11.952-.138c.12.048.334.048.499 0s.075-.091-.209-.091c-.279.005-.409.043-.289.091zm1.247.17c.164.048.414.048.583 0 .16-.043.025-.08-.289-.08-.319 0-.454.037-.294.08zm2.119.331c1.416.261 1.935.309 1.78.149-.13-.133-1.68-.373-2.443-.379-.319 0-.015.101.663.229zm2.378.373c.055.059.199.064.314.016.135-.053.1-.096-.1-.107-.165-.011-.264.032-.214.091zm1.197.24c.748.208 1.282.208 1.167.005-.055-.096-.449-.171-.883-.16-.698.016-.728.032-.284.155zm4.458.827c.055.059.199.064.314.016.135-.059.1-.096-.1-.107-.165-.011-.264.032-.214.091zm1.197.202c.284.048.583.155.698.251.11.091 1.68.283 3.49.421 6.373.485 6.911.432 1.631-.155-2.927-.325-5.545-.592-5.819-.592h-.499l.499.075zm-15 .688c.055.059.199.064.314.016.135-.059.1-.096-.1-.107-.164-.011-.269.032-.214.091zm1.237.192c.115.048.299.048.414 0s.025-.091-.21-.091c-.229.005-.319.043-.204.091zm1.167.182c.12.053.334.053.499 0 .165-.048.075-.091-.209-.091-.279 0-.409.037-.289.091zm24.284.175c.199.037.548.037.748 0 .209-.037.04-.069-.374-.069-.419 0-.583.032-.374.069zm-22.953 0c.12.048.334.048.499 0s.075-.091-.209-.091-.409.043-.289.091zm24.863.171c.155.043.464.048.668.011s.075-.075-.294-.08c-.364-.011-.534.021-.374.069zm-12.018.069c.598.075 2.194.171 3.575.224 1.381.048 2.159.053 1.745.005-1.311-.144-4.707-.363-5.57-.363-.778 0-.763.011.249.133zm-11.683-.064c.12.048.334.048.499 0s.075-.091-.209-.091c-.279.005-.404.043-.289.091zm25.366.171c.155.043.464.048.663.011.204-.037.075-.075-.289-.08-.369-.005-.539.027-.374.069zm-24.119 0c.165.048.414.048.583 0 .16-.043.025-.08-.289-.08-.319 0-.449.037-.294.08zm25.864.187c.199.037.549.037.748 0 .209-.037.04-.069-.374-.069s-.583.032-.374.069zm-23.74.144c1.346.251 2.104.315 1.965.165-.115-.123-1.915-.389-2.628-.395-.319 0-.02.101.663.229zm25.401.032c.199.037.549.037.748 0 .209-.037.04-.069-.374-.069s-.578.032-.374.069zm-10.392 0c.349.037.898.037 1.247 0 .339-.037.06-.069-.623-.069s-.967.032-.623.069zm11.893.181c.204.037.583.037.833 0 .259-.037.09-.069-.374-.069-.469-.005-.668.027-.459.069zm-8.986 0c.199.037.548.037.748 0 .209-.037.04-.069-.374-.069-.414-.005-.578.027-.374.069zm11.519.325c.683.123 2.114.272 3.161.325l1.915.096-2.413-.32c-2.927-.395-4.598-.453-2.663-.101zm1.954 1.275c.12.048.334.048.499 0s.075-.091-.209-.091c-.279 0-.404.043-.289.091zm-39.791 1.189c.165.128.424.197.583.155.155-.043 1.132.053 2.179.213 1.042.16 2.942.325 4.224.363l2.329.069-2.578-.256a288.948 288.948 0 0 1-4.493-.496c-2.708-.341-2.623-.341-2.244-.048zm10.731 2.138c0 .176.489.267.578.107.055-.096-.055-.176-.239-.176-.185-.005-.339.032-.339.069zm-5.949 1.109c.165.048.414.048.583 0 .159-.043.025-.08-.289-.08-.319 0-.454.037-.294.08zm1.331.176c.164.048.414.048.583 0 .16-.043.025-.08-.289-.08-.319 0-.454.037-.294.08zm1.411.187c.204.037.583.037.833 0 .254-.037.09-.069-.374-.069s-.663.032-.459.069zm1.915.181c.249.037.663.037.913 0s.04-.069-.459-.069c-.494-.005-.703.032-.454.069zm-3.5.688c.135.139 3.077.603 3.839.608 1.142.005.633-.32-.683-.437a43.06 43.06 0 0 1-1.616-.165c-.608-.101-1.636-.107-1.541-.005zm3.126 1.856c.763.448 1.047.443.414-.005-.284-.203-.608-.352-.748-.347-.135.011.02.171.334.352z" style="fill:var(--color2, #fff)"/>
		</symbol>
		<symbol id="icon-menu" viewBox="0 0 32 32">
			<path fill="#fff" d="M0 0h32v3.2H0V0zm0 14.399h32v3.2H0v-3.2zM0 28.8h32V32H0v-3.2z" style="fill:var(--color2, #fff)"/>
		</symbol>
		<symbol id="icon-right-arrow" viewBox="0 0 63 32">
			<path fill="#fff" d="M37.331.444c-.15.251-.374.443-.504.443-.135 0-.234.075-.234.176 0 .096.15.176.334.176.284 0 .334.117.334.789 0 .731-.035.795-.459.843-.299.037-.479.171-.514.4-.035.192-.209.475-.389.635-.534.459-.234.885.613.885.633 0 .703.043.633.347-.05.213-.249.368-.514.4-.344.043-.459.176-.563.677-.075.336-.095.805-.05 1.024.07.336.199.4.833.4.848 0 .962.229.284.576-.549.283-.678.832-.264 1.146.165.128.234.235.15.235-.399.005-9.913.565-13.638.805-6.053.389-18.245 1.306-18.659 1.413-.449.112-.598.549-.294.88.179.197.504.245 1.202.187.873-.075.843-.059-.374.187-1.68.336-2.124.539-2.049.944.08.416.603.384 5.46-.368 2.244-.347 4.897-.672 5.904-.725l1.83-.096-2.493.331c-2.164.288-8.367 1.37-10.063 1.76-.434.096-.583.224-.583.491 0 .453.065.448 4.822-.421 2.194-.405 5.415-.896 7.151-1.098 3.525-.405 13.448-1.088 15.383-1.061l1.247.021-.997.155c-1.476.235-13.453 1.653-20.21 2.394-4.558.501-6.059.725-6.567.992-.733.373-1.376 1.162-1.147 1.402.17.181 7.136-.485 19.277-1.845 5.47-.613 8.746-.907 9.23-.832l.748.117-.917.123c-.504.069-5.67.608-11.474 1.2S8.276 17.746 7.085 17.885c-1.197.144-2.613.256-3.176.256-1.062 0-1.92.389-1.361.619.145.059 4.223-.293 9.065-.784 12.257-1.248 15.408-1.413 6.787-.363-2.478.304-5.161.661-5.989.795-.823.139-3.411.421-5.739.629-6.253.56-6.068.528-6.128 1.098-.065.619.224.699 1.855.528 1.062-.112 1.321-.091 1.441.133.125.235.324.219 1.606-.112 1.985-.512 1.945-.507 10.626-1.2 12.675-1.008 14.007-1.013 3.989-.005-8.582.864-16.181 1.797-16.43 2.026-.11.101-.534.203-.947.235-.733.053-.748.069-.748.677v.624l3.077-.075.11.72c.06.389.209.763.324.811.12.048 3.276-.203 7.001-.555 8.467-.8 16.575-1.472 19.507-1.616 1.232-.059 2.583-.155 2.992-.208.563-.075.703-.048.563.107-.11.123-3.361.517-8.148.986-14.486 1.429-23.76 2.437-23.965 2.608-.11.091-.184.507-.165.912.025.603.1.757.384.8.189.032 7.385-.635 15.966-1.477s16.001-1.536 16.475-1.546c.583-.011.982.085 1.257.304.454.368.823 1.349.798 2.112-.01.283.125.683.299.891s.399.629.499.949c.165.517.15.576-.15.576-.185 0-.374.117-.424.267-.145.411.279.843.708.725.304-.085.399.005.568.539.19.608.234.635.833.549.514-.075.648-.027.713.251.105.427.748.453.898.037.06-.171-.005-.368-.175-.496-.239-.187-.135-.293.848-.842.613-.347 1.501-.683 1.955-.747.464-.064.962-.155 1.132-.208.314-.096.374-.613.1-.901-.13-.139-.025-.251.359-.389.299-.107.683-.197.858-.197.289 0 .374-.176.309-.656-.015-.117.289-.293.688-.4 1.466-.379 1.551-.432 1.611-.986.03-.283.209-.64.404-.789 2.713-2.122 3.825-2.821 4.672-2.933.947-.128 1.546-.587 1.376-1.061-.095-.267.653-.997 1.017-.997.09 0 .464-.283.813-.619 1.247-1.189 3.884-3.295 4.124-3.295.529 0 .214-.565-.713-1.285-.763-.592-.977-.858-.967-1.205.015-.405-.035-.443-.583-.411-.464.027-.748-.101-1.267-.571-2.304-2.106-8.916-6.452-15.368-10.105-1.147-.651-2.189-1.306-2.304-1.45s-.429-.267-.698-.267c-.299 0-.633-.16-.853-.411-.558-.624-1.685-.645-2.059-.037zm3.082 1.679c.209.144.209.181-.01.256-.563.192-1.98.288-1.98.128 0-.128.314-.229 1.666-.533.045-.011.19.059.324.149zm2.418 1.205c.499.261.913.539.913.619s-.259.144-.573.144c-.464 0-.583-.075-.623-.4-.035-.293-.175-.416-.509-.453-.249-.027-.419-.128-.369-.213.13-.235.13-.235 1.162.304zm2.244 1.392c0 .043-.15.08-.334.08s-.334-.123-.334-.277c0-.219.065-.235.334-.08.184.107.334.235.334.277zm1.332.72c0 .037-.159.069-.339.069-.185 0-.294-.08-.239-.176.09-.16.578-.069.578.107zm-5.655 2.213c-.499.075-1.217.128-1.581.123l-.663-.011.663-.123c.364-.069 1.082-.123 1.581-.123h.917l-.917.133zM52.46 9.109c1.765 1.157 3.76 2.608 3.76 2.736 0 .256-.643 0-.713-.283-.055-.224-.284-.379-.683-.453-.334-.064-.598-.224-.598-.363 0-.453-.648-.619-2.812-.725-2.029-.101-2.169-.085-2.284.229-.17.485-.399.603-1.147.587l-.663-.016.559-.171c.319-.096.593-.309.638-.496.06-.235.309-.368.858-.453.434-.069.868-.208.987-.315.284-.245.249-1.008-.05-1.13-.135-.053-.204-.187-.15-.283.14-.245.404-.112 2.299 1.136zm-3.241-.859c-.115.123-3.81.597-6.403.827-4.009.352-3.027.08 1.431-.405 4.607-.496 5.076-.533 4.971-.421zm-9.504 1.109c-.155.043-.464.048-.668.011s-.075-.075.294-.08c.364-.005.534.027.374.069zm6.402 1.611c-.299.037-.783.037-1.082 0s-.06-.069.539-.069c.603 0 .843.032.543.069zm-2.867.234c-.683.069-1.7.123-2.244.117l-.997-.011 1.167-.107a32.63 32.63 0 0 1 2.244-.117l1.082-.011-1.252.128zm-3.954.299c-.12.048-.334.048-.499 0s-.075-.091.209-.091c.284.005.409.043.289.091zm-21.621 1.248c-.12.048-.334.048-.499 0-.165-.053-.075-.091.209-.091s.409.037.289.091zm15.139 0c-.12.048-.334.048-.499 0-.165-.053-.075-.091.209-.091.279 0 .404.037.289.091zm25.286.485c.294.235.289.245-.04.357-.194.064-.489.005-.688-.144-.334-.245-.334-.261-.04-.347.164-.048.344-.091.389-.096s.214.096.379.229zm-20.838.096c-.234.144-1.361.267-1.745.187-.324-.069.683-.32 1.331-.331.444-.005.583.037.414.144zm16.779.965c-.115.123-2.827.56-8.896 1.429-3.126.448-5.729.811-5.774.811s-.045-.149 0-.347c.05-.208.259-.368.524-.4.299-.037.434-.155.419-.363-.015-.176.04-.309.125-.309.08 0 1.67-.123 3.516-.277 1.845-.149 4.682-.341 6.278-.416 1.596-.08 3.127-.155 3.396-.171.264-.016.454.005.414.043zm6.373.667 1.017.736-.399.32c-.364.293-.404.293-.459.016-.1-.517-.489-.704-1.272-.608-.713.091-.733.08-.698-.427.02-.336.15-.555.364-.629l.384-.133c.025-.005.494.315 1.062.725zm-24.2-.453c-.055.059-.199.064-.314.016-.135-.059-.1-.096.1-.107.165-.005.264.037.214.091zM24.412 16.83a1.827 1.827 0 0 1-.663.011c-.204-.037-.075-.075.289-.08.369-.005.534.027.374.069zm24.273-.005c-.055.059-.199.064-.314.016-.135-.053-.1-.096.1-.107.165-.011.269.032.214.091zm10.881.33c-.399.315-.648.389-.913.283-.404-.165-.663-.133-9.215 1.056-6.752.944-7.021.97-7.021.73 0-.165 6.901-1.221 12.227-1.877 6.098-.752 5.615-.736 4.922-.192zm-11.953-.138c-.12.048-.334.048-.499 0s-.075-.091.209-.091c.279.005.409.043.289.091zm-1.246.17a1.198 1.198 0 0 1-.583 0c-.16-.043-.025-.08.289-.08.319 0 .454.037.294.08zm-2.119.331c-1.416.261-1.935.309-1.78.149.13-.133 1.68-.373 2.443-.379.319 0 .015.101-.663.229zm-2.379.373c-.055.059-.199.064-.314.016-.135-.053-.1-.096.1-.107.165-.011.264.032.214.091zm-1.197.24c-.748.208-1.282.208-1.167.005.055-.096.449-.171.883-.16.698.016.728.032.284.155zm-4.458.827c-.055.059-.199.064-.314.016-.135-.059-.1-.096.1-.107.165-.011.264.032.214.091zm-1.196.202c-.284.048-.583.155-.698.251-.11.091-1.68.283-3.49.421-6.373.485-6.911.432-1.631-.155 2.927-.325 5.545-.592 5.819-.592h.499l-.499.075zm14.999.688c-.055.059-.199.064-.314.016-.135-.059-.1-.096.1-.107.164-.011.269.032.214.091zm-1.237.192c-.115.048-.299.048-.414 0s-.025-.091.209-.091c.229.005.319.043.204.091zm-1.167.182c-.12.053-.334.053-.499 0-.165-.048-.075-.091.209-.091.279 0 .409.037.289.091zm-24.284.176a2.534 2.534 0 0 1-.748 0c-.209-.037-.04-.069.374-.069.419 0 .583.032.374.069zm22.953 0c-.12.048-.334.048-.499 0s-.075-.091.209-.091.409.043.289.091zm-24.862.17c-.155.043-.464.048-.668.011s-.075-.075.294-.08c.364-.011.534.021.374.069zm12.017.069c-.598.075-2.194.171-3.575.224-1.381.048-2.159.053-1.745.005 1.311-.144 4.707-.363 5.57-.363.778 0 .763.011-.249.133zm11.683-.064c-.12.048-.334.048-.499 0s-.075-.091.209-.091c.279.005.404.043.289.091zm-25.366.171a1.827 1.827 0 0 1-.663.011c-.204-.037-.075-.075.289-.08.369-.005.539.027.374.069zm24.12 0a1.198 1.198 0 0 1-.583 0c-.16-.043-.025-.08.289-.08.319 0 .449.037.294.08zm-25.865.187a2.534 2.534 0 0 1-.748 0c-.209-.037-.04-.069.374-.069s.583.032.374.069zm23.74.144c-1.346.251-2.104.315-1.965.165.115-.123 1.915-.389 2.628-.395.319 0 .02.101-.663.229zm-25.4.032a2.534 2.534 0 0 1-.748 0c-.209-.037-.04-.069.374-.069s.578.032.374.069zm10.391 0a7.018 7.018 0 0 1-1.247 0c-.339-.037-.06-.069.623-.069s.967.032.623.069zm-11.892.181a3.134 3.134 0 0 1-.833 0c-.259-.037-.09-.069.374-.069.469-.005.668.027.459.069zm8.985 0a2.534 2.534 0 0 1-.748 0c-.209-.037-.04-.069.374-.069.414-.005.578.027.374.069zm-11.518.325c-.683.123-2.114.272-3.161.325l-1.915.096 2.413-.32c2.927-.395 4.598-.453 2.663-.101zm-1.955 1.275c-.12.048-.334.048-.499 0s-.075-.091.209-.091c.279 0 .404.043.289.091zm39.791 1.189c-.165.128-.424.197-.583.155-.155-.043-1.132.053-2.179.213-1.042.16-2.942.325-4.224.363l-2.329.069 2.578-.256c1.411-.144 3.441-.368 4.493-.496 2.708-.341 2.623-.341 2.244-.048zm-10.73 2.138c0 .176-.489.267-.578.107-.055-.096.055-.176.239-.176.185-.005.339.032.339.069zm5.949 1.109a1.198 1.198 0 0 1-.583 0c-.159-.043-.025-.08.289-.08.319 0 .454.037.294.08zm-1.332.176a1.198 1.198 0 0 1-.583 0c-.16-.043-.025-.08.289-.08.319 0 .454.037.294.08zm-1.411.187a3.134 3.134 0 0 1-.833 0c-.254-.037-.09-.069.374-.069s.663.032.459.069zm-1.915.181c-.249.037-.663.037-.913 0s-.04-.069.459-.069c.494-.005.703.032.454.069zm3.501.688c-.135.139-3.077.603-3.839.608-1.142.005-.633-.32.683-.437a43.06 43.06 0 0 0 1.616-.165c.608-.101 1.636-.107 1.541-.005zm-3.127 1.856c-.763.448-1.047.443-.414-.005.284-.203.608-.352.748-.347.135.011-.02.171-.334.352z" style="fill:var(--color2, #fff)"/>
		</symbol>
		<symbol id="icon-close" viewBox="0 0 32 32">
			<path d="m2.869 0 29.13 29.916L29.13 32 0 2.084 2.869 0z"/>
			<path d="M29.131 0 .001 29.916 2.87 32 32 2.084 29.131 0z"/>
		</symbol>
		<symbol xmlns="http://www.w3.org/2000/svg" id="disclaimer" fill="none" viewBox="0 0 86 86">
			<path fill="#fff" d="M43.177 56.765c-2.08 0-3.822 1.742-3.822 3.82 0 2.08 1.743 3.822 3.822 3.822 2.002 0 3.82-1.742 3.73-3.73a3.731 3.731 0 0 0-3.73-3.912Z"/>
			<path fill="#fff" d="M78.545 70.307c2.4-4.142 2.415-9.08.03-13.206L54.64 15.649C52.27 11.476 47.99 9 43.19 9c-4.799 0-9.079 2.491-11.448 6.633L7.777 57.131c-2.384 4.173-2.37 9.14.046 13.283 2.384 4.096 6.649 6.557 11.417 6.557h47.81c4.785 0 9.08-2.492 11.495-6.664Zm-5.197-2.996c-1.33 2.293-3.683 3.653-6.312 3.653h-47.81c-2.6 0-4.938-1.33-6.237-3.577-1.315-2.277-1.33-4.998-.015-7.29L36.94 18.614c1.3-2.277 3.623-3.622 6.252-3.622 2.613 0 4.952 1.36 6.25 3.637l23.952 41.483c1.284 2.231 1.269 4.922-.046 7.199Z"/>
			<path fill="#fff" d="M42.228 29.94c-1.819.52-2.95 2.17-2.95 4.173.092 1.207.169 2.43.26 3.637.26 4.601.52 9.11.78 13.71.091 1.56 1.299 2.69 2.858 2.69 1.559 0 2.782-1.207 2.858-2.781 0-.948 0-1.819.092-2.782.168-2.95.351-5.9.52-8.85.091-1.91.26-3.82.351-5.731 0-.688-.092-1.3-.352-1.911-.779-1.712-2.598-2.583-4.417-2.155Z"/>
		</symbol>
		<symbol id="icon-minus" viewBox="0 0 32 32">
			<path d="M16 0C7.163 0 0 7.163 0 16s7.163 16 16 16 16-7.163 16-16S24.837 0 16 0zM1.6 16C1.6 8.047 8.047 1.6 16 1.6S30.4 8.047 30.4 16 23.953 30.4 16 30.4 1.6 23.953 1.6 16zm5.6-.8v1.6h17.6v-1.6H7.2z"/>
		</symbol>
		<symbol id="icon-plus" viewBox="0 0 32 32">
			<path d="M15.2 15.2v-8h1.6v8h8v1.6h-8v8h-1.6v-8h-8v-1.6h8z"/>
			<path d="M16 0C7.163 0 0 7.163 0 16s7.163 16 16 16 16-7.163 16-16S24.837 0 16 0zM1.6 16C1.6 8.047 8.047 1.6 16 1.6S30.4 8.047 30.4 16 23.953 30.4 16 30.4 1.6 23.953 1.6 16z"/>
		</symbol>


  <symbol fill="none" xmlns="http://www.w3.org/2000/svg" viewBox="0 0 53 59" id="google-play">
    <path d="M39.3853 19.9877L5.84148 1.28342C5.15964 0.753653 4.30934 0.476794 3.44009 0.501524C2.57084 0.526254 1.7383 0.850993 1.08887 1.41864L29.6964 29.4975L39.3853 19.9877Z" fill="#25DB82"></path>
    <path d="M39.3853 39.0072L29.6964 29.4973L1.08887 57.5762C1.73764 58.143 2.56807 58.4691 3.43614 58.4979C4.3042 58.5267 5.15517 58.2564 5.84148 57.7339L39.3853 39.0072Z" fill="#AC252C"></path>
    <path d="M39.1097 39.1427L29.6963 29.8356V29.1596L39.1097 19.8525L39.3163 19.9878L50.5894 26.2525C53.8037 28.0328 53.8037 30.9624 50.5894 32.7652L39.3622 39.03L39.1097 39.1427Z" fill="#FED401"></path>
    <path d="M1.08897 1.41849C0.332387 2.29651 -0.0536573 3.42517 0.00987374 4.57342V54.4213C-0.0682483 55.5715 0.319585 56.7054 1.08897 57.5762L1.24969 57.7565L29.6965 29.8354V29.1593L1.24969 1.26074L1.08897 1.41849Z" fill="#00D2FF"></path>
  </symbol>


  <symbol fill="none" xmlns="http://www.w3.org/2000/svg" viewBox="0 0 306 312" id="star">
    <rect x="2.5" y="2.5" width="301" height="307" rx="29.5" stroke="black" stroke-width="5"></rect>
    <path d="M251.454 107.118L184.516 100.934L157.927 39.4379C156.065 35.1317 149.935 35.1317 148.073 39.4379L121.484 100.934L54.5456 107.118C49.858 107.551 47.9642 113.357 51.5008 116.452L102.005 160.642L87.2248 225.96C86.1899 230.534 91.1492 234.122 95.1963 231.729L152.999 197.544L210.802 231.729C214.85 234.122 219.809 230.534 218.774 225.96L203.993 160.642L254.498 116.452C258.035 113.357 256.141 107.551 251.454 107.118Z" fill="#FFF97B"></path>
    <path d="M84.5703 37.3209C87.9827 42.0421 97.6145 62.3158 103.121 74.1312C103.987 75.9888 101.647 77.6665 100.153 76.2594C90.65 67.3101 74.4012 51.7807 70.9893 47.06C68.289 43.3244 69.1408 38.1159 72.8909 35.4275C76.6405 32.7374 81.87 33.5853 84.5703 37.3209ZM221.43 37.3209C218.018 42.0421 208.386 62.3158 202.88 74.1312C202.014 75.9888 204.354 77.6665 205.848 76.2594C215.351 67.3101 231.599 51.7807 235.011 47.06C237.711 43.3244 236.86 38.1159 233.11 35.4275C229.359 32.7374 224.13 33.5853 221.43 37.3209ZM275.354 175.757C269.801 173.953 247.481 170.974 234.506 169.339C232.467 169.081 231.572 171.811 233.372 172.802C244.82 179.1 264.612 189.8 270.165 191.603C274.558 193.031 279.282 190.64 280.714 186.264C282.147 181.888 279.747 177.184 275.354 175.757ZM30.6464 175.757C36.1991 173.953 58.5189 170.974 71.4936 169.339C73.5334 169.081 74.4275 171.811 72.6274 172.802C61.1795 179.1 41.3879 189.8 35.8351 191.603C31.4415 193.031 26.7178 190.64 25.2854 186.264C23.852 181.888 26.2528 177.184 30.6464 175.757ZM144.889 269.814C144.889 263.997 148.966 241.938 151.428 229.146C151.815 227.134 154.698 227.134 155.085 229.146C157.548 241.938 161.625 263.997 161.625 269.814C161.625 274.417 157.878 278.149 153.256 278.149C148.635 278.148 144.889 274.417 144.889 269.814Z" fill="#FFF082"></path>
    <path d="M167.595 61.8008L157.927 39.4379C156.065 35.1317 149.935 35.1317 148.073 39.4379L121.484 100.934L54.5456 107.118C49.858 107.551 47.9642 113.357 51.5008 116.452L102.005 160.642L87.2248 225.96C86.1899 230.534 91.1492 234.122 95.1963 231.729L102.89 227.179C115.502 145.863 150.959 86.1716 167.595 61.8008Z" fill="#FFC850"></path>
    <path d="M208.271 162.026L257.05 119.345C259.866 116.882 260.895 113.146 259.738 109.597C258.58 106.047 255.542 103.628 251.81 103.283L187.158 97.3108L175.053 69.3111C174.852 68.8465 174.561 68.4258 174.197 68.0731C173.833 67.7205 173.403 67.4427 172.931 67.2556C172.459 67.0686 171.955 66.976 171.447 66.983C170.939 66.9901 170.438 67.0968 169.971 67.2969C169.03 67.701 168.287 68.4611 167.908 69.4101C167.529 70.3592 167.544 71.4194 167.949 72.3575L180.963 102.457C181.238 103.093 181.68 103.643 182.242 104.05C182.804 104.456 183.466 104.705 184.158 104.769L251.096 110.952C251.95 111.032 252.268 111.628 252.381 111.976C252.495 112.325 252.59 112.994 251.945 113.557L201.441 157.748C200.919 158.205 200.53 158.793 200.315 159.451C200.101 160.11 200.068 160.813 200.221 161.489L215.001 226.805C215.19 227.639 214.718 228.124 214.421 228.34C214.123 228.555 213.514 228.852 212.777 228.415L154.973 194.231C154.375 193.879 153.693 193.692 152.999 193.692C152.304 193.692 151.622 193.879 151.024 194.231L93.2219 228.416C92.4856 228.853 91.8761 228.556 91.5776 228.34C91.28 228.125 90.8088 227.639 90.997 226.807L98.6272 193.09C98.8527 192.094 98.6716 191.049 98.1236 190.185C97.5756 189.322 96.7057 188.71 95.7051 188.486C94.7046 188.261 93.6554 188.442 92.7884 188.987C91.9214 189.533 91.3076 190.4 91.082 191.396L83.4518 225.113C82.6279 228.754 84 232.379 87.0313 234.572C88.6669 235.756 90.5499 236.353 92.4438 236.353C94.0613 236.353 95.6866 235.917 97.1705 235.04L152.999 202.023L208.828 235.04C212.05 236.945 215.935 236.766 218.966 234.572C221.998 232.379 223.369 228.754 222.545 225.113L208.271 162.026Z" fill="black"></path>
    <path d="M48.949 119.345L97.728 162.026L94.5579 176.038C94.3325 177.034 94.5138 178.079 95.0619 178.942C95.6099 179.806 96.4799 180.417 97.4805 180.642C97.7605 180.705 98.0467 180.737 98.3338 180.737C99.2113 180.736 100.062 180.438 100.747 179.892C101.432 179.345 101.91 178.583 102.103 177.731L105.778 161.488C105.931 160.813 105.899 160.109 105.684 159.451C105.469 158.793 105.08 158.204 104.558 157.748L54.0542 113.557C53.4101 112.994 53.505 112.325 53.6179 111.976C53.7319 111.628 54.05 111.031 54.9034 110.952L121.841 104.769C122.533 104.705 123.194 104.456 123.757 104.05C124.319 103.643 124.761 103.093 125.035 102.457L151.626 40.9616C151.964 40.1774 152.633 40.0603 153 40.0603C153.368 40.0603 154.037 40.1774 154.375 40.9616L161.597 57.664C162.003 58.6023 162.766 59.3416 163.719 59.7193C164.672 60.097 165.737 60.0823 166.679 59.6782C167.621 59.2742 168.363 58.5139 168.742 57.5648C169.121 56.6157 169.107 55.5553 168.701 54.6171L161.479 37.9147C159.997 34.4867 156.748 32.3569 153 32.3569C149.253 32.3569 146.004 34.4861 144.522 37.9147L118.84 97.3107L54.1887 103.283C50.4572 103.628 47.4196 106.047 46.2615 109.597C45.104 113.146 46.1342 116.881 48.949 119.345Z" fill="black"></path>
    <path d="M104.479 85.5914C105.195 86.2552 106.137 86.6239 107.115 86.6231C107.762 86.623 108.398 86.4612 108.966 86.1525C109.534 85.8438 110.015 85.3981 110.366 84.8563C110.716 84.3144 110.924 83.6937 110.971 83.0509C111.018 82.4082 110.902 81.764 110.634 81.1774C108.811 77.1819 92.6782 41.9446 87.7086 35.0696C86.7731 33.7678 85.5876 32.6637 84.2208 31.8213C82.854 30.9788 81.333 30.4147 79.7458 30.1616C76.517 29.6377 73.283 30.3973 70.6306 32.3C65.1558 36.2262 63.9085 43.8556 67.8494 49.3091C72.8195 56.1846 101.254 82.602 104.479 85.5914ZM75.1496 38.5526C75.6283 38.2069 76.1713 37.9593 76.7469 37.8242C77.3225 37.6892 77.9193 37.6693 78.5027 37.7658C79.0865 37.8589 79.646 38.0664 80.1488 38.3762C80.6516 38.6861 81.0877 39.0922 81.4319 39.571C83.7708 42.8059 89.7103 54.8329 95.0856 66.1317C86.0323 57.469 76.4654 48.0442 74.1271 44.8093C72.6772 42.8033 73.1361 39.9967 75.1496 38.5526ZM196.628 85.8975C197.285 86.3698 198.076 86.6239 198.886 86.6236C199.864 86.6245 200.806 86.2558 201.522 85.5919C204.747 82.6025 233.18 56.1856 238.15 49.3106C242.092 43.8576 240.845 36.2277 235.369 32.3016C232.716 30.3993 229.478 29.6398 226.254 30.1636C224.667 30.4167 223.146 30.9807 221.779 31.8231C220.412 32.6655 219.227 33.7695 218.291 35.0712C213.322 41.9462 197.189 77.1834 195.366 81.1789C194.996 81.9895 194.92 82.9026 195.15 83.7629C195.38 84.6231 195.902 85.3774 196.628 85.8975ZM224.568 39.5715C224.913 39.0925 225.349 38.6862 225.851 38.3763C226.354 38.0663 226.914 37.8588 227.498 37.7658C228.081 37.6694 228.678 37.6893 229.253 37.8242C229.829 37.9592 230.372 38.2066 230.851 38.5521C232.864 39.9967 233.323 42.8033 231.873 44.8093C229.535 48.0442 219.967 57.4695 210.915 66.1322C216.291 54.8334 222.23 42.8069 224.568 39.5715ZM283.666 178.161C282.942 176.731 281.94 175.459 280.719 174.418C279.498 173.377 278.082 172.587 276.552 172.095V172.095C268.466 169.469 229.857 164.866 225.482 164.35C224.595 164.247 223.698 164.452 222.945 164.932C222.192 165.411 221.629 166.135 221.351 166.981C221.074 167.828 221.1 168.743 221.424 169.573C221.748 170.403 222.351 171.095 223.13 171.532C226.97 173.684 260.879 192.639 268.965 195.265C270.194 195.666 271.479 195.871 272.772 195.872C274.672 195.872 276.559 195.426 278.302 194.544C279.737 193.823 281.014 192.825 282.059 191.609C283.104 190.393 283.897 188.982 284.391 187.459C284.893 185.938 285.088 184.333 284.964 182.737C284.839 181.141 284.398 179.586 283.666 178.161ZM277.038 185.07C276.856 185.63 276.565 186.149 276.18 186.597C275.796 187.044 275.326 187.411 274.798 187.676C274.272 187.945 273.697 188.106 273.108 188.151C272.518 188.197 271.926 188.126 271.364 187.941C267.559 186.706 255.636 180.491 244.599 174.533C257.041 176.202 270.35 178.183 274.154 179.419C274.717 179.6 275.238 179.891 275.687 180.274C276.136 180.657 276.505 181.125 276.771 181.65C277.041 182.174 277.203 182.747 277.249 183.334C277.294 183.921 277.223 184.511 277.038 185.07ZM84.6489 166.982C84.3721 166.135 83.8091 165.41 83.0558 164.93C82.3026 164.45 81.4056 164.246 80.5177 164.351C76.1421 164.867 37.5333 169.469 29.4478 172.095V172.096C27.9182 172.588 26.5017 173.377 25.2806 174.418C24.0594 175.46 23.0578 176.732 22.3338 178.161C21.6017 179.586 21.1608 181.142 21.0364 182.738C20.9121 184.334 21.1068 185.939 21.6093 187.459C22.1035 188.983 22.8963 190.393 23.9416 191.61C24.987 192.826 26.2642 193.823 27.6993 194.545C29.4114 195.416 31.3063 195.871 33.2289 195.873C34.5218 195.872 35.8064 195.667 37.0352 195.266C45.1217 192.64 79.0302 173.686 82.8705 171.533C83.6492 171.096 84.2519 170.403 84.5761 169.574C84.9003 168.744 84.926 167.828 84.6489 166.982ZM34.636 187.942C34.0744 188.126 33.4817 188.197 32.8923 188.151C32.3029 188.106 31.7284 187.944 31.202 187.676C30.6742 187.411 30.2045 187.044 29.82 186.596C29.4355 186.149 29.1439 185.63 28.9621 185.07C28.7772 184.51 28.7056 183.92 28.7514 183.333C28.7971 182.746 28.9594 182.174 29.2287 181.649C29.4951 181.124 29.8636 180.656 30.3128 180.273C30.7619 179.89 31.2829 179.6 31.8455 179.418C35.6508 178.182 48.959 176.201 61.4005 174.532C50.3646 180.491 38.4413 186.706 34.636 187.942ZM153.256 215.959C152.362 215.959 151.496 216.267 150.805 216.832C150.113 217.396 149.64 218.182 149.464 219.055C148.6 223.358 141.021 261.344 141.021 269.814C141.021 276.534 146.51 282 153.256 282C160.003 282 165.491 276.533 165.491 269.814C165.491 261.343 157.912 223.358 157.048 219.055C156.873 218.182 156.399 217.396 155.708 216.831C155.017 216.267 154.15 215.958 153.256 215.959ZM153.256 274.297C150.775 274.297 148.755 272.286 148.755 269.814C148.755 265.828 150.991 252.611 153.256 240.313C155.521 252.611 157.757 265.828 157.757 269.814C157.757 272.286 155.738 274.297 153.256 274.297Z" fill="black"></path>
  </symbol>


  <symbol fill="none" xmlns="http://www.w3.org/2000/svg" viewBox="0 0 306 312" id="downloads">
    <rect x="2.5" y="2.5" width="301" height="307" rx="29.5" stroke="black" stroke-width="5"></rect>
    <g clip-path="url(#clip0_85_5744)">
      <path d="M141.272 206.716C144.271 209.584 148.417 211.358 152.998 211.358C157.575 211.358 161.715 209.588 164.715 206.726L211.579 161.993C218.048 155.816 218.048 145.802 211.579 139.626C205.107 133.449 194.617 133.449 188.147 139.626L169.568 157.361L169.567 53.2022C169.567 44.4663 162.15 37.3867 152.999 37.3867C143.848 37.3867 136.43 44.4663 136.43 53.2022V157.358L117.852 139.626C111.382 133.449 100.89 133.448 94.4201 139.624C87.9501 145.801 87.9495 155.815 94.4201 161.992L141.272 206.716Z" fill="#34CE43"></path>
      <path d="M260.696 195.542C251.545 195.542 244.126 202.624 244.126 211.358V242.99H61.8706V211.358C61.8706 202.624 54.4528 195.542 45.302 195.542C36.1512 195.542 28.7329 202.624 28.7329 211.358V258.805C28.7329 267.54 36.1512 274.621 45.302 274.621H260.696C269.846 274.621 277.264 267.54 277.264 258.805V211.358C277.264 202.624 269.846 195.542 260.696 195.542Z" fill="#00D8E0"></path>
      <path d="M135.799 211.928C140.391 216.319 146.499 218.738 152.999 218.738C159.489 218.738 165.592 216.325 170.185 211.943L217.049 167.209C226.523 158.164 226.523 143.447 217.048 134.401C212.458 130.02 206.355 127.607 199.863 127.607C193.372 127.607 187.269 130.02 182.679 134.402L177.303 139.534L177.302 53.1988C177.302 40.4073 166.4 30 153 30C139.599 30 128.696 40.4073 128.696 53.1988V139.531L123.321 134.402C118.731 130.02 112.627 127.606 106.135 127.606C99.6434 127.606 93.541 130.019 88.9509 134.4C79.4747 143.445 79.4747 158.163 88.9509 167.208L135.799 211.928ZM99.8894 144.841C100.708 144.056 101.681 143.433 102.753 143.009C103.825 142.586 104.975 142.369 106.135 142.372C108.496 142.372 110.714 143.249 112.384 144.843L130.961 162.575C132.043 163.607 133.422 164.31 134.922 164.595C136.422 164.88 137.977 164.734 139.39 164.175C140.804 163.616 142.011 162.67 142.861 161.456C143.711 160.242 144.165 158.815 144.165 157.355V53.1988C144.165 48.5491 148.128 44.7656 153 44.7656C157.87 44.7656 161.834 48.5491 161.834 53.1988L161.835 157.358C161.835 158.818 162.288 160.246 163.138 161.46C163.988 162.674 165.196 163.62 166.609 164.179C168.023 164.738 169.578 164.884 171.078 164.599C172.578 164.314 173.957 163.611 175.038 162.578L193.617 144.843C194.436 144.057 195.409 143.435 196.481 143.011C197.553 142.587 198.703 142.37 199.863 142.373C202.224 142.373 204.442 143.25 206.11 144.842C209.555 148.131 209.555 153.481 206.111 156.769L159.249 201.501C158.43 202.286 157.456 202.909 156.383 203.334C155.311 203.758 154.16 203.975 152.999 203.972C151.836 203.975 150.684 203.757 149.61 203.331C148.536 202.906 147.561 202.28 146.742 201.492L99.8894 156.768C96.445 153.48 96.445 148.129 99.8894 144.841Z" fill="black" stroke="#E59FB8" stroke-width="5"></path>
      <path d="M236.394 237.604H238.394V235.604V211.355C238.394 199.755 248.312 190.156 260.697 190.156C273.082 190.156 283 199.755 283 211.355V258.802C283 270.402 273.082 280 260.697 280H45.3035C32.9182 280 23 270.402 23 258.802V211.355C23 199.755 32.9183 190.156 45.3035 190.156C57.6881 190.156 67.6064 199.755 67.6064 211.355V235.604V237.604H69.6064H236.394ZM260.697 269.235C266.584 269.235 271.531 264.643 271.531 258.802V211.355C271.531 205.514 266.585 200.922 260.698 200.922C254.811 200.922 249.863 205.514 249.863 211.355V242.986C249.863 245.873 247.384 248.369 244.128 248.369H61.872C58.6165 248.369 56.1377 245.873 56.1377 242.986V211.355C56.1377 205.514 51.1906 200.922 45.3035 200.922C39.4159 200.922 34.4688 205.514 34.4688 211.355V258.802C34.4688 264.643 39.416 269.235 45.3035 269.235H260.697Z" fill="black" stroke="#E59FB8" stroke-width="4"></path>
    </g>
    <defs>
      <clipPath id="clip0_85_5744">
        <rect width="264" height="252" fill="white" transform="translate(21 30)"></rect>
      </clipPath>
    </defs>
  </symbol>



  <symbol fill="none" xmlns="http://www.w3.org/2000/svg" viewBox="0 0 306 312" id="reviews">
    <rect x="2.5" y="2.5" width="301" height="307" rx="29.5" stroke="black" stroke-width="5"></rect>
    <path d="M148.005 261.774H30.0113C27.1632 261.774 24.8545 259.571 24.8545 256.852V77.6214C24.8545 74.903 27.1632 72.6995 30.0113 72.6995H148.005C150.853 72.6995 153.162 74.903 153.162 77.6214V256.852C153.162 259.57 150.853 261.774 148.005 261.774Z" fill="#F0E1EE"></path>
    <path d="M153.162 77.6197V244.73C153.162 247.448 150.853 249.652 148.005 249.652H42.6363C39.7882 249.652 37.4795 247.448 37.4795 244.73V77.6197C37.4795 74.9013 39.7882 72.6978 42.6363 72.6978H148.005C150.853 72.6978 153.162 74.9013 153.162 77.6197Z" fill="#F0E1EE"></path>
    <path d="M189.02 242.27H50.3697C47.5216 242.27 45.2129 240.066 45.2129 237.348V58.1175C45.2129 55.3991 47.5216 53.1956 50.3697 53.1956H189.02C191.868 53.1956 194.177 55.3991 194.177 58.1175V237.348C194.177 240.066 191.868 242.27 189.02 242.27Z" fill="#F0E1EE"></path>
    <path d="M194.18 58.119V225.229C194.18 227.948 191.871 230.151 189.023 230.151H62.9913C60.1432 230.151 57.8345 227.948 57.8345 225.229V58.119C57.8345 55.4006 60.1432 53.197 62.9913 53.197H189.023C191.871 53.197 194.18 55.4006 194.18 58.119Z" fill="#F0E1EE"></path>
    <path d="M65.5698 217.847V38.6136C65.5698 35.8952 67.8785 33.6917 70.7266 33.6917H209.377C212.225 33.6917 214.534 35.8952 214.534 38.6136V217.847C214.534 220.565 212.225 222.769 209.377 222.769H70.7266C67.879 222.769 65.5698 220.565 65.5698 217.847Z" fill="#F0E1EE"></path>
    <path d="M154.362 100.236H195.188C195.871 100.236 196.527 99.9768 197.011 99.5153C197.494 99.0538 197.766 98.4278 197.766 97.7751V58.6407C197.766 57.988 197.494 57.362 197.011 56.9005C196.527 56.439 195.871 56.1797 195.188 56.1797H154.362C153.678 56.1797 153.022 56.439 152.539 56.9005C152.055 57.362 151.783 57.988 151.783 58.6407V97.7751C151.783 98.4278 152.055 99.0538 152.539 99.5153C153.022 99.9768 153.678 100.236 154.362 100.236Z" fill="#EFD673"></path>
    <path d="M164.674 100.238H154.36C152.937 100.238 151.782 99.1353 151.782 97.7768V58.6424C151.782 57.2839 152.937 56.1814 154.36 56.1814H164.674C163.251 56.1814 162.096 57.2839 162.096 58.6424V97.7768C162.096 99.1353 163.251 100.238 164.674 100.238Z" fill="#ECC52E"></path>
    <path d="M135.023 97.9582H82.3349C80.1984 97.9582 78.4673 96.3059 78.4673 94.2668C78.4673 92.2276 80.1984 90.5753 82.3349 90.5753H135.023C137.16 90.5753 138.891 92.2276 138.891 94.2668C138.891 96.3059 137.16 97.9582 135.023 97.9582ZM166.636 129.165H113.469C111.333 129.165 109.601 127.513 109.601 125.474C109.601 123.435 111.333 121.782 113.469 121.782H166.636C168.772 121.782 170.504 123.435 170.504 125.474C170.504 127.513 168.772 129.165 166.636 129.165ZM135.023 81.8964H82.3349C80.1984 81.8964 78.4673 80.2441 78.4673 78.2049C78.4673 76.1658 80.1984 74.5135 82.3349 74.5135H135.023C137.16 74.5135 138.891 76.1658 138.891 78.2049C138.891 80.2441 137.16 81.8964 135.023 81.8964ZM135.023 65.8346H82.3349C80.1984 65.8346 78.4673 64.1823 78.4673 62.1431C78.4673 60.104 80.1984 58.4517 82.3349 58.4517H135.023C137.16 58.4517 138.891 60.104 138.891 62.1431C138.891 64.1823 137.16 65.8346 135.023 65.8346ZM161.675 170.009H82.3349C80.1984 170.009 78.4673 168.356 78.4673 166.317C78.4673 164.278 80.1984 162.626 82.3349 162.626H161.675C163.811 162.626 165.542 164.278 165.542 166.317C165.542 168.356 163.811 170.009 161.675 170.009ZM145.082 149.358H82.3349C80.1984 149.358 78.4673 147.705 78.4673 145.666C78.4673 143.627 80.1984 141.975 82.3349 141.975H145.082C147.218 141.975 148.949 143.627 148.949 145.666C148.949 147.705 147.218 149.358 145.082 149.358ZM198.01 149.358H161.846C159.71 149.358 157.979 147.705 157.979 145.666C157.979 143.627 159.71 141.975 161.846 141.975H198.01C200.146 141.975 201.877 143.627 201.877 145.666C201.877 147.705 200.146 149.358 198.01 149.358Z" fill="#B4D2D7"></path>
    <path d="M228.534 191.557C231.382 191.557 233.691 193.76 233.691 196.479V199.821C233.691 212.49 222.97 222.767 209.743 222.767L131.552 225.228L89.0376 222.767C102.265 222.767 112.991 212.49 112.991 199.821V196.479C112.991 193.76 115.3 191.557 118.148 191.557H228.534ZM214.533 160.317V191.557H160.789C170.087 172.642 190.126 160.273 212.311 160.273C213.053 160.273 213.796 160.287 214.533 160.317Z" fill="#F0E1EE"></path>
    <path d="M194.176 191.559V225.23C194.176 227.947 191.866 230.152 189.02 230.152H157.708C157.13 228.291 156.661 226.391 156.295 224.452C155.696 221.302 155.387 218.053 155.387 214.741C155.387 208.544 156.465 202.461 158.6 196.658C159.244 194.91 159.971 193.212 160.786 191.559H194.176Z" fill="#B4D2D7"></path>
    <path d="M251.608 238.738L277.786 260.971C282.125 265.055 282.284 271.565 278.142 275.482C274.005 279.395 267.153 279.232 262.857 275.119L236.71 252.766L251.608 238.738Z" fill="#F3D332"></path>
    <path d="M259.375 245.336C255.418 250.894 250.422 255.709 244.638 259.541L236.712 252.768L251.609 238.736L259.375 245.336Z" fill="#ECC52E"></path>
    <path d="M194.177 225.229V237.346C194.177 240.063 191.866 242.268 189.02 242.268H163.21C160.884 238.498 159.028 234.433 157.708 230.15H189.02C191.866 230.15 194.177 227.945 194.177 225.229Z" fill="#F0E1EE"></path>
    <path d="M165.699 214.743C165.699 209.546 166.627 204.558 168.333 199.919C174.716 182.562 191.994 170.121 212.306 170.121C238.046 170.121 258.913 190.099 258.913 214.743C258.913 239.386 238.046 259.365 212.306 259.365C186.566 259.365 165.699 239.387 165.699 214.743Z" fill="#04B0B6"></path>
    <path d="M248.008 243.416C239.468 253.167 226.643 259.363 212.307 259.363C186.565 259.363 165.7 239.385 165.7 214.741C165.7 209.543 166.629 204.557 168.33 199.916C171.486 191.337 177.308 183.959 184.842 178.693C181.239 182.795 178.441 187.483 176.581 192.533C174.88 197.175 173.951 202.16 173.951 207.358C173.951 232.002 194.816 251.981 220.558 251.981C230.82 251.981 240.309 248.801 248.008 243.416Z" fill="#00D8E0"></path>
    <path d="M183.209 214.742C183.205 211.59 183.761 208.461 184.854 205.487C188.839 194.649 199.626 186.882 212.308 186.882C228.38 186.882 241.408 199.355 241.408 214.742C241.408 230.128 228.38 242.602 212.308 242.602C196.237 242.602 183.209 230.128 183.209 214.742Z" fill="#F0E1EE"></path>
    <path d="M237.356 228.92C232.292 237.11 222.969 242.598 212.309 242.598C196.236 242.598 183.21 230.126 183.21 214.74C183.21 211.496 183.787 208.381 184.855 205.487C187.139 199.288 191.643 194.057 197.571 190.716C196.607 192.266 195.803 193.915 195.168 195.643C194.075 198.616 193.519 201.745 193.523 204.896C193.523 220.282 206.549 232.754 222.623 232.754C228.002 232.754 233.035 231.356 237.356 228.92Z" fill="#F0E1EE"></path>
    <path d="M154.378 103.927H195.204C198.758 103.927 201.65 101.168 201.65 97.7749V58.6415C201.65 55.2488 198.758 52.489 195.204 52.489H154.378C150.824 52.489 147.932 55.2488 147.932 58.6415V67.9006C147.932 69.9398 149.663 71.5921 151.8 71.5921C153.936 71.5921 155.667 69.9398 155.667 67.9006V59.8719H193.915V96.5449H155.667V85.662C155.667 83.6228 153.936 81.9705 151.8 81.9705C149.663 81.9705 147.932 83.6228 147.932 85.662V97.7754C147.932 101.168 150.824 103.927 154.378 103.927ZM82.3471 97.9615H135.036C137.172 97.9615 138.903 96.3092 138.903 94.27C138.903 92.2309 137.172 90.5785 135.036 90.5785H82.3471C80.2106 90.5785 78.4795 92.2309 78.4795 94.27C78.4795 96.3092 80.2111 97.9615 82.3471 97.9615ZM170.516 125.477C170.516 123.438 168.785 121.786 166.648 121.786H113.481C111.345 121.786 109.614 123.438 109.614 125.477C109.614 127.516 111.345 129.169 113.481 129.169H166.648C167.674 129.169 168.658 128.78 169.383 128.087C170.108 127.395 170.516 126.456 170.516 125.477ZM82.3471 81.8997H135.036C137.172 81.8997 138.903 80.2474 138.903 78.2082C138.903 76.169 137.172 74.5167 135.036 74.5167H82.3471C80.2106 74.5167 78.4795 76.169 78.4795 78.2082C78.4795 80.2474 80.2111 81.8997 82.3471 81.8997ZM82.3471 65.8378H135.036C137.172 65.8378 138.903 64.1855 138.903 62.1464C138.903 60.1072 137.172 58.4549 135.036 58.4549H82.3471C80.2106 58.4549 78.4795 60.1072 78.4795 62.1464C78.4795 64.1855 80.2111 65.8378 82.3471 65.8378ZM82.3471 170.012H161.687C163.823 170.012 165.554 168.36 165.554 166.321C165.554 164.281 163.823 162.629 161.687 162.629H82.3471C80.2106 162.629 78.4795 164.281 78.4795 166.321C78.4795 168.36 80.2111 170.012 82.3471 170.012ZM82.3471 149.361H145.094C147.23 149.361 148.961 147.709 148.961 145.67C148.961 143.63 147.23 141.978 145.094 141.978H82.3471C80.2106 141.978 78.4795 143.63 78.4795 145.67C78.4795 147.709 80.2111 149.361 82.3471 149.361ZM198.022 141.978H161.859C159.722 141.978 157.991 143.63 157.991 145.67C157.991 147.709 159.722 149.361 161.859 149.361H198.022C200.158 149.361 201.89 147.709 201.89 145.67C201.89 143.63 200.158 141.978 198.022 141.978Z" fill="black"></path>
    <path d="M280.514 258.342C280.467 258.298 280.419 258.255 280.369 258.213L256.569 238C260.33 231.461 262.476 224.133 262.761 216.496C262.798 215.518 262.425 214.566 261.726 213.849C261.027 213.133 260.059 212.71 259.034 212.675C256.895 212.615 255.107 214.196 255.03 216.233C254.445 237.978 235.148 255.889 212.319 255.672C188.753 255.672 169.58 237.31 169.58 214.742C169.223 192.624 189.177 173.499 212.319 173.812C230.348 173.812 246.529 184.731 252.584 200.982C252.932 201.899 253.646 202.648 254.57 203.064C255.494 203.48 256.553 203.53 257.516 203.203C258.479 202.877 259.267 202.2 259.709 201.32C260.15 200.44 260.209 199.43 259.872 198.509C253.412 181.172 237.188 168.978 218.413 166.786V36.1524C218.413 32.7597 215.521 30 211.967 30H68.1593C64.6048 30 61.7134 32.7597 61.7134 36.1524V49.5042H47.8029C44.2483 49.5042 41.3569 52.264 41.3569 55.6567V69.008H27.446C23.8914 69.008 21 71.7677 21 75.1604V259.313C21 262.706 23.8914 265.466 27.446 265.466H150.597C154.151 265.466 157.043 262.706 157.043 259.313V245.962H173.833C183.098 256.411 196.913 263.055 212.32 263.055C220.786 263.055 228.96 261.057 236.232 257.304L260.214 277.804C265.916 283.196 275.155 283.493 280.877 278.104C286.602 272.881 286.256 263.507 280.514 258.342ZM69.4485 37.3829H210.677V166.46C194.24 166.971 179.302 175.129 170.375 187.868H154.672C152.535 187.868 150.804 189.521 150.804 191.56C150.804 193.599 152.535 195.251 154.672 195.251H166.123C165.602 196.381 165.126 197.53 164.697 198.695C162.804 203.841 161.845 209.24 161.845 214.742C161.845 216.202 161.917 217.647 162.051 219.075H108.244C113.552 214.221 116.869 207.387 116.869 199.82V195.252H137.908C140.044 195.252 141.776 193.599 141.776 191.56C141.776 189.521 140.044 187.869 137.908 187.869H113.001C112.493 187.869 111.99 187.964 111.521 188.15C111.052 188.335 110.625 188.607 110.266 188.95C109.907 189.293 109.622 189.7 109.428 190.147C109.234 190.595 109.134 191.075 109.134 191.56V199.82C109.134 210.437 100.125 219.075 89.0521 219.075H69.4485V37.3829ZM49.0921 238.578V188.118C49.0921 186.079 47.361 184.426 45.2245 184.426C43.0881 184.426 41.3569 186.079 41.3569 188.118V239.809C41.3569 243.201 44.2483 245.961 47.8029 245.961H149.308V258.082H28.7352V76.3909H41.3569V172.515C41.3569 174.554 43.0881 176.206 45.2245 176.206C47.361 176.206 49.0921 174.554 49.0921 172.515V56.8872H61.7139V222.766C61.7139 224.806 63.445 226.458 65.5815 226.458H163.35C164.458 230.7 166.167 234.778 168.43 238.579H49.0921V238.578ZM275.432 272.86C272.756 275.406 268.216 275.146 265.45 272.368L242.957 253.14C246.458 250.573 249.596 247.585 252.294 244.251L275.147 263.659C277.784 266.083 278.09 270.417 275.432 272.86Z" fill="black"></path>
    <path d="M212.321 183.19C194.474 182.948 179.082 197.692 179.353 214.742C179.353 232.14 194.143 246.293 212.321 246.293C230.498 246.293 245.288 232.14 245.288 214.742C245.288 197.345 230.498 183.19 212.321 183.19ZM212.321 238.91C198.408 238.91 187.089 228.068 187.089 214.742C186.877 201.683 198.658 190.388 212.321 190.573C226.233 190.573 237.552 201.414 237.552 214.742C237.552 228.068 226.234 238.91 212.321 238.91Z" fill="black"></path>
  </symbol>



  <symbol fill="none" xmlns="http://www.w3.org/2000/svg" viewBox="0 0 306 312" id="wifi">
    <rect x="2.5" y="2.5" width="301" height="307" rx="29.5" stroke="black" stroke-width="5"></rect>
    <path d="M217.353 55.7203L252.885 224.479C255.857 238.592 246.826 252.438 232.713 255.412L135.89 275.798C121.78 278.768 107.931 269.739 104.96 255.626L69.4251 86.8673C66.4532 72.7546 75.4846 58.9084 89.5947 55.9365L186.42 35.5482C200.53 32.5788 214.381 41.6076 217.353 55.7203Z" fill="#F2DE96"></path>
    <path d="M249.805 243.18C247.958 246.292 245.485 248.986 242.541 251.09C239.598 253.195 236.249 254.665 232.708 255.407L135.89 275.798C121.77 278.775 107.936 269.744 104.957 255.621L69.4353 86.8773C68.3122 81.5764 68.8673 76.0573 71.0237 71.0863C73.1801 66.1153 76.8307 61.939 81.4687 59.1372C79.2718 69.5539 78.1688 80.1714 78.1775 90.8172C78.1775 175.574 146.868 244.264 231.599 244.264C237.684 244.268 243.764 243.905 249.805 243.18Z" fill="#C3AA8D"></path>
    <path d="M196.804 241.868C196.992 242.757 197.002 243.674 196.835 244.567C196.668 245.46 196.327 246.312 195.831 247.073C195.335 247.834 194.693 248.49 193.944 249.003C193.194 249.517 192.35 249.877 191.461 250.064L171.485 254.268C169.69 254.646 167.818 254.296 166.282 253.294C164.745 252.292 163.669 250.721 163.291 248.925C162.913 247.13 163.263 245.259 164.265 243.722C165.267 242.185 166.839 241.109 168.634 240.731L188.61 236.525C189.499 236.337 190.416 236.327 191.309 236.494C192.202 236.661 193.054 237.002 193.815 237.498C194.576 237.994 195.232 238.636 195.746 239.385C196.259 240.135 196.617 240.979 196.804 241.868ZM224.992 214.829L126.593 235.547C123.765 236.142 120.816 235.59 118.395 234.011C115.974 232.433 114.28 229.957 113.684 227.129L86.271 96.9268C85.6755 94.0988 86.2278 91.15 87.8065 88.7293C89.3851 86.3085 91.8608 84.614 94.6888 84.0185L193.088 63.3008C195.916 62.7053 198.865 63.2576 201.285 64.8363C203.706 66.4149 205.401 68.8906 205.996 71.7186L233.407 201.921C234.002 204.749 233.45 207.698 231.871 210.118C230.293 212.539 227.82 214.234 224.992 214.829Z" fill="white"></path>
    <path d="M233.595 204.946C233.432 207.305 232.505 209.548 230.953 211.334C229.402 213.119 227.311 214.351 224.997 214.842L126.598 235.544C123.769 236.142 120.819 235.592 118.396 234.015C115.972 232.439 114.274 229.965 113.674 227.137L86.2709 96.9168C85.9753 95.5177 85.9584 94.0742 86.221 92.6686C86.4837 91.263 87.0208 89.923 87.8016 88.7251C88.5825 87.5273 89.5918 86.495 90.7718 85.6874C91.9518 84.8798 93.2794 84.3127 94.6787 84.0185L98.7845 83.1536C96.4038 91.8971 95.2005 100.919 95.2067 109.981C95.2067 166.183 140.766 211.742 196.945 211.742C209.866 211.742 222.211 209.341 233.595 204.946Z" fill="#DDDDDD"></path>
    <path d="M130.454 278.252C125.081 278.252 119.821 276.701 115.218 273.696C112.131 271.696 109.473 269.103 107.395 266.068C105.317 263.033 103.862 259.617 103.114 256.016L67.5821 87.2569C66.814 83.6593 66.7671 79.9451 67.4443 76.3293C68.1214 72.7135 69.5091 69.268 71.5271 66.1922C73.528 63.1061 76.1211 60.4475 79.1564 58.3704C82.1917 56.2932 85.6088 54.8386 89.21 54.0909L186.033 33.7051C201.141 30.522 216.016 40.2272 219.196 55.333L254.73 224.092C257.911 239.198 248.208 254.077 233.103 257.255L136.277 277.644C134.363 278.048 132.411 278.251 130.454 278.252ZM191.805 36.8731C190.159 36.8731 188.487 37.0416 186.81 37.3936L89.9844 57.7794C83.656 59.112 78.2201 62.8331 74.685 68.2539C71.1499 73.6747 69.938 80.1465 71.2706 86.4775L106.805 255.236C107.452 258.353 108.711 261.31 110.508 263.936C112.306 266.563 114.606 268.807 117.277 270.538C119.938 272.284 122.919 273.485 126.048 274.071C129.177 274.657 132.39 274.617 135.503 273.953L232.328 253.567C245.397 250.814 253.793 237.941 251.04 224.869L215.508 56.1074C213.109 44.7127 203.014 36.8731 191.805 36.8731Z" fill="#0F0F0F"></path>
    <path d="M124.322 237.672C121.868 237.672 119.469 236.963 117.365 235.592C115.956 234.679 114.742 233.495 113.793 232.109C112.845 230.723 112.18 229.163 111.839 227.519L84.4254 97.3141C84.075 95.672 84.0537 93.9768 84.3627 92.3265C84.6717 90.6762 85.3049 89.1035 86.2256 87.6994C87.1395 86.2901 88.3238 85.0759 89.71 84.1273C91.0962 83.1787 92.6568 82.5145 94.3015 82.173L192.698 61.4553C196.015 60.7612 199.472 61.4108 202.311 63.2617C205.15 65.1126 207.139 68.0138 207.842 71.3289L235.255 201.534C235.605 203.176 235.627 204.871 235.318 206.521C235.009 208.172 234.375 209.744 233.455 211.148C232.541 212.558 231.356 213.772 229.97 214.72C228.584 215.669 227.023 216.333 225.379 216.675L126.982 237.392C126.108 237.578 125.216 237.671 124.322 237.672ZM195.336 64.9502C194.722 64.9502 194.099 65.0131 193.475 65.1463L95.0759 85.864C92.7392 86.3593 90.6943 87.761 89.3896 89.7618C88.085 91.7626 87.6271 94.1992 88.1164 96.5372L115.53 226.742C116.025 229.095 117.41 231.117 119.427 232.432C121.443 233.749 123.852 234.199 126.205 233.701L224.604 212.984C226.941 212.489 228.986 211.087 230.291 209.086C231.595 207.085 232.053 204.649 231.564 202.311L204.151 72.1058C203.722 70.0843 202.613 68.2708 201.009 66.9685C199.405 65.6661 197.402 64.9537 195.336 64.9502ZM170.042 256.305C168.352 256.305 166.698 255.817 165.25 254.872C164.28 254.243 163.444 253.428 162.791 252.475C162.138 251.521 161.681 250.447 161.446 249.315C160.967 247.031 161.414 244.649 162.689 242.694C163.964 240.739 165.963 239.369 168.247 238.886L188.223 234.68C189.354 234.439 190.522 234.425 191.658 234.638C192.795 234.851 193.878 235.287 194.845 235.922C195.815 236.55 196.651 237.365 197.304 238.319C197.957 239.273 198.414 240.346 198.649 241.478C199.135 243.781 198.695 246.132 197.407 248.103C196.778 249.074 195.963 249.909 195.009 250.562C194.055 251.215 192.98 251.673 191.848 251.907L171.872 256.114C171.27 256.241 170.657 256.305 170.042 256.305ZM190.038 238.262C189.696 238.262 189.347 238.298 189 238.371L169.021 242.577C167.706 242.853 166.58 243.625 165.846 244.752C165.111 245.878 164.86 247.221 165.136 248.536C165.413 249.851 166.185 250.98 167.311 251.714C168.438 252.448 169.785 252.694 171.095 252.423L191.071 248.216C192.376 247.94 193.518 247.157 194.246 246.04C194.975 244.923 195.231 243.563 194.958 242.258C194.72 241.129 194.101 240.116 193.205 239.388C192.31 238.661 191.192 238.265 190.038 238.262ZM125.046 64.9301C124.58 64.9294 124.131 64.7561 123.785 64.4436C123.439 64.131 123.221 63.7015 123.173 63.2378C123.125 62.774 123.251 62.3091 123.526 61.9325C123.801 61.556 124.205 61.2947 124.662 61.1989L127.835 60.5301C128.322 60.4313 128.83 60.5295 129.245 60.8032C129.661 61.0769 129.952 61.5039 130.054 61.9911C130.156 62.4783 130.062 62.9862 129.791 63.4039C129.52 63.8217 129.095 64.1154 128.609 64.2211L125.436 64.8873C125.308 64.9151 125.177 64.9294 125.046 64.9301ZM136.174 62.5868C135.708 62.5861 135.259 62.4128 134.913 62.1002C134.567 61.7877 134.349 61.3582 134.301 60.8944C134.254 60.4307 134.379 59.9657 134.654 59.5892C134.929 59.2127 135.334 58.9513 135.79 58.8556L156.457 54.5033C156.947 54.4003 157.457 54.4959 157.876 54.7692C158.295 55.0424 158.588 55.4709 158.691 55.9604C158.794 56.4498 158.698 56.9602 158.425 57.3791C158.152 57.798 157.724 58.0913 157.234 58.1943L136.567 62.544C136.438 62.5719 136.306 62.5863 136.174 62.5868Z" fill="#0F0F0F"></path>
    <path d="M35.3691 54.1387C38.6583 53.4627 41.6753 51.8326 44.0434 49.4521C46.4179 47.0823 48.041 44.0651 48.7099 40.7778C48.7202 40.6923 48.7614 40.6136 48.8258 40.5564C48.8902 40.4993 48.9733 40.4678 49.0594 40.4678C49.1455 40.4678 49.2286 40.4993 49.293 40.5564C49.3574 40.6136 49.3986 40.6923 49.4089 40.7778C50.0785 44.0654 51.7026 47.0826 54.0779 49.4521C56.446 51.8328 59.4631 53.4629 62.7522 54.1387C62.8358 54.151 62.9121 54.193 62.9673 54.2569C63.0225 54.3208 63.0528 54.4025 63.0528 54.4869C63.0528 54.5714 63.0225 54.653 62.9673 54.7169C62.9121 54.7809 62.8358 54.8228 62.7522 54.8351C59.4681 55.5196 56.4555 57.1489 54.0849 59.5226C51.7143 61.8963 50.0891 64.911 49.4089 68.1961C49.3986 68.2815 49.3574 68.3603 49.293 68.4174C49.2286 68.4745 49.1455 68.5061 49.0594 68.5061C48.9733 68.5061 48.8902 68.4745 48.8258 68.4174C48.7614 68.3603 48.7202 68.2815 48.7099 68.1961C48.0417 64.9047 46.4114 61.8858 44.0258 59.5218C41.6666 57.1386 38.6543 55.5078 35.3691 54.8351" fill="#FFD9B0"></path>
    <path d="M62.7572 54.8252C59.4691 55.5082 56.4528 57.1387 54.0804 59.5156C51.708 61.8925 50.0832 64.9118 49.4063 68.2012C49.3908 68.2828 49.3472 68.3565 49.2832 68.4095C49.2192 68.4625 49.1387 68.4915 49.0556 68.4915C48.9724 68.4915 48.8919 68.4625 48.8279 68.4095C48.7639 68.3565 48.7203 68.2828 48.7048 68.2012C48.0779 65.0681 46.5738 62.1776 44.3677 59.8663C46.9245 59.3975 49.2456 58.0727 50.9496 56.1097C52.6535 54.1466 53.6388 51.6622 53.7434 49.0649C53.834 49.2007 53.9697 49.3365 54.0829 49.4496C56.4497 51.83 59.4677 53.4572 62.7572 54.1262C63.1418 54.2167 63.1418 54.7573 62.7572 54.8252Z" fill="#EDB57E"></path>
    <path d="M49.0595 70.3809C48.5418 70.3825 48.0397 70.2041 47.6392 69.8761C47.2388 69.5481 46.9649 69.091 46.8645 68.5832C46.2726 65.6523 44.8224 62.9637 42.6983 60.8593C40.6008 58.7339 37.9182 57.281 34.992 56.6856C34.5067 56.5865 34.0799 56.3005 33.8037 55.8893C33.5275 55.4781 33.4242 54.9748 33.5161 54.4881C33.4242 54.0014 33.5275 53.498 33.8037 53.0869C34.0799 52.6757 34.5067 52.3897 34.992 52.2906C37.9201 51.6907 40.6056 50.2386 42.7109 48.1169C44.8238 46.0103 46.2678 43.3269 46.862 40.4031C46.9608 39.8929 47.2342 39.4332 47.6352 39.1028C48.0362 38.7724 48.5399 38.5921 49.0595 38.5928H49.062C50.1356 38.5953 51.0357 39.337 51.2544 40.398C51.849 43.325 53.2949 46.0112 55.4105 48.1194C57.5162 50.2401 60.2016 51.6912 63.1294 52.2906C63.6411 52.3868 64.1032 52.6587 64.4359 53.0593C64.7686 53.4599 64.951 53.964 64.9516 54.4848C64.9521 55.0055 64.7709 55.51 64.4392 55.9114C64.1074 56.3127 63.646 56.5857 63.1344 56.6831C60.208 57.2859 57.5226 58.7339 55.411 60.8478C53.2993 62.9616 51.8541 65.6485 51.2544 68.5756C51.1557 69.0844 50.8828 69.5429 50.4827 69.8724C50.0826 70.2018 49.5803 70.3816 49.062 70.3809H49.0595ZM40.184 54.4856C42.1077 55.4202 43.8589 56.6742 45.3635 58.1941C46.8811 59.6984 48.1317 61.4499 49.062 63.3736C50.9299 59.4929 54.0588 56.3604 57.9374 54.4881C56.012 53.5534 54.2569 52.3024 52.7454 50.7871C51.235 49.2795 49.989 47.5286 49.0595 45.6076C48.1311 47.5286 46.8859 49.2796 45.376 50.7871C43.8646 52.3019 42.1096 53.5521 40.184 54.4856Z" fill="#0F0F0F"></path>
    <path d="M268.549 265.975C268.549 268.46 267.562 270.844 265.804 272.602C264.046 274.359 261.663 275.347 259.177 275.347C256.691 275.347 254.308 274.359 252.55 272.602C250.792 270.844 249.805 268.46 249.805 265.975C249.806 264.744 250.049 263.525 250.521 262.388C250.992 261.251 251.684 260.218 252.555 259.348C253.426 258.479 254.46 257.789 255.598 257.319C256.736 256.849 257.955 256.608 259.186 256.609C261.669 256.61 264.05 257.596 265.806 259.352C267.562 261.108 268.548 263.492 268.549 265.975Z" fill="#00D8E0"></path>
    <path d="M268.549 265.97C268.549 268.454 267.564 270.838 265.809 272.597C264.054 274.356 261.673 275.347 259.188 275.353C257.259 275.35 255.377 274.753 253.797 273.645C252.218 272.536 251.017 270.969 250.358 269.155C252.012 270.164 253.937 270.635 255.87 270.506C257.803 270.377 259.648 269.654 261.153 268.434C262.659 267.215 263.75 265.561 264.278 263.697C264.805 261.833 264.744 259.852 264.101 258.025C265.46 258.859 266.582 260.027 267.361 261.418C268.14 262.809 268.547 264.376 268.549 265.97Z" fill="#00D8E0"></path>
    <path d="M259.186 277.239C256.2 277.235 253.337 276.047 251.225 273.935C249.114 271.824 247.926 268.961 247.922 265.975C247.927 262.99 249.116 260.13 251.228 258.02C253.339 255.911 256.201 254.725 259.186 254.723C262.168 254.727 265.028 255.913 267.136 258.022C269.245 260.131 270.431 262.99 270.435 265.972C270.435 272.183 265.389 277.239 259.186 277.239ZM259.186 258.495C257.201 258.495 255.298 259.282 253.893 260.684C252.488 262.086 251.697 263.988 251.693 265.972C251.696 267.959 252.486 269.863 253.891 271.267C255.295 272.672 257.2 273.462 259.186 273.465C261.171 273.465 263.076 272.676 264.479 271.272C265.883 269.868 266.672 267.964 266.672 265.979C266.672 263.993 265.883 262.089 264.479 260.685C263.076 259.281 261.171 258.495 259.186 258.495Z" fill="#0F0F0F"></path>
    <path d="M272.195 141.477C272.195 143.963 271.207 146.347 269.45 148.104C267.692 149.862 265.308 150.849 262.823 150.849C260.337 150.849 257.953 149.862 256.196 148.104C254.438 146.347 253.451 143.963 253.451 141.477C253.452 140.247 253.695 139.029 254.167 137.892C254.639 136.755 255.33 135.723 256.201 134.854C257.071 133.984 258.105 133.295 259.242 132.825C260.38 132.355 261.598 132.113 262.829 132.114C265.312 132.114 267.694 133.101 269.451 134.857C271.207 136.612 272.194 138.994 272.195 141.477Z" fill="#33D443"></path>
    <path d="M272.195 141.475C272.195 143.96 271.209 146.343 269.454 148.102C267.7 149.861 265.319 150.852 262.834 150.858C260.904 150.855 259.023 150.258 257.443 149.15C255.864 148.041 254.663 146.474 254.004 144.661C255.658 145.669 257.584 146.141 259.517 146.012C261.45 145.883 263.296 145.159 264.801 143.94C266.306 142.72 267.398 141.065 267.925 139.201C268.452 137.336 268.39 135.355 267.747 133.527C269.105 134.362 270.227 135.53 271.005 136.921C271.784 138.312 272.193 139.881 272.195 141.475Z" fill="#7FD685"></path>
    <path d="M262.831 152.744C259.845 152.741 256.981 151.553 254.869 149.441C252.757 147.33 251.569 144.467 251.565 141.48C251.57 138.495 252.759 135.634 254.872 133.525C256.984 131.415 259.846 130.23 262.831 130.229C265.814 130.232 268.673 131.418 270.782 133.527C272.891 135.636 274.077 138.495 274.08 141.477C274.08 147.688 269.034 152.741 262.831 152.741V152.744ZM262.831 134C260.846 133.999 258.942 134.786 257.537 136.188C256.132 137.59 255.34 139.492 255.336 141.477C255.339 143.464 256.13 145.369 257.535 146.773C258.94 148.178 260.845 148.968 262.831 148.97C264.817 148.97 266.721 148.181 268.125 146.777C269.529 145.373 270.318 143.469 270.318 141.484C270.318 139.498 269.529 137.594 268.125 136.19C266.721 134.786 264.817 134 262.831 134Z" fill="#0F0F0F"></path>
    <path d="M198.237 118.22C197.486 118.372 196.712 118.373 195.961 118.225C195.209 118.077 194.494 117.781 193.857 117.355C181.336 109.005 166.283 106.036 151.479 108.995C136.675 111.957 123.922 120.486 115.575 133.007C114.706 134.269 113.376 135.139 111.871 135.429C110.366 135.718 108.808 135.404 107.533 134.554C106.258 133.703 105.369 132.386 105.058 130.885C104.746 129.385 105.038 127.822 105.87 126.535C115.945 111.419 131.332 101.128 149.191 97.5554C167.052 93.9851 185.213 97.568 200.329 107.648C201.289 108.288 202.037 109.198 202.479 110.263C202.922 111.329 203.038 112.501 202.815 113.633C202.591 114.764 202.036 115.804 201.221 116.621C200.407 117.437 199.368 117.994 198.237 118.22Z" fill="#FF84A0"></path>
    <path d="M200.495 107.788C194.284 104.277 187.551 101.783 180.552 100.402C171.763 98.6701 162.718 98.6915 153.938 100.464C136.069 104.037 120.689 114.346 110.619 129.446C110.011 130.346 109.669 131.399 109.633 132.484C109.598 133.569 109.87 134.642 110.418 135.579C109.372 135.535 108.358 135.203 107.489 134.618C106.85 134.196 106.301 133.651 105.874 133.016C105.447 132.38 105.15 131.666 105 130.915C104.85 130.164 104.85 129.391 105 128.64C105.15 127.889 105.447 127.175 105.875 126.54C115.94 111.417 131.324 101.131 149.193 97.5578C157.972 95.7912 167.012 95.7622 175.802 97.4723C184.567 99.217 192.901 102.678 200.324 107.655C200.379 107.69 200.435 107.731 200.495 107.788Z" fill="#F76189"></path>
    <path d="M189.995 138.015C189.244 138.167 188.471 138.168 187.72 138.02C186.969 137.871 186.254 137.576 185.618 137.15C167.48 125.057 142.887 129.975 130.794 148.113C129.935 149.4 128.601 150.293 127.083 150.596C125.566 150.899 123.991 150.587 122.704 149.728C121.417 148.87 120.524 147.535 120.221 146.018C119.918 144.501 120.23 142.925 121.089 141.638C136.748 118.152 168.601 111.781 192.087 127.443C193.047 128.083 193.795 128.993 194.237 130.058C194.68 131.124 194.797 132.296 194.573 133.428C194.349 134.559 193.794 135.599 192.98 136.416C192.165 137.232 191.126 137.789 189.995 138.015Z" fill="#FF84A0"></path>
    <path d="M192.658 127.865C169.675 115.497 140.579 122.434 125.826 144.56C124.568 146.478 124.568 148.859 125.629 150.717C124.581 150.655 123.568 150.315 122.695 149.732C121.414 148.867 120.525 147.531 120.222 146.015C119.919 144.499 120.226 142.925 121.076 141.633C136.75 118.155 168.599 111.789 192.097 127.433C192.288 127.558 192.484 127.707 192.658 127.865Z" fill="#F76189"></path>
    <path d="M181.756 157.813C181.005 157.964 180.231 157.966 179.48 157.818C178.728 157.669 178.013 157.374 177.376 156.948C167 150.031 152.932 152.842 146.013 163.219C145.144 164.481 143.814 165.351 142.309 165.64C140.804 165.93 139.246 165.616 137.971 164.765C136.696 163.915 135.807 162.597 135.496 161.097C135.184 159.597 135.476 158.034 136.308 156.747C146.792 141.017 168.118 136.753 183.848 147.24C184.807 147.88 185.556 148.79 185.998 149.856C186.441 150.921 186.557 152.094 186.333 153.225C186.11 154.357 185.555 155.397 184.74 156.213C183.926 157.03 182.887 157.586 181.756 157.813Z" fill="#FF84A0"></path>
    <path d="M184.7 147.921C169.499 140.444 150.699 145.204 141.052 159.673C140.446 160.573 140.103 161.624 140.063 162.709C140.024 163.793 140.289 164.867 140.828 165.808C139.801 165.752 138.807 165.424 137.947 164.859C137.087 164.294 136.392 163.512 135.932 162.591C135.473 161.67 135.265 160.645 135.33 159.618C135.395 158.591 135.731 157.599 136.303 156.744C146.792 141.012 168.118 136.748 183.848 147.238C184.15 147.439 184.436 147.665 184.7 147.921Z" fill="#F76189"></path>
    <path d="M110.705 137.495C109.196 137.495 107.723 137.05 106.441 136.195C105.595 135.635 104.869 134.912 104.304 134.069C103.74 133.226 103.348 132.28 103.152 131.284C102.95 130.291 102.947 129.267 103.144 128.272C103.341 127.277 103.733 126.331 104.298 125.489C114.657 109.953 130.472 99.3782 148.826 95.7074C167.181 92.0365 185.844 95.7224 201.377 106.079C202.223 106.639 202.949 107.361 203.514 108.203C204.078 109.046 204.47 109.992 204.666 110.987C204.868 111.981 204.87 113.005 204.673 114.001C204.475 114.996 204.083 115.942 203.517 116.785C202.957 117.63 202.235 118.355 201.392 118.919C200.55 119.483 199.604 119.875 198.609 120.071C196.59 120.473 194.529 120.068 192.814 118.922C180.708 110.851 166.162 107.985 151.851 110.846C137.545 113.707 125.217 121.949 117.146 134.053C116.586 134.899 115.864 135.625 115.021 136.189C114.178 136.754 113.231 137.146 112.236 137.341C111.728 137.442 111.215 137.492 110.707 137.492L110.705 137.495ZM162.72 98.0959C158.351 98.0959 153.945 98.5284 149.563 99.4034C132.197 102.878 117.237 112.885 107.436 127.581C107.147 128.012 106.946 128.496 106.846 129.006C106.745 129.515 106.747 130.039 106.85 130.548C107.057 131.579 107.655 132.471 108.532 133.057C109.41 133.643 110.461 133.849 111.497 133.643C112.005 133.543 112.489 133.343 112.92 133.054C113.35 132.766 113.72 132.395 114.006 131.963C122.635 119.017 135.812 110.205 151.109 107.147C166.409 104.087 181.96 107.155 194.903 115.786C195.781 116.37 196.829 116.578 197.87 116.372C198.901 116.166 199.793 115.568 200.377 114.693C200.666 114.262 200.867 113.778 200.968 113.268C201.069 112.759 201.068 112.235 200.965 111.726C200.865 111.217 200.664 110.733 200.375 110.303C200.087 109.872 199.715 109.503 199.283 109.217C188.296 101.892 175.656 98.0959 162.72 98.0959Z" fill="#0F0F0F"></path>
    <path d="M125.924 152.596C124.415 152.596 122.942 152.153 121.66 151.298C120.814 150.739 120.088 150.017 119.523 149.174C118.959 148.332 118.567 147.385 118.371 146.39C118.169 145.397 118.166 144.373 118.363 143.378C118.56 142.383 118.952 141.437 119.517 140.595C127.369 128.816 139.363 120.795 153.284 118.012C167.206 115.228 181.356 118.022 193.136 125.874C193.981 126.434 194.706 127.156 195.271 127.999C195.835 128.841 196.226 129.787 196.422 130.782C196.623 131.776 196.626 132.801 196.428 133.796C196.231 134.791 195.838 135.737 195.273 136.58C194.713 137.425 193.991 138.151 193.148 138.715C192.306 139.279 191.36 139.67 190.365 139.866C189.371 140.067 188.347 140.07 187.352 139.873C186.358 139.676 185.412 139.284 184.57 138.719C167.296 127.204 143.878 131.886 132.363 149.159C131.803 150.004 131.081 150.73 130.238 151.294C129.396 151.858 128.45 152.249 127.455 152.445C126.951 152.546 126.438 152.596 125.924 152.596ZM163.824 120.735C160.568 120.735 157.287 121.057 154.023 121.71C141.09 124.295 129.949 131.745 122.655 142.687C122.367 143.117 122.166 143.601 122.066 144.109C121.965 144.618 121.967 145.141 122.069 145.649C122.278 146.685 122.874 147.575 123.751 148.161C124.626 148.744 125.677 148.95 126.716 148.746C127.224 148.646 127.708 148.446 128.139 148.158C128.569 147.869 128.938 147.499 129.225 147.067C141.897 128.066 167.658 122.912 186.664 135.582C187.094 135.87 187.578 136.07 188.086 136.171C188.595 136.271 189.118 136.27 189.626 136.167C190.659 135.961 191.552 135.363 192.135 134.488C192.425 134.057 192.626 133.573 192.727 133.063C192.828 132.554 192.827 132.03 192.723 131.521C192.623 131.012 192.422 130.529 192.134 130.098C191.845 129.667 191.474 129.298 191.041 129.012C182.99 123.616 173.516 120.736 163.824 120.735Z" fill="#0F0F0F"></path>
    <path d="M141.145 167.701C139.636 167.701 138.161 167.259 136.878 166.404C135.164 165.26 133.994 163.518 133.592 161.494C133.19 159.47 133.595 157.416 134.739 155.698C137.365 151.74 140.751 148.341 144.7 145.7C148.649 143.059 153.083 141.227 157.744 140.311C162.399 139.365 167.195 139.352 171.855 140.272C176.514 141.192 180.945 143.027 184.891 145.671C185.737 146.231 186.463 146.953 187.027 147.796C187.592 148.638 187.983 149.584 188.18 150.579C188.382 151.573 188.384 152.597 188.187 153.592C187.991 154.587 187.598 155.533 187.033 156.375C186.473 157.221 185.751 157.947 184.908 158.512C184.065 159.076 183.118 159.468 182.123 159.663C181.129 159.865 180.106 159.867 179.112 159.67C178.117 159.473 177.172 159.081 176.33 158.517C166.818 152.176 153.925 154.755 147.584 164.264C147.024 165.11 146.301 165.836 145.458 166.4C144.615 166.964 143.669 167.355 142.674 167.551C142.17 167.651 141.658 167.702 141.145 167.701ZM164.92 143.371C162.78 143.371 160.628 143.582 158.481 144.012C154.306 144.832 150.335 146.472 146.799 148.837C143.262 151.202 140.229 154.245 137.876 157.79C137.587 158.221 137.386 158.705 137.285 159.215C137.184 159.724 137.185 160.248 137.288 160.757C137.497 161.788 138.093 162.68 138.973 163.266C139.845 163.85 140.901 164.061 141.935 163.852C142.97 163.646 143.86 163.048 144.446 162.173C151.939 150.934 167.18 147.884 178.422 155.379C179.297 155.965 180.353 156.171 181.384 155.965C181.893 155.865 182.377 155.665 182.808 155.377C183.239 155.088 183.609 154.717 183.895 154.285C184.185 153.854 184.385 153.37 184.486 152.861C184.586 152.351 184.585 151.827 184.481 151.318C184.381 150.81 184.18 150.326 183.891 149.895C183.603 149.465 183.231 149.096 182.799 148.809C177.51 145.265 171.287 143.372 164.92 143.371Z" fill="#0F0F0F"></path>
    <path d="M205.197 190.529C206.005 194.405 205.243 198.444 203.077 201.76C200.901 205.069 197.501 207.38 193.623 208.186L156.9 215.83C154.98 216.229 153.001 216.247 151.076 215.881C149.15 215.516 147.315 214.774 145.675 213.7C144.036 212.625 142.624 211.238 141.521 209.618C140.417 207.998 139.644 206.176 139.244 204.257C138.436 200.38 139.198 196.341 141.364 193.025C143.54 189.716 146.94 187.405 150.818 186.599L187.541 178.955C189.46 178.556 191.439 178.539 193.365 178.904C195.291 179.27 197.126 180.011 198.766 181.085C200.405 182.16 201.817 183.547 202.92 185.167C204.024 186.788 204.797 188.609 205.197 190.529Z" fill="#C3C9FB"></path>
    <path d="M205.197 190.529C206.005 194.405 205.243 198.444 203.077 201.76C200.901 205.069 197.501 207.38 193.623 208.186L156.9 215.83C154.851 216.257 152.736 216.248 150.691 215.804C148.645 215.36 146.717 214.492 145.029 213.254C143.341 212.017 141.933 210.439 140.895 208.622C139.857 206.805 139.212 204.79 139.003 202.708C146.923 205.051 157.797 205.323 169.35 202.917C185.128 199.633 197.749 192.299 202.471 184.572C203.791 186.282 204.731 188.286 205.197 190.529Z" fill="#8693E2"></path>
    <path d="M205.197 190.529C206.005 194.405 205.243 198.444 203.077 201.76C200.901 205.069 197.501 207.38 193.623 208.186L192.517 208.418C190.598 208.817 188.618 208.835 186.692 208.47C184.765 208.104 182.93 207.363 181.29 206.288C179.65 205.213 178.239 203.825 177.135 202.205C176.032 200.584 175.258 198.762 174.859 196.842C174.052 192.966 174.815 188.928 176.981 185.613C179.157 182.304 182.556 179.993 186.433 179.187L187.539 178.955C189.458 178.556 191.437 178.538 193.364 178.903C195.29 179.269 197.125 180.01 198.765 181.084C200.405 182.159 201.817 183.546 202.92 185.167C204.024 186.787 204.797 188.609 205.197 190.529Z" fill="#FFD9B0"></path>
    <path d="M205.197 190.529C206.005 194.405 205.243 198.444 203.077 201.76C200.901 205.069 197.501 207.38 193.623 208.186L192.517 208.418C189.559 209.034 186.484 208.737 183.699 207.566C180.914 206.396 178.55 204.407 176.921 201.863C179.249 202.592 181.786 202.751 184.346 202.217L185.452 201.986C189.331 201.17 192.729 198.85 194.901 195.534C195.974 193.898 196.714 192.066 197.078 190.143C197.443 188.22 197.425 186.244 197.025 184.328C196.658 182.541 195.959 180.839 194.963 179.31C199.992 180.851 204.05 185.017 205.197 190.529Z" fill="#EDB57E"></path>
    <path d="M153.855 218.03C146.061 218.03 139.046 212.566 137.396 204.639C136.485 200.276 137.343 195.73 139.782 192C140.994 190.151 142.559 188.559 144.386 187.315C146.214 186.071 148.268 185.2 150.433 184.751L187.157 177.107C196.233 175.217 205.154 181.067 207.045 190.144C207.957 194.508 207.098 199.055 204.659 202.786C203.446 204.634 201.882 206.226 200.054 207.469C198.227 208.712 196.172 209.583 194.008 210.032L157.284 217.675C156.135 217.914 154.986 218.03 153.855 218.03ZM190.589 180.527C189.709 180.527 188.819 180.615 187.926 180.803L151.205 188.447C149.525 188.795 147.931 189.47 146.512 190.434C145.094 191.399 143.879 192.633 142.938 194.066C141.529 196.226 140.791 198.754 140.818 201.332C140.844 203.91 141.633 206.423 143.086 208.553C144.538 210.683 146.589 212.336 148.979 213.302C151.37 214.268 153.993 214.505 156.517 213.982L193.244 206.339C196.635 205.635 199.607 203.614 201.508 200.719C203.398 197.824 204.062 194.297 203.354 190.913C202.739 187.981 201.136 185.349 198.812 183.458C196.488 181.567 193.585 180.532 190.589 180.527Z" fill="#0F0F0F"></path>
    <path d="M189.47 210.618C181.675 210.618 174.661 205.154 173.011 197.227C172.101 192.864 172.96 188.317 175.4 184.587C176.611 182.739 178.175 181.147 180.002 179.903C181.829 178.66 183.884 177.788 186.048 177.339L187.154 177.107C196.226 175.222 205.156 181.067 207.045 190.144C207.957 194.508 207.098 199.055 204.659 202.786C203.446 204.634 201.882 206.226 200.054 207.469C198.227 208.712 196.172 209.583 194.008 210.032L192.902 210.263C191.75 210.502 190.601 210.618 189.47 210.618ZM190.586 180.527C189.706 180.527 188.816 180.615 187.923 180.803L186.817 181.032C185.137 181.38 183.543 182.056 182.124 183.021C180.706 183.985 179.491 185.22 178.55 186.654C177.139 188.813 176.399 191.343 176.424 193.922C176.449 196.502 177.238 199.016 178.692 201.147C180.145 203.278 182.198 204.931 184.59 205.896C186.982 206.861 189.607 207.096 192.132 206.57L193.239 206.339C194.918 205.991 196.513 205.315 197.931 204.351C199.35 203.387 200.564 202.153 201.506 200.719C203.396 197.824 204.06 194.297 203.351 190.913C202.737 187.981 201.133 185.349 198.809 183.458C196.485 181.567 193.582 180.532 190.586 180.527Z" fill="#0F0F0F"></path>
    <path d="M87.2918 272.107C112.523 272.107 132.976 251.654 132.976 226.423C132.976 201.192 112.523 180.738 87.2918 180.738C62.0609 180.738 41.6072 201.192 41.6072 226.423C41.6072 251.654 62.0609 272.107 87.2918 272.107Z" fill="#33D443"></path>
    <path d="M132.971 226.43C132.971 251.651 112.53 272.112 87.2917 272.112C72.6938 272.112 59.6899 265.266 51.3274 254.583C58.3457 258.731 66.3516 260.913 74.5041 260.899C99.745 260.899 120.184 240.457 120.184 215.217C120.184 204.574 116.545 194.796 110.446 187.026C123.922 194.972 132.971 209.65 132.971 226.43Z" fill="#7FD685"></path>
    <path d="M47.2919 270.626C46.8098 270.626 46.3462 270.441 45.997 270.108C40.0551 264.507 35.3188 257.753 32.078 250.258C31.9722 250.03 31.9132 249.783 31.9045 249.531C31.8957 249.28 31.9374 249.029 32.027 248.794C32.1166 248.559 32.2523 248.344 32.4262 248.162C32.6001 247.98 32.8087 247.835 33.0395 247.735C33.2704 247.635 33.519 247.582 33.7706 247.58C34.0222 247.577 34.2717 247.625 34.5045 247.721C34.7373 247.816 34.9486 247.957 35.1261 248.136C35.3035 248.314 35.4434 248.526 35.5376 248.759C38.5761 255.786 43.0163 262.119 48.5868 267.37C48.861 267.63 49.0512 267.965 49.1326 268.334C49.214 268.702 49.183 269.087 49.0435 269.437C48.9041 269.788 48.6626 270.089 48.3503 270.301C48.038 270.513 47.6693 270.626 47.2919 270.626ZM58.4277 278.898C58.0995 278.898 57.7771 278.812 57.4924 278.649C55.8552 277.711 54.2628 276.697 52.7202 275.61C52.3191 275.318 52.0487 274.881 51.9674 274.392C51.8862 273.903 52.0008 273.402 52.2863 272.997C52.5718 272.592 53.0053 272.315 53.493 272.227C53.9808 272.14 54.4836 272.247 54.8926 272.527C56.3392 273.547 57.8326 274.498 59.368 275.378C59.7279 275.585 60.0094 275.906 60.1687 276.289C60.328 276.673 60.3563 277.098 60.2491 277.499C60.1419 277.9 59.9053 278.255 59.5759 278.508C59.2466 278.761 58.843 278.898 58.4277 278.898ZM87.2917 273.995C61.0601 273.995 39.7214 252.654 39.7214 226.423C39.7214 200.191 61.0601 178.852 87.2917 178.852C113.523 178.852 134.862 200.191 134.862 226.423C134.862 252.654 113.523 273.995 87.2917 273.995ZM87.2917 182.624C63.142 182.624 43.4928 202.273 43.4928 226.423C43.4928 250.572 63.142 270.221 87.2917 270.221C111.441 270.221 131.091 250.572 131.091 226.423C131.091 202.273 111.444 182.624 87.2917 182.624Z" fill="#0F0F0F"></path>
    <path d="M87.2918 273.995C74.1672 273.995 63.8838 253.097 63.8838 226.423C63.8838 199.749 74.1672 178.852 87.2918 178.852C100.416 178.852 110.7 199.746 110.7 226.423C110.7 253.099 100.416 273.995 87.2918 273.995ZM87.2918 182.624C76.6488 182.624 67.6552 202.68 67.6552 226.423C67.6552 250.165 76.6488 270.221 87.2918 270.221C97.9348 270.221 106.928 250.165 106.928 226.423C106.928 202.68 97.9348 182.624 87.2918 182.624Z" fill="#0F0F0F"></path>
    <path d="M87.2917 273.995C86.7916 273.995 86.312 273.797 85.9583 273.443C85.6047 273.089 85.406 272.61 85.406 272.11V180.736C85.406 180.235 85.6047 179.756 85.9583 179.402C86.312 179.049 86.7916 178.85 87.2917 178.85C87.7918 178.85 88.2715 179.049 88.6251 179.402C88.9788 179.756 89.1774 180.235 89.1774 180.736V272.105C89.1774 272.605 88.9788 273.084 88.6251 273.438C88.2715 273.792 87.7918 273.99 87.2917 273.99V273.995Z" fill="#0F0F0F"></path>
    <path d="M132.976 228.308H41.6071C41.107 228.308 40.6274 228.11 40.2737 227.756C39.9201 227.402 39.7214 226.923 39.7214 226.423C39.7214 225.922 39.9201 225.443 40.2737 225.089C40.6274 224.736 41.107 224.537 41.6071 224.537H132.976C133.476 224.537 133.956 224.736 134.31 225.089C134.663 225.443 134.862 225.922 134.862 226.423C134.862 226.923 134.663 227.402 134.31 227.756C133.956 228.11 133.476 228.308 132.976 228.308Z" fill="#0F0F0F"></path>
    <path d="M69.5332 205.365C72.1562 205.365 74.2827 203.239 74.2827 200.616C74.2827 197.993 72.1562 195.866 69.5332 195.866C66.9101 195.866 64.7837 197.993 64.7837 200.616C64.7837 203.239 66.9101 205.365 69.5332 205.365Z" fill="white"></path>
    <path d="M69.5332 207.251C65.8749 207.251 62.8955 204.274 62.8955 200.613C62.8955 196.953 65.8749 193.981 69.5332 193.981C73.1915 193.981 76.1684 196.955 76.1684 200.616C76.1684 204.277 73.194 207.251 69.5332 207.251ZM69.5332 197.752C68.9663 197.752 68.4122 197.92 67.9408 198.235C67.4694 198.55 67.1021 198.998 66.8851 199.522C66.6682 200.045 66.6114 200.622 66.722 201.178C66.8326 201.734 67.1056 202.244 67.5065 202.645C67.9073 203.046 68.418 203.319 68.974 203.43C69.53 203.54 70.1064 203.483 70.6301 203.267C71.1538 203.05 71.6015 202.682 71.9165 202.211C72.2314 201.739 72.3995 201.185 72.3995 200.618C72.3995 199.858 72.0975 199.129 71.56 198.592C71.0225 198.054 70.2934 197.752 69.5332 197.752Z" fill="#0F0F0F"></path>
    <path d="M108.059 217.824C110.683 217.824 112.809 215.697 112.809 213.074C112.809 210.451 110.683 208.325 108.059 208.325C105.436 208.325 103.31 210.451 103.31 213.074C103.31 215.697 105.436 217.824 108.059 217.824Z" fill="white"></path>
    <path d="M108.06 219.712C104.401 219.712 101.422 216.735 101.422 213.074C101.422 209.413 104.401 206.439 108.06 206.439C111.718 206.439 114.695 209.416 114.695 213.077C114.695 216.737 111.72 219.712 108.06 219.712ZM108.06 210.21C107.493 210.21 106.938 210.379 106.467 210.693C105.996 211.008 105.628 211.456 105.411 211.98C105.194 212.504 105.138 213.08 105.248 213.636C105.359 214.192 105.632 214.703 106.033 215.103C106.434 215.504 106.944 215.777 107.5 215.888C108.056 215.998 108.633 215.942 109.156 215.725C109.68 215.508 110.128 215.14 110.443 214.669C110.758 214.198 110.926 213.644 110.926 213.077C110.926 212.316 110.624 211.587 110.086 211.05C109.549 210.512 108.82 210.21 108.06 210.21Z" fill="#0F0F0F"></path>
    <path d="M68.4824 254.276C71.1055 254.276 73.2319 252.149 73.2319 249.526C73.2319 246.903 71.1055 244.777 68.4824 244.777C65.8593 244.777 63.7329 246.903 63.7329 249.526C63.7329 252.149 65.8593 254.276 68.4824 254.276Z" fill="white"></path>
    <path d="M68.4849 256.162C64.8266 256.162 61.8472 253.187 61.8472 249.526C61.8472 245.866 64.8266 242.891 68.4849 242.891C72.1432 242.891 75.1201 245.868 75.1201 249.529C75.1201 253.19 72.1457 256.162 68.4849 256.162ZM68.4849 246.663C67.918 246.663 67.3638 246.831 66.8925 247.146C66.4211 247.461 66.0537 247.908 65.8368 248.432C65.6198 248.956 65.5631 249.532 65.6737 250.088C65.7843 250.644 66.0573 251.155 66.4581 251.556C66.859 251.956 67.3697 252.229 67.9257 252.34C68.4817 252.451 69.058 252.394 69.5818 252.177C70.1055 251.96 70.5532 251.593 70.8681 251.121C71.1831 250.65 71.3512 250.096 71.3512 249.529C71.3512 248.769 71.0492 248.04 70.5117 247.502C69.9741 246.965 69.2451 246.663 68.4849 246.663Z" fill="#0F0F0F"></path>
    <path d="M226.646 106.888C242.515 106.888 255.379 94.0241 255.379 78.1551C255.379 62.2862 242.515 49.4219 226.646 49.4219C210.777 49.4219 197.913 62.2862 197.913 78.1551C197.913 94.0241 210.777 106.888 226.646 106.888Z" fill="#00D8E0"></path>
    <path d="M255.387 78.1628C255.387 94.0179 242.503 106.876 226.646 106.876C214.23 106.876 203.628 98.9937 199.622 87.9207C204.412 91.2291 210.097 92.9966 215.917 92.987C219.692 92.9893 223.431 92.2475 226.919 90.804C230.407 89.3605 233.577 87.2436 236.246 84.5744C238.916 81.9051 241.033 78.7358 242.477 75.2478C243.921 71.7597 244.663 68.0213 244.661 64.2462C244.661 60.8042 244.067 57.5205 242.971 54.4883C246.805 57.1322 249.938 60.6687 252.101 64.793C254.264 68.9173 255.392 73.5057 255.387 78.1628Z" fill="#25A3A9"></path>
    <path d="M267.953 80.0408C267.453 80.0408 266.973 79.8422 266.62 79.4885C266.266 79.1349 266.067 78.6552 266.067 78.1551C266.067 65.3499 259.789 53.2888 249.272 45.8918C248.863 45.6041 248.585 45.1656 248.499 44.6729C248.457 44.4289 248.462 44.1789 248.517 43.9372C248.571 43.6956 248.672 43.4669 248.814 43.2644C248.957 43.0618 249.138 42.8893 249.347 42.7567C249.556 42.624 249.789 42.5339 250.033 42.4914C250.526 42.4056 251.033 42.519 251.442 42.8068C257.116 46.7947 261.748 52.0875 264.95 58.2394C268.151 64.3914 269.828 71.2225 269.839 78.1576C269.839 78.6577 269.64 79.1374 269.286 79.491C268.933 79.8447 268.453 80.0433 267.953 80.0433V80.0408ZM241.96 41.6779C241.72 41.6779 241.482 41.6318 241.259 41.5421C239.813 40.9638 238.317 40.466 236.816 40.0637C236.34 39.9281 235.937 39.611 235.693 39.1807C235.449 38.7505 235.384 38.2415 235.511 37.7636C235.639 37.2857 235.949 36.8771 236.375 36.6259C236.801 36.3746 237.309 36.3009 237.789 36.4205C239.436 36.8605 241.075 37.4061 242.662 38.0422C243.068 38.2054 243.405 38.5049 243.615 38.8894C243.825 39.2739 243.894 39.7194 243.811 40.1494C243.728 40.5794 243.498 40.9671 243.16 41.246C242.823 41.5249 242.398 41.6776 241.96 41.6779ZM226.643 108.774C209.762 108.774 196.024 95.0385 196.024 78.1551C196.024 61.2717 209.762 47.5336 226.646 47.5336C243.529 47.5336 257.267 61.2692 257.267 78.1576C257.267 95.0461 243.529 108.774 226.643 108.774ZM226.643 51.3051C211.842 51.3051 199.796 63.3485 199.796 78.1551C199.796 92.9617 211.839 105.003 226.646 105.003C241.453 105.003 253.496 92.9592 253.496 78.1576C253.496 63.356 241.45 51.3051 226.643 51.3051Z" fill="#0F0F0F"></path>
    <path d="M217.243 86.3919C216.743 86.3919 216.263 86.1932 215.909 85.8395C215.556 85.4859 215.357 85.0063 215.357 84.5061V64.862C215.357 64.3619 215.556 63.8823 215.909 63.5286C216.263 63.175 216.743 62.9763 217.243 62.9763C217.743 62.9763 218.222 63.175 218.576 63.5286C218.93 63.8823 219.128 64.3619 219.128 64.862V84.5061C219.128 85.0063 218.93 85.4859 218.576 85.8395C218.222 86.1932 217.743 86.3919 217.243 86.3919Z" fill="#0F0F0F"></path>
    <path d="M210.301 73.6898C209.928 73.6895 209.564 73.5786 209.254 73.3714C208.944 73.1641 208.703 72.8698 208.56 72.5254C208.417 72.181 208.38 71.8021 208.453 71.4366C208.525 71.071 208.705 70.7352 208.968 70.4715L215.907 63.5321C216.083 63.3569 216.29 63.2177 216.519 63.1229C216.748 63.0281 216.994 62.9792 217.241 62.9792C217.489 62.9792 217.734 63.0281 217.963 63.1229C218.192 63.2177 218.4 63.3569 218.575 63.5321L225.517 70.4715C225.702 70.6442 225.851 70.8522 225.954 71.0835C226.057 71.3149 226.112 71.5646 226.117 71.8178C226.121 72.071 226.075 72.3225 225.98 72.5574C225.885 72.7922 225.744 73.0054 225.565 73.1844C225.386 73.3635 225.173 73.5047 224.938 73.5995C224.703 73.6943 224.451 73.741 224.198 73.7365C223.945 73.732 223.695 73.6767 223.464 73.5736C223.233 73.4705 223.025 73.3218 222.852 73.1367L217.245 67.5298L211.638 73.1367C211.463 73.3123 211.255 73.4517 211.026 73.5466C210.797 73.6415 210.549 73.6902 210.301 73.6898ZM236.047 93.3313C235.547 93.3313 235.067 93.1326 234.713 92.779C234.36 92.4253 234.161 91.9458 234.161 91.4457V71.8041C234.161 71.304 234.36 70.8242 234.713 70.4706C235.067 70.1169 235.547 69.9184 236.047 69.9184C236.547 69.9184 237.027 70.1169 237.38 70.4706C237.734 70.8242 237.933 71.304 237.933 71.8041V91.4457C237.933 91.9458 237.734 92.4253 237.38 92.779C237.027 93.1326 236.547 93.3313 236.047 93.3313Z" fill="#0F0F0F"></path>
    <path d="M236.047 93.3314C235.799 93.3314 235.554 93.2826 235.326 93.1877C235.097 93.0928 234.889 92.9536 234.714 92.7782L227.775 85.8388C227.59 85.6662 227.441 85.458 227.338 85.2267C227.235 84.9954 227.18 84.7457 227.175 84.4925C227.171 84.2393 227.217 83.9878 227.312 83.753C227.407 83.5182 227.548 83.3049 227.727 83.1258C227.906 82.9467 228.119 82.8056 228.354 82.7107C228.589 82.6159 228.841 82.5693 229.094 82.5738C229.347 82.5782 229.597 82.6337 229.828 82.7367C230.059 82.8398 230.267 82.9884 230.44 83.1737L236.047 88.7805L241.654 83.1737C241.828 82.9935 242.036 82.8497 242.266 82.7508C242.496 82.6519 242.743 82.5997 242.994 82.5974C243.244 82.5951 243.492 82.6427 243.724 82.7374C243.956 82.8321 244.166 82.9721 244.344 83.149C244.521 83.326 244.661 83.5365 244.756 83.7682C244.851 83.9999 244.899 84.2482 244.896 84.4986C244.894 84.7489 244.843 84.9964 244.744 85.2265C244.645 85.4566 244.502 85.6648 244.321 85.8388L237.382 92.7782C237.207 92.9536 237 93.0928 236.771 93.1877C236.542 93.2826 236.295 93.3314 236.047 93.3314Z" fill="#0F0F0F"></path>
  </symbol>


	</defs>
</svg>