<svg xmlns="http://www.w3.org/2000/svg" aria-hidden="true" style="position:absolute;width:0;height:0;overflow:hidden">
	<defs>
		<symbol id="icon-ellipse" viewBox="0 0 34 32">
			<path fill="#f593bc" d="M32.889 16c0 8.837-7.163 16-16 16s-16-7.163-16-16 7.163-16 16-16 16 7.163 16 16z" style="fill:var(--color1, #f593bc)"/>
		</symbol>
		<symbol id="icon-ellipse-active" viewBox="0 0 32 32">
			<path fill="#fff" d="M31.385 16c0 8.497-6.888 15.385-15.385 15.385S.615 24.497.615 16 7.503.615 16 .615 31.385 7.503 31.385 16z" style="fill:var(--color2, #fff)"/>
		</symbol>
		<symbol id="icon-exclamation" viewBox="0 0 35 32">
			<path fill="#fff" d="M17.495 22.477c-.978 0-1.798.82-1.798 1.798s.82 1.798 1.798 1.798c.942 0 1.798-.82 1.755-1.755a1.756 1.756 0 0 0-1.755-1.841z" style="fill:var(--color2, #fff)"/>
			<path fill="#fff" d="M34.139 28.85c1.129-1.949 1.136-4.273.014-6.215L22.889 3.128C21.774 1.164 19.76-.001 17.502-.001s-4.273 1.172-5.387 3.122L.837 22.649A6.19 6.19 0 0 0 .859 28.9a6.155 6.155 0 0 0 5.373 3.086h22.499c2.251 0 4.273-1.172 5.409-3.136zm-2.446-1.41a3.399 3.399 0 0 1-2.971 1.719H6.223a3.354 3.354 0 0 1-2.935-1.683 3.402 3.402 0 0 1-.007-3.431L14.559 4.524a3.337 3.337 0 0 1 2.942-1.705c1.23 0 2.33.64 2.942 1.712l11.271 19.521c.604 1.05.597 2.316-.022 3.388z" style="fill:var(--color2, #fff)"/>
			<path fill="#fff" d="M17.049 9.854c-.856.245-1.388 1.021-1.388 1.964.043.568.079 1.144.122 1.712.122 2.165.245 4.287.367 6.452.043.734.611 1.266 1.345 1.266s1.309-.568 1.345-1.309c0-.446 0-.856.043-1.309.079-1.388.165-2.776.245-4.165.043-.899.122-1.798.165-2.697 0-.324-.043-.611-.165-.899a1.802 1.802 0 0 0-2.079-1.014z" style="fill:var(--color2, #fff)"/>
		</symbol>
		<symbol id="icon-left-arrow" viewBox="0 0 63 32">
			<path fill="#fff" d="M25.602.444c.15.251.374.443.504.443.135 0 .234.075.234.176 0 .096-.15.176-.334.176-.284 0-.334.117-.334.789 0 .731.035.795.459.843.299.037.479.171.514.4.035.192.209.475.389.635.534.459.234.885-.613.885-.633 0-.703.043-.633.347.05.213.249.368.514.4.344.043.459.176.563.677.075.336.095.805.05 1.024-.07.336-.199.4-.833.4-.848 0-.962.229-.284.576.549.283.678.832.264 1.146-.165.128-.234.235-.15.235.399.005 9.913.565 13.638.805 6.053.389 18.245 1.306 18.659 1.413.449.112.598.549.294.88-.18.197-.504.245-1.202.187-.873-.075-.843-.059.374.187 1.68.336 2.124.539 2.05.944-.08.416-.603.384-5.46-.368-2.244-.347-4.897-.672-5.904-.725l-1.83-.096 2.493.331c2.164.288 8.367 1.37 10.063 1.76.434.096.583.224.583.491 0 .453-.065.448-4.822-.421-2.194-.405-5.415-.896-7.151-1.098-3.525-.405-13.448-1.088-15.383-1.061l-1.247.021.997.155c1.476.235 13.453 1.653 20.21 2.394 4.558.501 6.058.725 6.567.992.733.373 1.376 1.162 1.147 1.402-.169.181-7.136-.485-19.277-1.845-5.47-.613-8.746-.906-9.23-.832l-.748.117.917.123c.504.069 5.67.608 11.474 1.2s11.534 1.194 12.725 1.333c1.197.144 2.613.256 3.176.256 1.062 0 1.92.389 1.361.619-.145.059-4.223-.293-9.065-.784-12.257-1.248-15.408-1.413-6.787-.363 2.478.304 5.161.661 5.989.795.823.139 3.411.421 5.739.629 6.253.56 6.068.528 6.128 1.098.065.619-.224.699-1.855.528-1.062-.112-1.321-.091-1.441.133-.125.235-.324.219-1.606-.112-1.985-.512-1.945-.507-10.626-1.2-12.675-1.008-14.007-1.013-3.989-.005 8.582.864 16.181 1.797 16.43 2.026.11.101.534.203.947.235.733.053.748.069.748.677v.624l-3.077-.075-.11.72c-.06.389-.209.763-.324.811-.12.048-3.276-.203-7.001-.555-8.467-.8-16.575-1.472-19.507-1.616-1.232-.059-2.583-.155-2.992-.208-.563-.075-.703-.048-.563.107.11.123 3.361.517 8.148.986 14.486 1.429 23.76 2.437 23.965 2.608.11.091.185.507.165.912-.025.603-.1.757-.384.8-.189.032-7.385-.635-15.967-1.477s-16.001-1.536-16.475-1.546c-.583-.011-.982.085-1.257.304-.454.368-.823 1.349-.798 2.112.01.283-.125.683-.299.891s-.399.629-.499.949c-.165.517-.15.576.15.576.185 0 .374.117.424.267.145.411-.279.843-.708.725-.304-.085-.399.005-.568.539-.19.608-.234.635-.833.549-.514-.075-.648-.027-.713.251-.105.427-.748.453-.898.037-.06-.171.005-.368.174-.496.239-.187.135-.293-.848-.842-.613-.347-1.501-.683-1.955-.747-.464-.064-.962-.155-1.132-.208-.314-.096-.374-.613-.1-.901.13-.139.025-.251-.359-.389-.299-.107-.683-.197-.858-.197-.289 0-.374-.176-.309-.656.015-.117-.289-.293-.688-.4-1.466-.379-1.551-.432-1.611-.986-.03-.283-.209-.64-.404-.789-2.713-2.122-3.825-2.821-4.672-2.933-.947-.128-1.546-.587-1.376-1.061.095-.267-.653-.997-1.017-.997-.09 0-.464-.283-.813-.619-1.247-1.189-3.884-3.295-4.124-3.295-.529 0-.214-.565.713-1.285.763-.592.977-.859.967-1.205-.015-.405.035-.443.583-.411.464.027.748-.101 1.267-.571 2.304-2.106 8.916-6.452 15.368-10.105 1.147-.651 2.189-1.306 2.304-1.45s.429-.267.698-.267c.299 0 .633-.16.853-.411.558-.624 1.685-.645 2.059-.037zM22.52 2.123c-.209.144-.209.181.01.256.563.192 1.98.288 1.98.128 0-.128-.314-.229-1.666-.533-.045-.011-.19.059-.324.149zm-2.418 1.205c-.499.261-.913.539-.913.619s.259.144.573.144c.464 0 .583-.075.623-.4.035-.293.174-.416.509-.453.249-.027.419-.128.369-.213-.13-.235-.13-.235-1.162.304zM17.858 4.72c0 .043.15.08.334.08s.334-.123.334-.277c0-.219-.065-.235-.334-.08-.184.107-.334.235-.334.277zm-1.331.72c0 .037.159.069.339.069.185 0 .294-.08.239-.176-.09-.16-.578-.069-.578.107zm5.654 2.213c.499.075 1.217.128 1.581.123l.663-.011-.663-.123c-.364-.069-1.082-.123-1.581-.123h-.917l.917.133zM10.473 9.109c-1.765 1.157-3.76 2.608-3.76 2.736 0 .256.643 0 .713-.283.055-.224.284-.379.683-.453.334-.064.598-.224.598-.363 0-.453.648-.619 2.812-.725 2.029-.101 2.169-.085 2.284.229.17.485.399.603 1.147.587l.663-.016-.559-.171c-.319-.096-.593-.309-.638-.496-.06-.235-.309-.368-.858-.453-.434-.069-.868-.208-.987-.315-.284-.245-.249-1.008.05-1.13.135-.053.204-.187.15-.283-.14-.245-.404-.112-2.299 1.136zm3.241-.859c.115.123 3.81.597 6.403.827 4.009.352 3.027.08-1.431-.405-4.607-.496-5.076-.533-4.971-.421zm9.504 1.109c.155.043.464.048.668.011s.075-.075-.294-.08c-.364-.005-.534.027-.374.069zm-6.402 1.611c.299.037.783.037 1.082 0s.06-.069-.539-.069c-.603 0-.843.032-.543.069zm2.867.234c.683.069 1.7.123 2.244.117l.997-.011-1.167-.107a32.63 32.63 0 0 0-2.244-.117l-1.082-.011 1.252.128zm3.954.299c.12.048.334.048.499 0s.075-.091-.209-.091c-.284.005-.409.043-.289.091zm21.621 1.248c.12.048.334.048.499 0 .165-.053.075-.091-.209-.091s-.409.037-.289.091zm-15.138 0c.12.048.334.048.499 0 .165-.053.075-.091-.209-.091-.279 0-.404.037-.289.091zm-25.286.485c-.294.235-.289.245.04.357.194.064.489.005.688-.144.334-.245.334-.261.04-.347-.165-.048-.344-.091-.389-.096s-.214.096-.379.229zm20.838.096c.234.144 1.361.267 1.745.187.324-.069-.683-.32-1.331-.331-.444-.005-.583.037-.414.144zm-16.78.965c.115.123 2.827.56 8.896 1.429 3.126.448 5.729.811 5.774.811s.045-.149 0-.347c-.05-.208-.259-.368-.524-.4-.299-.037-.434-.155-.419-.363.015-.176-.04-.309-.125-.309-.08 0-1.671-.123-3.516-.277a229.788 229.788 0 0 0-6.278-.416c-1.596-.08-3.126-.155-3.396-.171-.264-.016-.454.005-.414.043zm-6.372.667-1.017.736.399.32c.364.293.404.293.459.016.1-.517.489-.704 1.272-.608.713.091.733.08.698-.427-.02-.336-.15-.555-.364-.629l-.384-.133c-.025-.005-.494.315-1.062.725zm24.199-.453c.055.059.199.064.314.016.135-.059.1-.096-.1-.107-.165-.005-.264.037-.214.091zm11.803 2.319c.155.043.464.048.663.011.204-.037.075-.075-.289-.08-.369-.005-.534.027-.374.069zm-24.274-.005c.055.059.199.064.314.016.135-.053.1-.096-.1-.107-.165-.011-.269.032-.214.091zm-10.88.33c.399.315.648.389.913.283.404-.165.663-.133 9.215 1.056 6.752.944 7.021.971 7.021.731 0-.165-6.901-1.221-12.227-1.877-6.098-.752-5.615-.736-4.922-.192zm11.952-.138c.12.048.334.048.499 0s.075-.091-.209-.091c-.279.005-.409.043-.289.091zm1.247.17c.164.048.414.048.583 0 .16-.043.025-.08-.289-.08-.319 0-.454.037-.294.08zm2.119.331c1.416.261 1.935.309 1.78.149-.13-.133-1.68-.373-2.443-.379-.319 0-.015.101.663.229zm2.378.373c.055.059.199.064.314.016.135-.053.1-.096-.1-.107-.165-.011-.264.032-.214.091zm1.197.24c.748.208 1.282.208 1.167.005-.055-.096-.449-.171-.883-.16-.698.016-.728.032-.284.155zm4.458.827c.055.059.199.064.314.016.135-.059.1-.096-.1-.107-.165-.011-.264.032-.214.091zm1.197.202c.284.048.583.155.698.251.11.091 1.68.283 3.49.421 6.373.485 6.911.432 1.631-.155-2.927-.325-5.545-.592-5.819-.592h-.499l.499.075zm-15 .688c.055.059.199.064.314.016.135-.059.1-.096-.1-.107-.164-.011-.269.032-.214.091zm1.237.192c.115.048.299.048.414 0s.025-.091-.21-.091c-.229.005-.319.043-.204.091zm1.167.182c.12.053.334.053.499 0 .165-.048.075-.091-.209-.091-.279 0-.409.037-.289.091zm24.284.175c.199.037.548.037.748 0 .209-.037.04-.069-.374-.069-.419 0-.583.032-.374.069zm-22.953 0c.12.048.334.048.499 0s.075-.091-.209-.091-.409.043-.289.091zm24.863.171c.155.043.464.048.668.011s.075-.075-.294-.08c-.364-.011-.534.021-.374.069zm-12.018.069c.598.075 2.194.171 3.575.224 1.381.048 2.159.053 1.745.005-1.311-.144-4.707-.363-5.57-.363-.778 0-.763.011.249.133zm-11.683-.064c.12.048.334.048.499 0s.075-.091-.209-.091c-.279.005-.404.043-.289.091zm25.366.171c.155.043.464.048.663.011.204-.037.075-.075-.289-.08-.369-.005-.539.027-.374.069zm-24.119 0c.165.048.414.048.583 0 .16-.043.025-.08-.289-.08-.319 0-.449.037-.294.08zm25.864.187c.199.037.549.037.748 0 .209-.037.04-.069-.374-.069s-.583.032-.374.069zm-23.74.144c1.346.251 2.104.315 1.965.165-.115-.123-1.915-.389-2.628-.395-.319 0-.02.101.663.229zm25.401.032c.199.037.549.037.748 0 .209-.037.04-.069-.374-.069s-.578.032-.374.069zm-10.392 0c.349.037.898.037 1.247 0 .339-.037.06-.069-.623-.069s-.967.032-.623.069zm11.893.181c.204.037.583.037.833 0 .259-.037.09-.069-.374-.069-.469-.005-.668.027-.459.069zm-8.986 0c.199.037.548.037.748 0 .209-.037.04-.069-.374-.069-.414-.005-.578.027-.374.069zm11.519.325c.683.123 2.114.272 3.161.325l1.915.096-2.413-.32c-2.927-.395-4.598-.453-2.663-.101zm1.954 1.275c.12.048.334.048.499 0s.075-.091-.209-.091c-.279 0-.404.043-.289.091zm-39.791 1.189c.165.128.424.197.583.155.155-.043 1.132.053 2.179.213 1.042.16 2.942.325 4.224.363l2.329.069-2.578-.256a288.948 288.948 0 0 1-4.493-.496c-2.708-.341-2.623-.341-2.244-.048zm10.731 2.138c0 .176.489.267.578.107.055-.096-.055-.176-.239-.176-.185-.005-.339.032-.339.069zm-5.949 1.109c.165.048.414.048.583 0 .159-.043.025-.08-.289-.08-.319 0-.454.037-.294.08zm1.331.176c.164.048.414.048.583 0 .16-.043.025-.08-.289-.08-.319 0-.454.037-.294.08zm1.411.187c.204.037.583.037.833 0 .254-.037.09-.069-.374-.069s-.663.032-.459.069zm1.915.181c.249.037.663.037.913 0s.04-.069-.459-.069c-.494-.005-.703.032-.454.069zm-3.5.688c.135.139 3.077.603 3.839.608 1.142.005.633-.32-.683-.437a43.06 43.06 0 0 1-1.616-.165c-.608-.101-1.636-.107-1.541-.005zm3.126 1.856c.763.448 1.047.443.414-.005-.284-.203-.608-.352-.748-.347-.135.011.02.171.334.352z" style="fill:var(--color2, #fff)"/>
		</symbol>
		<symbol id="icon-menu" viewBox="0 0 32 32">
			<path fill="#fff" d="M0 0h32v3.2H0V0zm0 14.399h32v3.2H0v-3.2zM0 28.8h32V32H0v-3.2z" style="fill:var(--color2, #fff)"/>
		</symbol>
		<symbol id="icon-right-arrow" viewBox="0 0 63 32">
			<path fill="#fff" d="M37.331.444c-.15.251-.374.443-.504.443-.135 0-.234.075-.234.176 0 .096.15.176.334.176.284 0 .334.117.334.789 0 .731-.035.795-.459.843-.299.037-.479.171-.514.4-.035.192-.209.475-.389.635-.534.459-.234.885.613.885.633 0 .703.043.633.347-.05.213-.249.368-.514.4-.344.043-.459.176-.563.677-.075.336-.095.805-.05 1.024.07.336.199.4.833.4.848 0 .962.229.284.576-.549.283-.678.832-.264 1.146.165.128.234.235.15.235-.399.005-9.913.565-13.638.805-6.053.389-18.245 1.306-18.659 1.413-.449.112-.598.549-.294.88.179.197.504.245 1.202.187.873-.075.843-.059-.374.187-1.68.336-2.124.539-2.049.944.08.416.603.384 5.46-.368 2.244-.347 4.897-.672 5.904-.725l1.83-.096-2.493.331c-2.164.288-8.367 1.37-10.063 1.76-.434.096-.583.224-.583.491 0 .453.065.448 4.822-.421 2.194-.405 5.415-.896 7.151-1.098 3.525-.405 13.448-1.088 15.383-1.061l1.247.021-.997.155c-1.476.235-13.453 1.653-20.21 2.394-4.558.501-6.059.725-6.567.992-.733.373-1.376 1.162-1.147 1.402.17.181 7.136-.485 19.277-1.845 5.47-.613 8.746-.907 9.23-.832l.748.117-.917.123c-.504.069-5.67.608-11.474 1.2S8.276 17.746 7.085 17.885c-1.197.144-2.613.256-3.176.256-1.062 0-1.92.389-1.361.619.145.059 4.223-.293 9.065-.784 12.257-1.248 15.408-1.413 6.787-.363-2.478.304-5.161.661-5.989.795-.823.139-3.411.421-5.739.629-6.253.56-6.068.528-6.128 1.098-.065.619.224.699 1.855.528 1.062-.112 1.321-.091 1.441.133.125.235.324.219 1.606-.112 1.985-.512 1.945-.507 10.626-1.2 12.675-1.008 14.007-1.013 3.989-.005-8.582.864-16.181 1.797-16.43 2.026-.11.101-.534.203-.947.235-.733.053-.748.069-.748.677v.624l3.077-.075.11.72c.06.389.209.763.324.811.12.048 3.276-.203 7.001-.555 8.467-.8 16.575-1.472 19.507-1.616 1.232-.059 2.583-.155 2.992-.208.563-.075.703-.048.563.107-.11.123-3.361.517-8.148.986-14.486 1.429-23.76 2.437-23.965 2.608-.11.091-.184.507-.165.912.025.603.1.757.384.8.189.032 7.385-.635 15.966-1.477s16.001-1.536 16.475-1.546c.583-.011.982.085 1.257.304.454.368.823 1.349.798 2.112-.01.283.125.683.299.891s.399.629.499.949c.165.517.15.576-.15.576-.185 0-.374.117-.424.267-.145.411.279.843.708.725.304-.085.399.005.568.539.19.608.234.635.833.549.514-.075.648-.027.713.251.105.427.748.453.898.037.06-.171-.005-.368-.175-.496-.239-.187-.135-.293.848-.842.613-.347 1.501-.683 1.955-.747.464-.064.962-.155 1.132-.208.314-.096.374-.613.1-.901-.13-.139-.025-.251.359-.389.299-.107.683-.197.858-.197.289 0 .374-.176.309-.656-.015-.117.289-.293.688-.4 1.466-.379 1.551-.432 1.611-.986.03-.283.209-.64.404-.789 2.713-2.122 3.825-2.821 4.672-2.933.947-.128 1.546-.587 1.376-1.061-.095-.267.653-.997 1.017-.997.09 0 .464-.283.813-.619 1.247-1.189 3.884-3.295 4.124-3.295.529 0 .214-.565-.713-1.285-.763-.592-.977-.858-.967-1.205.015-.405-.035-.443-.583-.411-.464.027-.748-.101-1.267-.571-2.304-2.106-8.916-6.452-15.368-10.105-1.147-.651-2.189-1.306-2.304-1.45s-.429-.267-.698-.267c-.299 0-.633-.16-.853-.411-.558-.624-1.685-.645-2.059-.037zm3.082 1.679c.209.144.209.181-.01.256-.563.192-1.98.288-1.98.128 0-.128.314-.229 1.666-.533.045-.011.19.059.324.149zm2.418 1.205c.499.261.913.539.913.619s-.259.144-.573.144c-.464 0-.583-.075-.623-.4-.035-.293-.175-.416-.509-.453-.249-.027-.419-.128-.369-.213.13-.235.13-.235 1.162.304zm2.244 1.392c0 .043-.15.08-.334.08s-.334-.123-.334-.277c0-.219.065-.235.334-.08.184.107.334.235.334.277zm1.332.72c0 .037-.159.069-.339.069-.185 0-.294-.08-.239-.176.09-.16.578-.069.578.107zm-5.655 2.213c-.499.075-1.217.128-1.581.123l-.663-.011.663-.123c.364-.069 1.082-.123 1.581-.123h.917l-.917.133zM52.46 9.109c1.765 1.157 3.76 2.608 3.76 2.736 0 .256-.643 0-.713-.283-.055-.224-.284-.379-.683-.453-.334-.064-.598-.224-.598-.363 0-.453-.648-.619-2.812-.725-2.029-.101-2.169-.085-2.284.229-.17.485-.399.603-1.147.587l-.663-.016.559-.171c.319-.096.593-.309.638-.496.06-.235.309-.368.858-.453.434-.069.868-.208.987-.315.284-.245.249-1.008-.05-1.13-.135-.053-.204-.187-.15-.283.14-.245.404-.112 2.299 1.136zm-3.241-.859c-.115.123-3.81.597-6.403.827-4.009.352-3.027.08 1.431-.405 4.607-.496 5.076-.533 4.971-.421zm-9.504 1.109c-.155.043-.464.048-.668.011s-.075-.075.294-.08c.364-.005.534.027.374.069zm6.402 1.611c-.299.037-.783.037-1.082 0s-.06-.069.539-.069c.603 0 .843.032.543.069zm-2.867.234c-.683.069-1.7.123-2.244.117l-.997-.011 1.167-.107a32.63 32.63 0 0 1 2.244-.117l1.082-.011-1.252.128zm-3.954.299c-.12.048-.334.048-.499 0s-.075-.091.209-.091c.284.005.409.043.289.091zm-21.621 1.248c-.12.048-.334.048-.499 0-.165-.053-.075-.091.209-.091s.409.037.289.091zm15.139 0c-.12.048-.334.048-.499 0-.165-.053-.075-.091.209-.091.279 0 .404.037.289.091zm25.286.485c.294.235.289.245-.04.357-.194.064-.489.005-.688-.144-.334-.245-.334-.261-.04-.347.164-.048.344-.091.389-.096s.214.096.379.229zm-20.838.096c-.234.144-1.361.267-1.745.187-.324-.069.683-.32 1.331-.331.444-.005.583.037.414.144zm16.779.965c-.115.123-2.827.56-8.896 1.429-3.126.448-5.729.811-5.774.811s-.045-.149 0-.347c.05-.208.259-.368.524-.4.299-.037.434-.155.419-.363-.015-.176.04-.309.125-.309.08 0 1.67-.123 3.516-.277 1.845-.149 4.682-.341 6.278-.416 1.596-.08 3.127-.155 3.396-.171.264-.016.454.005.414.043zm6.373.667 1.017.736-.399.32c-.364.293-.404.293-.459.016-.1-.517-.489-.704-1.272-.608-.713.091-.733.08-.698-.427.02-.336.15-.555.364-.629l.384-.133c.025-.005.494.315 1.062.725zm-24.2-.453c-.055.059-.199.064-.314.016-.135-.059-.1-.096.1-.107.165-.005.264.037.214.091zM24.412 16.83a1.827 1.827 0 0 1-.663.011c-.204-.037-.075-.075.289-.08.369-.005.534.027.374.069zm24.273-.005c-.055.059-.199.064-.314.016-.135-.053-.1-.096.1-.107.165-.011.269.032.214.091zm10.881.33c-.399.315-.648.389-.913.283-.404-.165-.663-.133-9.215 1.056-6.752.944-7.021.97-7.021.73 0-.165 6.901-1.221 12.227-1.877 6.098-.752 5.615-.736 4.922-.192zm-11.953-.138c-.12.048-.334.048-.499 0s-.075-.091.209-.091c.279.005.409.043.289.091zm-1.246.17a1.198 1.198 0 0 1-.583 0c-.16-.043-.025-.08.289-.08.319 0 .454.037.294.08zm-2.119.331c-1.416.261-1.935.309-1.78.149.13-.133 1.68-.373 2.443-.379.319 0 .015.101-.663.229zm-2.379.373c-.055.059-.199.064-.314.016-.135-.053-.1-.096.1-.107.165-.011.264.032.214.091zm-1.197.24c-.748.208-1.282.208-1.167.005.055-.096.449-.171.883-.16.698.016.728.032.284.155zm-4.458.827c-.055.059-.199.064-.314.016-.135-.059-.1-.096.1-.107.165-.011.264.032.214.091zm-1.196.202c-.284.048-.583.155-.698.251-.11.091-1.68.283-3.49.421-6.373.485-6.911.432-1.631-.155 2.927-.325 5.545-.592 5.819-.592h.499l-.499.075zm14.999.688c-.055.059-.199.064-.314.016-.135-.059-.1-.096.1-.107.164-.011.269.032.214.091zm-1.237.192c-.115.048-.299.048-.414 0s-.025-.091.209-.091c.229.005.319.043.204.091zm-1.167.182c-.12.053-.334.053-.499 0-.165-.048-.075-.091.209-.091.279 0 .409.037.289.091zm-24.284.176a2.534 2.534 0 0 1-.748 0c-.209-.037-.04-.069.374-.069.419 0 .583.032.374.069zm22.953 0c-.12.048-.334.048-.499 0s-.075-.091.209-.091.409.043.289.091zm-24.862.17c-.155.043-.464.048-.668.011s-.075-.075.294-.08c.364-.011.534.021.374.069zm12.017.069c-.598.075-2.194.171-3.575.224-1.381.048-2.159.053-1.745.005 1.311-.144 4.707-.363 5.57-.363.778 0 .763.011-.249.133zm11.683-.064c-.12.048-.334.048-.499 0s-.075-.091.209-.091c.279.005.404.043.289.091zm-25.366.171a1.827 1.827 0 0 1-.663.011c-.204-.037-.075-.075.289-.08.369-.005.539.027.374.069zm24.12 0a1.198 1.198 0 0 1-.583 0c-.16-.043-.025-.08.289-.08.319 0 .449.037.294.08zm-25.865.187a2.534 2.534 0 0 1-.748 0c-.209-.037-.04-.069.374-.069s.583.032.374.069zm23.74.144c-1.346.251-2.104.315-1.965.165.115-.123 1.915-.389 2.628-.395.319 0 .02.101-.663.229zm-25.4.032a2.534 2.534 0 0 1-.748 0c-.209-.037-.04-.069.374-.069s.578.032.374.069zm10.391 0a7.018 7.018 0 0 1-1.247 0c-.339-.037-.06-.069.623-.069s.967.032.623.069zm-11.892.181a3.134 3.134 0 0 1-.833 0c-.259-.037-.09-.069.374-.069.469-.005.668.027.459.069zm8.985 0a2.534 2.534 0 0 1-.748 0c-.209-.037-.04-.069.374-.069.414-.005.578.027.374.069zm-11.518.325c-.683.123-2.114.272-3.161.325l-1.915.096 2.413-.32c2.927-.395 4.598-.453 2.663-.101zm-1.955 1.275c-.12.048-.334.048-.499 0s-.075-.091.209-.091c.279 0 .404.043.289.091zm39.791 1.189c-.165.128-.424.197-.583.155-.155-.043-1.132.053-2.179.213-1.042.16-2.942.325-4.224.363l-2.329.069 2.578-.256c1.411-.144 3.441-.368 4.493-.496 2.708-.341 2.623-.341 2.244-.048zm-10.73 2.138c0 .176-.489.267-.578.107-.055-.096.055-.176.239-.176.185-.005.339.032.339.069zm5.949 1.109a1.198 1.198 0 0 1-.583 0c-.159-.043-.025-.08.289-.08.319 0 .454.037.294.08zm-1.332.176a1.198 1.198 0 0 1-.583 0c-.16-.043-.025-.08.289-.08.319 0 .454.037.294.08zm-1.411.187a3.134 3.134 0 0 1-.833 0c-.254-.037-.09-.069.374-.069s.663.032.459.069zm-1.915.181c-.249.037-.663.037-.913 0s-.04-.069.459-.069c.494-.005.703.032.454.069zm3.501.688c-.135.139-3.077.603-3.839.608-1.142.005-.633-.32.683-.437a43.06 43.06 0 0 0 1.616-.165c.608-.101 1.636-.107 1.541-.005zm-3.127 1.856c-.763.448-1.047.443-.414-.005.284-.203.608-.352.748-.347.135.011-.02.171-.334.352z" style="fill:var(--color2, #fff)"/>
		</symbol>
		<symbol id="icon-close" viewBox="0 0 32 32">
			<path d="m2.869 0 29.13 29.916L29.13 32 0 2.084 2.869 0z"/>
			<path d="M29.131 0 .001 29.916 2.87 32 32 2.084 29.131 0z"/>
		</symbol>
		<symbol xmlns="http://www.w3.org/2000/svg" id="disclaimer" fill="none" viewBox="0 0 86 86">
			<path fill="#fff" d="M43.177 56.765c-2.08 0-3.822 1.742-3.822 3.82 0 2.08 1.743 3.822 3.822 3.822 2.002 0 3.82-1.742 3.73-3.73a3.731 3.731 0 0 0-3.73-3.912Z"/>
			<path fill="#fff" d="M78.545 70.307c2.4-4.142 2.415-9.08.03-13.206L54.64 15.649C52.27 11.476 47.99 9 43.19 9c-4.799 0-9.079 2.491-11.448 6.633L7.777 57.131c-2.384 4.173-2.37 9.14.046 13.283 2.384 4.096 6.649 6.557 11.417 6.557h47.81c4.785 0 9.08-2.492 11.495-6.664Zm-5.197-2.996c-1.33 2.293-3.683 3.653-6.312 3.653h-47.81c-2.6 0-4.938-1.33-6.237-3.577-1.315-2.277-1.33-4.998-.015-7.29L36.94 18.614c1.3-2.277 3.623-3.622 6.252-3.622 2.613 0 4.952 1.36 6.25 3.637l23.952 41.483c1.284 2.231 1.269 4.922-.046 7.199Z"/>
			<path fill="#fff" d="M42.228 29.94c-1.819.52-2.95 2.17-2.95 4.173.092 1.207.169 2.43.26 3.637.26 4.601.52 9.11.78 13.71.091 1.56 1.299 2.69 2.858 2.69 1.559 0 2.782-1.207 2.858-2.781 0-.948 0-1.819.092-2.782.168-2.95.351-5.9.52-8.85.091-1.91.26-3.82.351-5.731 0-.688-.092-1.3-.352-1.911-.779-1.712-2.598-2.583-4.417-2.155Z"/>
		</symbol>
		<symbol id="icon-minus" viewBox="0 0 32 32">
			<path d="M16 0C7.163 0 0 7.163 0 16s7.163 16 16 16 16-7.163 16-16S24.837 0 16 0zM1.6 16C1.6 8.047 8.047 1.6 16 1.6S30.4 8.047 30.4 16 23.953 30.4 16 30.4 1.6 23.953 1.6 16zm5.6-.8v1.6h17.6v-1.6H7.2z"/>
		</symbol>
		<symbol id="icon-plus" viewBox="0 0 32 32">
			<path d="M15.2 15.2v-8h1.6v8h8v1.6h-8v8h-1.6v-8h-8v-1.6h8z"/>
			<path d="M16 0C7.163 0 0 7.163 0 16s7.163 16 16 16 16-7.163 16-16S24.837 0 16 0zM1.6 16C1.6 8.047 8.047 1.6 16 1.6S30.4 8.047 30.4 16 23.953 30.4 16 30.4 1.6 23.953 1.6 16z"/>
		</symbol>
		<symbol xmlns="http://www.w3.org/2000/svg" id="google-play" fill="none" viewBox="0 0 53 59">
			<path fill="url(#paint0_linear_4042_184)" d="M39.385 19.988 5.841 1.283a3.742 3.742 0 0 0-2.4-.781c-.87.024-1.703.349-2.352.917l28.607 28.078 9.69-9.51Z"/>
			<path fill="#AC252C" d="m39.385 39.007-9.689-9.51L1.09 57.577c.649.566 1.48.892 2.347.92a3.767 3.767 0 0 0 2.405-.763l33.544-18.727Z"/>
			<path fill="#FED401" d="m39.11 39.143-9.414-9.307v-.676l9.414-9.308.206.136 11.273 6.265c3.215 1.78 3.215 4.71 0 6.512L39.362 39.03l-.252.113Z"/>
			<path fill="url(#paint1_linear_4042_184)" d="M1.089 1.418a4.454 4.454 0 0 0-1.08 3.155v49.848a4.32 4.32 0 0 0 1.08 3.155l.16.18 28.447-27.92v-.677L1.25 1.261l-.161.157Z"/>
			<defs>
				<linearGradient id="paint0_linear_4042_184" x1="-6.12" x2="16.771" y1="-15.167" y2="8.155" gradientUnits="userSpaceOnUse">
					<stop stop-color="#32A071"/>
					<stop offset=".07" stop-color="#2DA771"/>
					<stop offset=".48" stop-color="#15CF74"/>
					<stop offset=".8" stop-color="#06E775"/>
					<stop offset="1" stop-color="#00F076"/>
				</linearGradient>
				<linearGradient id="paint1_linear_4042_184" x1="27.171" x2="-10.637" y1="4.055" y2="42.574" gradientUnits="userSpaceOnUse">
					<stop stop-color="#00A0FF"/>
					<stop offset=".01" stop-color="#00A1FF"/>
					<stop offset=".26" stop-color="#00BEFF"/>
					<stop offset=".51" stop-color="#00D2FF"/>
					<stop offset=".76" stop-color="#00DFFF"/>
					<stop offset="1" stop-color="#00E3FF"/>
				</linearGradient>
			</defs>
		</symbol>
		<symbol xmlns="http://www.w3.org/2000/svg" id="star" fill="none" viewBox="0 0 306 312">
			<rect width="301" height="307" x="2.5" y="2.5" stroke="#000" stroke-width="5" rx="29.5"/>
			<path fill="url(#paint0_linear_85_5732)" d="m251.454 107.118-66.938-6.184-26.589-61.496c-1.862-4.306-7.992-4.306-9.854 0l-26.589 61.496-66.938 6.184c-4.688.433-6.582 6.239-3.045 9.334l50.504 44.19-14.78 65.318c-1.035 4.574 3.924 8.162 7.971 5.769L153 197.544l57.803 34.185c4.048 2.393 9.007-1.195 7.972-5.769l-14.781-65.318 50.505-44.19c3.537-3.095 1.643-8.901-3.044-9.334Z"/>
			<path fill="#FFF082" d="M84.57 37.32c3.413 4.722 13.045 24.996 18.551 36.811.866 1.858-1.474 3.535-2.968 2.128C90.65 67.31 74.401 51.781 70.989 47.06a8.312 8.312 0 0 1 1.902-11.633c3.75-2.69 8.979-1.842 11.68 1.894Zm136.86 0c-3.412 4.722-13.044 24.996-18.55 36.811-.866 1.858 1.474 3.535 2.968 2.128 9.503-8.949 25.751-24.478 29.163-29.199a8.312 8.312 0 0 0-1.901-11.633c-3.751-2.69-8.98-1.842-11.68 1.894Zm53.924 138.437c-5.553-1.804-27.873-4.783-40.848-6.418-2.039-.258-2.934 2.472-1.134 3.463 11.448 6.298 31.24 16.998 36.793 18.801 4.393 1.428 9.117-.963 10.549-5.339 1.433-4.376-.967-9.08-5.36-10.507Zm-244.708 0c5.553-1.804 27.873-4.783 40.848-6.418 2.04-.258 2.933 2.472 1.133 3.463-11.447 6.298-31.24 16.998-36.792 18.801-4.393 1.428-9.117-.963-10.55-5.339-1.433-4.376.968-9.08 5.361-10.507Zm114.243 94.057c0-5.817 4.077-27.876 6.539-40.668.387-2.012 3.27-2.012 3.657 0 2.463 12.792 6.54 34.851 6.54 40.668 0 4.603-3.747 8.335-8.369 8.335-4.621-.001-8.367-3.732-8.367-8.335Z"/>
			<path fill="#FFC850" d="m167.595 61.8-9.668-22.362c-1.862-4.306-7.992-4.306-9.854 0l-26.589 61.496-66.938 6.184c-4.688.433-6.582 6.239-3.045 9.334l50.504 44.19-14.78 65.318c-1.035 4.574 3.924 8.162 7.971 5.769l7.694-4.55c12.612-81.316 48.069-141.007 64.705-165.378Z"/>
			<path fill="#000" d="m208.271 162.026 48.779-42.681c2.816-2.463 3.845-6.199 2.688-9.748-1.158-3.55-4.196-5.969-7.928-6.314l-64.652-5.972-12.105-28a3.856 3.856 0 0 0-2.122-2.055 3.883 3.883 0 0 0-2.96.04 3.86 3.86 0 0 0-2.063 2.114 3.84 3.84 0 0 0 .041 2.948l13.014 30.099a3.858 3.858 0 0 0 3.195 2.312l66.938 6.183c.854.08 1.172.676 1.285 1.024.114.349.209 1.018-.436 1.581l-50.504 44.191a3.845 3.845 0 0 0-1.22 3.741l14.78 65.316c.189.834-.283 1.319-.58 1.535-.298.215-.907.512-1.644.075l-57.804-34.184a3.894 3.894 0 0 0-3.949 0l-57.802 34.185c-.736.437-1.346.14-1.644-.076-.298-.215-.77-.701-.581-1.533l7.63-33.717a3.84 3.84 0 0 0-.503-2.905 3.866 3.866 0 0 0-2.419-1.699c-1-.225-2.05-.044-2.917.501a3.855 3.855 0 0 0-1.706 2.409l-7.63 33.717c-.824 3.641.548 7.266 3.58 9.459 1.635 1.184 3.518 1.781 5.412 1.781a9.27 9.27 0 0 0 4.727-1.313l55.828-33.017 55.829 33.017c3.222 1.905 7.107 1.726 10.138-.468 3.032-2.193 4.403-5.818 3.579-9.459l-14.274-63.087Z"/>
			<path fill="#000" d="m48.949 119.345 48.779 42.681-3.17 14.012a3.837 3.837 0 0 0 .504 2.904 3.867 3.867 0 0 0 3.272 1.795 3.879 3.879 0 0 0 2.413-.845 3.857 3.857 0 0 0 1.356-2.161l3.675-16.243a3.832 3.832 0 0 0-1.22-3.74l-50.504-44.191c-.644-.563-.549-1.232-.436-1.581.114-.348.432-.945 1.285-1.024l66.938-6.183a3.888 3.888 0 0 0 1.916-.719 3.848 3.848 0 0 0 1.278-1.593l26.591-61.495c.338-.785 1.007-.902 1.374-.902.368 0 1.037.117 1.375.902l7.222 16.702a3.861 3.861 0 0 0 2.122 2.055 3.883 3.883 0 0 0 2.96-.04 3.857 3.857 0 0 0 2.063-2.114c.379-.95.365-2.01-.041-2.948l-7.222-16.702c-1.482-3.428-4.731-5.558-8.479-5.558-3.747 0-6.996 2.13-8.478 5.558L118.84 97.31l-64.651 5.972c-3.732.345-6.77 2.764-7.928 6.314-1.157 3.549-.127 7.284 2.688 9.748Z"/>
			<path fill="#000" d="M104.479 85.591a3.873 3.873 0 0 0 4.487.562 3.844 3.844 0 0 0 1.668-4.975c-1.823-3.996-17.956-39.233-22.925-46.108a12.135 12.135 0 0 0-3.488-3.249 12.185 12.185 0 0 0-4.475-1.66A12.183 12.183 0 0 0 70.63 32.3c-5.475 3.926-6.723 11.556-2.782 17.01 4.97 6.875 33.405 33.292 36.63 36.281Zm-29.33-47.038a4.475 4.475 0 0 1 3.354-.787 4.484 4.484 0 0 1 2.929 1.805c2.339 3.235 8.278 15.262 13.654 26.56-9.054-8.662-18.62-18.087-20.959-21.322a4.476 4.476 0 0 1 1.023-6.256Zm121.479 47.344a3.868 3.868 0 0 0 2.258.727c.978 0 1.92-.368 2.636-1.032 3.225-2.99 31.658-29.406 36.628-36.281 3.942-5.453 2.695-13.083-2.781-17.01a12.19 12.19 0 0 0-9.115-2.137 12.19 12.19 0 0 0-4.475 1.66 12.14 12.14 0 0 0-3.488 3.247c-4.969 6.875-21.102 42.112-22.925 46.108a3.836 3.836 0 0 0-.216 2.584 3.85 3.85 0 0 0 1.478 2.134Zm27.94-46.326a4.485 4.485 0 0 1 2.93-1.805 4.484 4.484 0 0 1 3.353.786 4.477 4.477 0 0 1 1.022 6.257c-2.338 3.235-11.906 12.66-20.958 21.323 5.376-11.299 11.315-23.325 13.653-26.56Zm59.098 138.59a12.105 12.105 0 0 0-2.947-3.743 12.16 12.16 0 0 0-4.167-2.323c-8.086-2.626-46.695-7.229-51.07-7.745a3.887 3.887 0 0 0-2.537.582 3.84 3.84 0 0 0-1.521 4.641c.324.83.927 1.522 1.706 1.959 3.84 2.152 37.749 21.107 45.835 23.733 1.229.401 2.514.606 3.807.607 1.9 0 3.787-.446 5.53-1.328a12.14 12.14 0 0 0 3.757-2.935 12.094 12.094 0 0 0 2.332-4.15 12.08 12.08 0 0 0 .573-4.722 12.077 12.077 0 0 0-1.298-4.576Zm-6.628 6.909a4.454 4.454 0 0 1-2.24 2.606 4.458 4.458 0 0 1-1.69.475 4.464 4.464 0 0 1-1.744-.21c-3.805-1.235-15.728-7.45-26.765-13.408 12.442 1.669 25.751 3.65 29.555 4.886a4.471 4.471 0 0 1 2.617 2.231 4.433 4.433 0 0 1 .267 3.42Zm-192.39-18.088a3.853 3.853 0 0 0-1.592-2.052 3.876 3.876 0 0 0-2.538-.579c-4.376.516-42.985 5.118-51.07 7.744v.001a12.124 12.124 0 0 0-7.114 6.065 12.068 12.068 0 0 0-.725 9.298 12.097 12.097 0 0 0 2.333 4.151 12.162 12.162 0 0 0 3.757 2.935 12.224 12.224 0 0 0 5.53 1.328 12.3 12.3 0 0 0 3.806-.607c8.087-2.626 41.995-21.58 45.836-23.733a3.86 3.86 0 0 0 1.705-1.959c.324-.83.35-1.746.073-2.592Zm-50.012 20.96a4.481 4.481 0 0 1-3.434-.266 4.455 4.455 0 0 1-2.24-2.606 4.437 4.437 0 0 1 .267-3.421 4.463 4.463 0 0 1 2.617-2.231c3.805-1.236 17.113-3.217 29.555-4.886-11.036 5.959-22.96 12.174-26.765 13.41Zm118.62 28.017c-.894 0-1.76.308-2.451.873a3.848 3.848 0 0 0-1.341 2.223c-.864 4.303-8.443 42.289-8.443 50.759 0 6.72 5.489 12.186 12.235 12.186 6.747 0 12.235-5.467 12.235-12.186 0-8.471-7.579-46.456-8.443-50.759a3.852 3.852 0 0 0-1.34-2.224 3.873 3.873 0 0 0-2.452-.872Zm0 58.338c-2.481 0-4.501-2.011-4.501-4.483 0-3.986 2.236-17.203 4.501-29.501 2.265 12.298 4.501 25.515 4.501 29.501 0 2.472-2.019 4.483-4.501 4.483Z"/>
			<defs>
				<linearGradient id="paint0_linear_85_5732" x1="143.006" x2="197.331" y1="149.526" y2="195.059" gradientUnits="userSpaceOnUse">
					<stop stop-color="#FFC850"/>
					<stop offset="1" stop-color="#FFF97B"/>
				</linearGradient>
			</defs>
		</symbol>
		<symbol xmlns="http://www.w3.org/2000/svg" id="downloads" fill="none" viewBox="0 0 306 312">
			<g id="Frame 8">
				<rect width="301" height="307" x="2.5" y="2.5" stroke="#000" stroke-width="5" rx="29.5"/>
				<g id="df09285c 1" clip-path="url(#clip0_85_5744)">
					<g id="Group">
						<path id="Vector" fill="url(#paint0_linear_85_5744)" d="M141.272 206.716c2.999 2.868 7.145 4.642 11.726 4.642 4.577 0 8.717-1.77 11.717-4.632l46.864-44.733c6.469-6.177 6.469-16.191 0-22.367-6.472-6.177-16.962-6.177-23.432 0l-18.579 17.735-.001-104.159c0-8.736-7.417-15.815-16.568-15.815-9.151 0-16.569 7.08-16.569 15.815v104.156l-18.578-17.732c-6.47-6.177-16.962-6.178-23.432-.002-6.47 6.177-6.47 16.191 0 22.368l46.852 44.724Z"/>
						<path id="Vector_2" fill="url(#paint1_linear_85_5744)" d="M260.696 195.542c-9.151 0-16.57 7.082-16.57 15.816v31.632H61.871v-31.632c0-8.734-7.418-15.816-16.569-15.816-9.15 0-16.57 7.082-16.57 15.816v47.447c0 8.735 7.42 15.816 16.57 15.816h215.394c9.15 0 16.568-7.081 16.568-15.816v-47.447c0-8.734-7.418-15.816-16.568-15.816Z"/>
						<path id="Vector_3" fill="#000" stroke="#E59FB8" stroke-width="5" d="M135.799 211.928c4.592 4.391 10.7 6.81 17.2 6.81 6.49 0 12.593-2.413 17.186-6.795l46.864-44.734c9.474-9.045 9.474-23.762-.001-32.808-4.59-4.381-10.693-6.794-17.185-6.794-6.491 0-12.594 2.413-17.184 6.795l-5.376 5.132-.001-86.335C177.302 40.407 166.4 30 153 30c-13.401 0-24.304 10.407-24.304 23.199v86.332l-5.375-5.129c-4.59-4.382-10.694-6.796-17.186-6.796-6.492 0-12.594 2.413-17.184 6.794-9.476 9.045-9.476 23.763 0 32.808l46.848 44.72Zm-35.91-67.087a8.824 8.824 0 0 1 2.864-1.832 9.159 9.159 0 0 1 3.382-.637c2.361 0 4.579.877 6.249 2.471l18.577 17.732a7.864 7.864 0 0 0 3.961 2.02c1.5.285 3.055.139 4.468-.42a7.667 7.667 0 0 0 3.471-2.719 7.144 7.144 0 0 0 1.304-4.101V53.199c0-4.65 3.963-8.433 8.835-8.433 4.87 0 8.834 3.783 8.834 8.433l.001 104.159c0 1.46.453 2.888 1.303 4.102a7.672 7.672 0 0 0 3.471 2.719 8.076 8.076 0 0 0 4.469.42 7.851 7.851 0 0 0 3.96-2.021l18.579-17.735a8.814 8.814 0 0 1 2.864-1.832 9.14 9.14 0 0 1 3.382-.638c2.361 0 4.579.877 6.247 2.469 3.445 3.289 3.445 8.639.001 11.927l-46.862 44.732a8.848 8.848 0 0 1-2.866 1.833 9.146 9.146 0 0 1-3.384.638 9.134 9.134 0 0 1-3.389-.641 8.813 8.813 0 0 1-2.868-1.839l-46.853-44.724c-3.444-3.288-3.444-8.639 0-11.927Z"/>
						<path id="Vector_4" fill="#000" stroke="#E59FB8" stroke-width="4" d="M236.394 237.604h2v-26.249c0-11.6 9.918-21.199 22.303-21.199 12.385 0 22.303 9.599 22.303 21.199v47.447c0 11.6-9.918 21.198-22.303 21.198H45.303C32.918 280 23 270.402 23 258.802v-47.447c0-11.6 9.918-21.199 22.303-21.199 12.385 0 22.303 9.599 22.303 21.199v26.249h168.788Zm24.303 31.631c5.887 0 10.834-4.592 10.834-10.433v-47.447c0-5.841-4.946-10.433-10.833-10.433-5.887 0-10.835 4.592-10.835 10.433v31.631c0 2.887-2.479 5.383-5.735 5.383H61.872c-3.255 0-5.734-2.496-5.734-5.383v-31.631c0-5.841-4.947-10.433-10.834-10.433-5.888 0-10.835 4.592-10.835 10.433v47.447c0 5.841 4.947 10.433 10.834 10.433h215.394Z"/>
					</g>
				</g>
			</g>
			<defs>
				<linearGradient id="paint0_linear_85_5744" x1="152.439" x2="152.439" y1="187.098" y2="56.809" gradientUnits="userSpaceOnUse">
					<stop stop-color="#2BD639"/>
					<stop offset="1" stop-color="#18591E"/>
				</linearGradient>
				<linearGradient id="paint1_linear_85_5744" x1="150.192" x2="152.75" y1="236.426" y2="274.638" gradientUnits="userSpaceOnUse">
					<stop stop-color="#00D8E0"/>
					<stop offset="1" stop-color="#00767A"/>
				</linearGradient>
				<clipPath id="clip0_85_5744">
					<path fill="#fff" d="M21 30h264v252H21z"/>
				</clipPath>
			</defs>
		</symbol>
		<symbol xmlns="http://www.w3.org/2000/svg" id="reviews" fill="none" viewBox="0 0 306 312">
			<g id="Frame 9">
				<rect width="301" height="307" x="2.5" y="2.5" stroke="#000" stroke-width="5" rx="29.5"/>
				<g id="Group">
					<path id="Vector" fill="#F0E1EE" d="M148.005 261.774H30.011c-2.848 0-5.156-2.203-5.156-4.922V77.622c0-2.719 2.308-4.922 5.156-4.922h117.994c2.848 0 5.157 2.203 5.157 4.921v179.231c0 2.718-2.309 4.922-5.157 4.922Z"/>
					<path id="Vector_2" fill="#F0E1EE" d="M153.162 77.62v167.11c0 2.718-2.309 4.922-5.157 4.922H42.636c-2.848 0-5.157-2.204-5.157-4.922V77.62c0-2.719 2.31-4.922 5.157-4.922h105.369c2.848 0 5.157 2.203 5.157 4.922Z"/>
					<path id="Vector_3" fill="#F0E1EE" d="M189.02 242.27H50.37c-2.848 0-5.157-2.204-5.157-4.922V58.118c0-2.719 2.309-4.922 5.157-4.922h138.65c2.848 0 5.157 2.203 5.157 4.922v179.23c0 2.718-2.309 4.922-5.157 4.922Z"/>
					<path id="Vector_4" fill="#F0E1EE" d="M194.18 58.119v167.11c0 2.719-2.309 4.922-5.157 4.922H62.991c-2.848 0-5.157-2.203-5.157-4.922V58.119c0-2.718 2.31-4.922 5.157-4.922h126.032c2.848 0 5.157 2.204 5.157 4.922Z"/>
					<path id="Vector_5" fill="#F0E1EE" d="M65.57 217.847V38.614c0-2.719 2.309-4.922 5.157-4.922h138.65c2.848 0 5.157 2.203 5.157 4.922v179.233c0 2.718-2.309 4.922-5.157 4.922H70.727c-2.848 0-5.157-2.204-5.157-4.922Z"/>
					<path id="Vector_6" fill="url(#rwviewsid)" d="M154.362 100.236h40.826c.683 0 1.339-.26 1.823-.72a2.407 2.407 0 0 0 .755-1.74V58.64c0-.653-.272-1.279-.755-1.74a2.644 2.644 0 0 0-1.823-.721h-40.826c-.684 0-1.34.259-1.823.72a2.405 2.405 0 0 0-.756 1.74v39.135c0 .653.272 1.279.756 1.74a2.64 2.64 0 0 0 1.823.721Z"/>
					<path id="Vector_7" fill="#ECC52E" d="M164.674 100.238H154.36c-1.423 0-2.578-1.103-2.578-2.461V58.642c0-1.358 1.155-2.46 2.578-2.46h10.314c-1.423 0-2.578 1.102-2.578 2.46v39.135c0 1.358 1.155 2.461 2.578 2.461Z"/>
					<path id="Vector_8" fill="#B4D2D7" d="M135.023 97.958H82.335c-2.137 0-3.868-1.652-3.868-3.691 0-2.04 1.731-3.692 3.868-3.692h52.688c2.137 0 3.868 1.653 3.868 3.692s-1.731 3.691-3.868 3.691Zm31.613 31.207h-53.167c-2.136 0-3.868-1.652-3.868-3.691 0-2.039 1.732-3.692 3.868-3.692h53.167c2.136 0 3.868 1.653 3.868 3.692s-1.732 3.691-3.868 3.691Zm-31.613-47.269H82.335c-2.137 0-3.868-1.652-3.868-3.691 0-2.04 1.731-3.692 3.868-3.692h52.688c2.137 0 3.868 1.653 3.868 3.692 0 2.04-1.731 3.691-3.868 3.691Zm0-16.061H82.335c-2.137 0-3.868-1.653-3.868-3.692s1.731-3.691 3.868-3.691h52.688c2.137 0 3.868 1.652 3.868 3.691 0 2.04-1.731 3.692-3.868 3.692Zm26.652 104.174h-79.34c-2.137 0-3.868-1.653-3.868-3.692s1.731-3.691 3.868-3.691h79.34c2.136 0 3.867 1.652 3.867 3.691 0 2.039-1.731 3.692-3.867 3.692Zm-16.593-20.651H82.335c-2.137 0-3.868-1.653-3.868-3.692s1.731-3.691 3.868-3.691h62.747c2.136 0 3.867 1.652 3.867 3.691 0 2.039-1.731 3.692-3.867 3.692Zm52.928 0h-36.164c-2.136 0-3.867-1.653-3.867-3.692s1.731-3.691 3.867-3.691h36.164c2.136 0 3.867 1.652 3.867 3.691 0 2.039-1.731 3.692-3.867 3.692Z"/>
					<path id="Vector_9" fill="#F0E1EE" d="M228.534 191.557c2.848 0 5.157 2.203 5.157 4.922v3.342c0 12.669-10.721 22.946-23.948 22.946l-78.191 2.461-42.514-2.461c13.227 0 23.953-10.277 23.953-22.946v-3.342c0-2.719 2.309-4.922 5.157-4.922h110.386Zm-14.001-31.24v31.24h-53.744c9.298-18.915 29.337-31.284 51.522-31.284.742 0 1.485.014 2.222.044Z"/>
					<path id="Vector_10" fill="#B4D2D7" d="M194.176 191.559v33.671c0 2.717-2.31 4.922-5.156 4.922h-31.312a51.238 51.238 0 0 1-1.413-5.7 51.968 51.968 0 0 1-.908-9.711c0-6.197 1.078-12.28 3.213-18.083a52.757 52.757 0 0 1 2.186-5.099h33.39Z"/>
					<path id="Vector_11" fill="#F3D332" d="m251.608 238.738 26.178 22.233c4.339 4.084 4.498 10.594.356 14.511-4.137 3.913-10.989 3.75-15.285-.363l-26.147-22.353 14.898-14.028Z"/>
					<path id="Vector_12" fill="#ECC52E" d="M259.375 245.336c-3.957 5.558-8.953 10.373-14.737 14.205l-7.926-6.773 14.897-14.032 7.766 6.6Z"/>
					<path id="Vector_13" fill="#F0E1EE" d="M194.177 225.229v12.117c0 2.717-2.311 4.922-5.157 4.922h-25.81a52.547 52.547 0 0 1-5.502-12.118h31.312c2.846 0 5.157-2.205 5.157-4.921Z"/>
					<path id="Vector_14" fill="#5A82D4" d="M165.699 214.743c0-5.197.928-10.185 2.634-14.824 6.383-17.357 23.661-29.798 43.973-29.798 25.74 0 46.607 19.978 46.607 44.622 0 24.643-20.867 44.622-46.607 44.622s-46.607-19.978-46.607-44.622Z"/>
					<path id="Vector_15" fill="#5E7DB9" d="M248.008 243.416c-8.54 9.751-21.365 15.947-35.701 15.947-25.742 0-46.607-19.978-46.607-44.622 0-5.198.929-10.184 2.63-14.825 3.156-8.579 8.978-15.957 16.512-21.223a44.05 44.05 0 0 0-8.261 13.84 42.97 42.97 0 0 0-2.63 14.825c0 24.644 20.865 44.623 46.607 44.623 10.262 0 19.751-3.18 27.45-8.565Z"/>
					<path id="Vector_16" fill="#F0E1EE" d="M183.209 214.742a26.714 26.714 0 0 1 1.645-9.255c3.985-10.838 14.772-18.605 27.454-18.605 16.072 0 29.1 12.473 29.1 27.86 0 15.386-13.028 27.86-29.1 27.86-16.071 0-29.099-12.474-29.099-27.86Z"/>
					<path id="Vector_17" fill="#F0E1EE" d="M237.356 228.92c-5.064 8.19-14.387 13.678-25.047 13.678-16.073 0-29.099-12.472-29.099-27.858 0-3.244.577-6.359 1.645-9.253 2.284-6.199 6.788-11.43 12.716-14.771a26.871 26.871 0 0 0-2.403 4.927 26.703 26.703 0 0 0-1.645 9.253c0 15.386 13.026 27.858 29.1 27.858 5.379 0 10.412-1.398 14.733-3.834Z"/>
					<path id="Vector_18" fill="#000" d="M154.378 103.927h40.826c3.554 0 6.446-2.759 6.446-6.152V58.64c0-3.392-2.892-6.152-6.446-6.152h-40.826c-3.554 0-6.446 2.76-6.446 6.153V67.9c0 2.039 1.731 3.691 3.868 3.691 2.136 0 3.867-1.652 3.867-3.691v-8.03h38.248v36.674h-38.248V85.662c0-2.04-1.731-3.692-3.867-3.692-2.137 0-3.868 1.653-3.868 3.692v12.113c0 3.393 2.892 6.152 6.446 6.152Zm-72.03-5.966h52.688c2.136 0 3.867-1.652 3.867-3.691 0-2.04-1.731-3.691-3.867-3.691H82.347c-2.136 0-3.867 1.652-3.867 3.691 0 2.04 1.731 3.692 3.867 3.692Zm88.168 27.516c0-2.039-1.731-3.691-3.868-3.691h-53.167c-2.136 0-3.867 1.652-3.867 3.691 0 2.039 1.731 3.692 3.867 3.692h53.167a3.96 3.96 0 0 0 2.735-1.082 3.609 3.609 0 0 0 1.133-2.61ZM82.347 81.9h52.689c2.136 0 3.867-1.653 3.867-3.692s-1.731-3.691-3.867-3.691H82.347c-2.136 0-3.867 1.652-3.867 3.691 0 2.04 1.731 3.692 3.867 3.692Zm0-16.062h52.689c2.136 0 3.867-1.652 3.867-3.692 0-2.039-1.731-3.691-3.867-3.691H82.347c-2.136 0-3.867 1.652-3.867 3.691 0 2.04 1.731 3.692 3.867 3.692Zm0 104.174h79.34c2.136 0 3.867-1.652 3.867-3.691 0-2.04-1.731-3.692-3.867-3.692h-79.34c-2.136 0-3.867 1.652-3.867 3.692 0 2.039 1.731 3.691 3.867 3.691Zm0-20.651h62.747c2.136 0 3.867-1.652 3.867-3.691 0-2.04-1.731-3.692-3.867-3.692H82.347c-2.136 0-3.867 1.652-3.867 3.692 0 2.039 1.731 3.691 3.867 3.691Zm115.675-7.383h-36.163c-2.137 0-3.868 1.652-3.868 3.692 0 2.039 1.731 3.691 3.868 3.691h36.163c2.136 0 3.868-1.652 3.868-3.691 0-2.04-1.732-3.692-3.868-3.692Z"/>
					<path id="Vector_19" fill="#000" d="M280.514 258.342a3.6 3.6 0 0 0-.145-.129L256.569 238a46.489 46.489 0 0 0 6.192-21.504 3.596 3.596 0 0 0-1.035-2.647 3.952 3.952 0 0 0-2.692-1.174c-2.139-.06-3.927 1.521-4.004 3.558-.585 21.745-19.882 39.656-42.711 39.439-23.566 0-42.739-18.362-42.739-40.93-.357-22.118 19.597-41.243 42.739-40.93 18.029 0 34.21 10.919 40.265 27.17a3.761 3.761 0 0 0 1.986 2.082 4.036 4.036 0 0 0 2.946.139 3.808 3.808 0 0 0 2.193-1.883c.441-.88.5-1.89.163-2.811-6.46-17.337-22.684-29.531-41.459-31.723V36.152c0-3.392-2.892-6.152-6.446-6.152H68.159c-3.554 0-6.446 2.76-6.446 6.152v13.352h-13.91c-3.555 0-6.446 2.76-6.446 6.153v13.351H27.446c-3.555 0-6.446 2.76-6.446 6.152v184.153c0 3.393 2.891 6.153 6.446 6.153h123.151c3.554 0 6.446-2.76 6.446-6.153v-13.351h16.79c9.265 10.449 23.08 17.093 38.487 17.093 8.466 0 16.64-1.998 23.912-5.751l23.982 20.5c5.702 5.392 14.941 5.689 20.663.3 5.725-5.223 5.379-14.597-.363-19.762ZM69.448 37.382h141.229V166.46c-16.437.511-31.375 8.669-40.302 21.408h-15.703c-2.137 0-3.868 1.653-3.868 3.692s1.731 3.691 3.868 3.691h11.451a46.333 46.333 0 0 0-4.072 23.824h-53.807c5.308-4.854 8.625-11.688 8.625-19.255v-4.568h21.039c2.136 0 3.868-1.653 3.868-3.692s-1.732-3.691-3.868-3.691h-24.907c-.508 0-1.011.095-1.48.281a3.874 3.874 0 0 0-1.255.8 3.69 3.69 0 0 0-.838 1.197 3.553 3.553 0 0 0-.294 1.413v8.26c0 10.617-9.009 19.255-20.082 19.255H69.448V37.383ZM49.092 238.579v-50.46c0-2.039-1.731-3.692-3.867-3.692-2.137 0-3.868 1.653-3.868 3.692v51.691c0 3.392 2.891 6.152 6.446 6.152h101.505v12.121H28.735V76.391h12.622v96.124c0 2.039 1.731 3.691 3.867 3.691 2.137 0 3.868-1.652 3.868-3.691V56.887h12.622v165.879c0 2.04 1.731 3.692 3.868 3.692h97.768a46.825 46.825 0 0 0 5.08 12.121H49.092v-.001Zm226.34 34.282c-2.676 2.546-7.216 2.286-9.982-.492l-22.493-19.228a50.152 50.152 0 0 0 9.337-8.889l22.853 19.408c2.637 2.424 2.943 6.758.285 9.201Z"/>
					<path id="Vector_20" fill="#000" d="M212.321 183.19c-17.847-.242-33.239 14.502-32.968 31.552 0 17.398 14.79 31.551 32.968 31.551 18.177 0 32.967-14.153 32.967-31.551 0-17.397-14.79-31.552-32.967-31.552Zm0 55.72c-13.913 0-25.232-10.842-25.232-24.168-.212-13.059 11.569-24.354 25.232-24.169 13.912 0 25.231 10.841 25.231 24.169 0 13.326-11.318 24.168-25.231 24.168Z"/>
				</g>
			</g>
			<defs>
				<linearGradient id="rwviewsid" x1="162.388" x2="193.869" y1="76.922" y2="76.922" gradientUnits="userSpaceOnUse">
					<stop stop-color="#ECC52E"/>
					<stop offset="1" stop-color="#FAE05A"/>
				</linearGradient>
			</defs>
		</symbol>
		<symbol xmlns="http://www.w3.org/2000/svg" id="wifi" fill="none" viewBox="0 0 306 312">
			<g id="Icons wifi">
				<rect width="301" height="307" x="2.5" y="2.5" stroke="#000" stroke-width="5" rx="29.5"/>
				<g id="wifi (1) 1">
					<path id="Vector" fill="#F2DE96" d="m217.353 55.72 35.532 168.759c2.972 14.113-6.059 27.959-20.172 30.933l-96.823 20.386c-14.11 2.97-27.959-6.059-30.93-20.172L69.425 86.867c-2.972-14.112 6.06-27.959 20.17-30.93l96.825-20.389c14.11-2.97 27.961 6.06 30.933 20.172Z"/>
					<path id="Vector_2" fill="#C3AA8D" d="M249.805 243.18a26.106 26.106 0 0 1-17.097 12.227l-96.818 20.391c-14.12 2.977-27.954-6.054-30.933-20.177L69.435 86.877a26.09 26.09 0 0 1 12.034-27.74 152.91 152.91 0 0 0-3.291 31.68c0 84.757 68.69 153.447 153.421 153.447 6.085.004 12.165-.359 18.206-1.084Z"/>
					<path id="Vector_3" fill="#fff" d="M196.804 241.868a6.907 6.907 0 0 1-.973 5.205 6.921 6.921 0 0 1-4.37 2.991l-19.976 4.204a6.915 6.915 0 0 1-7.22-10.546 6.918 6.918 0 0 1 4.369-2.991l19.976-4.206a6.907 6.907 0 0 1 5.205.973 6.938 6.938 0 0 1 1.931 1.887c.513.75.871 1.594 1.058 2.483Zm28.188-27.039-98.399 20.718a10.899 10.899 0 0 1-12.909-8.418L86.271 96.927a10.896 10.896 0 0 1 8.418-12.909l98.399-20.717a10.895 10.895 0 0 1 12.908 8.418l27.411 130.202a10.896 10.896 0 0 1-8.415 12.908Z"/>
					<path id="Vector_4" fill="#DDD" d="M233.595 204.946a10.883 10.883 0 0 1-8.598 9.896l-98.399 20.702a10.902 10.902 0 0 1-8.202-1.529 10.902 10.902 0 0 1-4.722-6.878L86.271 96.917a10.882 10.882 0 0 1 8.408-12.898l4.105-.865a101.849 101.849 0 0 0-3.577 26.827c0 56.202 45.559 101.761 101.738 101.761 12.921 0 25.266-2.401 36.65-6.796Z"/>
					<path id="Vector_5" fill="#0F0F0F" d="M130.454 278.252c-5.373 0-10.633-1.551-15.236-4.556a27.803 27.803 0 0 1-12.104-17.68L67.582 87.256a27.814 27.814 0 0 1 3.945-21.064A27.81 27.81 0 0 1 89.21 54.091l96.823-20.386c15.108-3.183 29.983 6.522 33.163 21.628l35.534 168.759c3.181 15.106-6.522 29.985-21.627 33.163l-96.826 20.389a28.268 28.268 0 0 1-5.823.608Zm61.351-241.379c-1.646 0-3.318.169-4.995.52L89.984 57.78c-6.328 1.333-11.764 5.054-15.299 10.475a24.068 24.068 0 0 0-3.414 18.224l35.534 168.758a24.067 24.067 0 0 0 10.472 15.302 24.062 24.062 0 0 0 18.226 3.415l96.825-20.386c13.069-2.753 21.465-15.626 18.712-28.698L215.508 56.107c-2.399-11.394-12.494-19.234-23.703-19.234Z"/>
					<path id="Vector_6" fill="#0F0F0F" d="M124.322 237.672c-2.454 0-4.853-.709-6.957-2.08a12.699 12.699 0 0 1-5.526-8.073L84.425 97.314a12.7 12.7 0 0 1 1.8-9.615 12.704 12.704 0 0 1 8.077-5.526l98.396-20.718a12.801 12.801 0 0 1 15.144 9.874l27.413 130.205a12.704 12.704 0 0 1-1.8 9.614 12.708 12.708 0 0 1-8.076 5.527l-98.397 20.717a12.85 12.85 0 0 1-2.66.28ZM195.336 64.95c-.614 0-1.237.063-1.861.196l-98.4 20.718a9.022 9.022 0 0 0-6.959 10.673l27.414 130.205a8.951 8.951 0 0 0 3.897 5.69 8.932 8.932 0 0 0 6.778 1.269l98.399-20.717a9.022 9.022 0 0 0 6.96-10.673L204.151 72.106a9.033 9.033 0 0 0-8.815-7.156Zm-25.294 191.355a8.738 8.738 0 0 1-4.792-1.433 8.739 8.739 0 0 1-3.804-5.557 8.811 8.811 0 0 1 6.801-10.429l19.976-4.206a8.75 8.75 0 0 1 6.622 1.242 8.73 8.73 0 0 1 3.804 5.556 8.73 8.73 0 0 1-1.242 6.625 8.734 8.734 0 0 1-5.559 3.804l-19.976 4.207a8.863 8.863 0 0 1-1.83.191Zm19.996-18.043a5.05 5.05 0 0 0-1.038.109l-19.979 4.206a4.985 4.985 0 0 0-3.175 2.175 4.997 4.997 0 0 0-.71 3.784 4.998 4.998 0 0 0 2.175 3.178 5.028 5.028 0 0 0 3.784.709l19.976-4.207a5.034 5.034 0 0 0 3.887-5.958 5.037 5.037 0 0 0-4.92-3.996ZM125.046 64.93a1.885 1.885 0 0 1-.384-3.731l3.173-.669a1.883 1.883 0 0 1 2.219 1.461 1.885 1.885 0 0 1-1.445 2.23l-3.173.666a1.887 1.887 0 0 1-.39.043Zm11.128-2.343a1.885 1.885 0 0 1-.384-3.731l20.667-4.353a1.886 1.886 0 1 1 .777 3.691l-20.667 4.35a1.895 1.895 0 0 1-.393.043Z"/>
					<path id="Vector_7" fill="#FFD9B0" d="M35.37 54.139a17.088 17.088 0 0 0 8.673-4.687 17.061 17.061 0 0 0 4.667-8.674.352.352 0 0 1 .699 0 17.062 17.062 0 0 0 4.669 8.674 17.085 17.085 0 0 0 8.674 4.687.352.352 0 0 1 0 .696A17.213 17.213 0 0 0 49.41 68.196a.352.352 0 0 1-.7 0 16.963 16.963 0 0 0-4.683-8.674 16.971 16.971 0 0 0-8.657-4.687"/>
					<path id="Vector_8" fill="#EDB57E" d="M62.757 54.825a17.202 17.202 0 0 0-13.35 13.376.357.357 0 0 1-.702 0 16.864 16.864 0 0 0-4.337-8.335 11.45 11.45 0 0 0 9.375-10.801c.091.136.227.272.34.385a17.014 17.014 0 0 0 8.674 4.676c.385.09.385.631 0 .7Z"/>
					<path id="Vector_9" fill="#0F0F0F" d="M49.06 70.38a2.23 2.23 0 0 1-2.196-1.797 15.073 15.073 0 0 0-4.166-7.724 15.04 15.04 0 0 0-7.706-4.173 1.886 1.886 0 0 1-1.476-2.198 1.885 1.885 0 0 1 1.476-2.197 15.16 15.16 0 0 0 7.719-4.174 15.155 15.155 0 0 0 4.151-7.714 2.235 2.235 0 0 1 2.197-1.81h.003a2.231 2.231 0 0 1 2.192 1.805 15.162 15.162 0 0 0 4.157 7.721 15.163 15.163 0 0 0 7.718 4.172 2.235 2.235 0 0 1 .005 4.392 15.272 15.272 0 0 0-11.88 11.893 2.23 2.23 0 0 1-2.192 1.805h-.002Zm-8.876-15.894a18.925 18.925 0 0 1 5.18 3.708 18.845 18.845 0 0 1 3.698 5.18 19.033 19.033 0 0 1 8.875-8.886 19.14 19.14 0 0 1-5.192-3.7 19.028 19.028 0 0 1-3.685-5.18 19.005 19.005 0 0 1-3.684 5.18 19.11 19.11 0 0 1-5.192 3.698Z"/>
					<path id="Vector_10" fill="#00D8E0" d="M268.549 265.975a9.372 9.372 0 1 1-18.028-3.587 9.363 9.363 0 0 1 8.665-5.779 9.366 9.366 0 0 1 9.363 9.366Z"/>
					<path id="Vector_11" fill="#00D8E0" d="M268.549 265.97a9.383 9.383 0 0 1-9.361 9.383 9.416 9.416 0 0 1-8.83-6.198 9.382 9.382 0 0 0 10.795-.721 9.383 9.383 0 0 0 2.948-10.409 9.328 9.328 0 0 1 4.448 7.945Z"/>
					<path id="Vector_12" fill="#0F0F0F" d="M259.186 277.239a11.28 11.28 0 0 1-11.264-11.264 11.27 11.27 0 0 1 11.264-11.252 11.262 11.262 0 0 1 11.249 11.249c0 6.211-5.046 11.267-11.249 11.267Zm0-18.744a7.492 7.492 0 0 0-7.493 7.477 7.5 7.5 0 0 0 7.493 7.493 7.484 7.484 0 0 0 7.486-7.486 7.486 7.486 0 0 0-7.486-7.484Z"/>
					<path id="Vector_13" fill="#33D443" d="M272.195 141.477a9.373 9.373 0 0 1-18.744 0 9.37 9.37 0 0 1 9.378-9.363 9.369 9.369 0 0 1 9.366 9.363Z"/>
					<path id="Vector_14" fill="#7FD685" d="M272.195 141.475a9.383 9.383 0 0 1-9.361 9.383 9.414 9.414 0 0 1-8.83-6.197 9.393 9.393 0 0 0 10.797-.721 9.39 9.39 0 0 0 2.946-10.413 9.333 9.333 0 0 1 4.448 7.948Z"/>
					<path id="Vector_15" fill="#0F0F0F" d="M262.831 152.744a11.277 11.277 0 0 1-11.266-11.264 11.265 11.265 0 0 1 3.307-7.955 11.265 11.265 0 0 1 7.959-3.296 11.26 11.26 0 0 1 11.249 11.248c0 6.211-5.046 11.264-11.249 11.264v.003Zm0-18.744a7.49 7.49 0 0 0-7.495 7.477 7.504 7.504 0 0 0 7.495 7.493 7.486 7.486 0 0 0 5.294-12.78 7.484 7.484 0 0 0-5.294-2.19Z"/>
					<path id="Vector_16" fill="#FF84A0" d="M198.237 118.22a5.812 5.812 0 0 1-4.38-.865c-12.521-8.35-27.574-11.319-42.378-8.36-14.804 2.962-27.557 11.491-35.904 24.012a5.836 5.836 0 0 1-10.517-2.122 5.827 5.827 0 0 1 .812-4.35c10.075-15.116 25.462-25.407 43.321-28.98 17.861-3.57 36.022.013 51.138 10.093a5.838 5.838 0 0 1 2.486 5.985 5.838 5.838 0 0 1-4.578 4.587Z"/>
					<path id="Vector_17" fill="#F76189" d="M200.495 107.788a66.808 66.808 0 0 0-19.943-7.386 68.03 68.03 0 0 0-26.614.062c-17.869 3.573-33.249 13.882-43.319 28.982a5.763 5.763 0 0 0-.201 6.133 5.671 5.671 0 0 1-2.929-.961A5.796 5.796 0 0 1 105 128.64c.15-.751.447-1.465.875-2.1 10.065-15.123 25.449-25.409 43.318-28.982a68.536 68.536 0 0 1 26.609-.086 67.804 67.804 0 0 1 24.522 10.183c.055.035.111.076.171.133Z"/>
					<path id="Vector_18" fill="#FF84A0" d="M189.995 138.015a5.807 5.807 0 0 1-4.377-.865c-18.138-12.093-42.731-7.175-54.824 10.963a5.834 5.834 0 0 1-9.705-6.475c15.659-23.486 47.512-29.857 70.998-14.195a5.83 5.83 0 0 1-2.092 10.572Z"/>
					<path id="Vector_19" fill="#F76189" d="M192.658 127.865c-22.983-12.368-52.079-5.431-66.832 16.695a5.895 5.895 0 0 0-.197 6.157 5.912 5.912 0 0 1-2.934-.985 5.875 5.875 0 0 1-1.619-8.099c15.674-23.478 47.523-29.844 71.021-14.2.191.125.387.274.561.432Z"/>
					<path id="Vector_20" fill="#FF84A0" d="M181.756 157.813a5.817 5.817 0 0 1-4.38-.865c-10.376-6.917-24.444-4.106-31.363 6.271a5.833 5.833 0 0 1-9.705-6.472c10.484-15.73 31.81-19.994 47.54-9.507a5.83 5.83 0 0 1 2.485 5.985 5.831 5.831 0 0 1-4.577 4.588Z"/>
					<path id="Vector_21" fill="#F76189" d="M184.7 147.921c-15.201-7.477-34.001-2.717-43.648 11.752a5.819 5.819 0 0 0-.989 3.036 5.816 5.816 0 0 0 .765 3.099 5.826 5.826 0 0 1-4.896-3.217 5.837 5.837 0 0 1 .371-5.847c10.489-15.732 31.815-19.996 47.545-9.506.302.201.588.427.852.683Z"/>
					<path id="Vector_22" fill="#0F0F0F" d="M110.705 137.495a7.658 7.658 0 0 1-4.264-1.3 7.67 7.67 0 0 1-3.289-4.911 7.654 7.654 0 0 1 1.146-5.795c10.359-15.536 26.174-26.11 44.528-29.782 18.355-3.67 37.018.015 52.551 10.372a7.676 7.676 0 0 1 2.137 2.124 7.674 7.674 0 0 1 1.152 2.784 7.664 7.664 0 0 1-1.149 5.798 7.663 7.663 0 0 1-4.908 3.286 7.67 7.67 0 0 1-5.795-1.149c-12.106-8.071-26.652-10.937-40.963-8.076-14.306 2.861-26.634 11.103-34.705 23.207a7.65 7.65 0 0 1-4.91 3.288 7.847 7.847 0 0 1-1.529.151l-.002.003Zm52.015-39.4c-4.369 0-8.775.433-13.157 1.308-17.366 3.475-32.326 13.482-42.127 28.178a3.924 3.924 0 0 0-.586 2.967 3.932 3.932 0 0 0 1.682 2.509 3.922 3.922 0 0 0 2.965.586 3.912 3.912 0 0 0 2.509-1.68c8.629-12.946 21.806-21.758 37.103-24.816 15.3-3.06 30.851.008 43.794 8.639a3.931 3.931 0 0 0 2.967.586 3.923 3.923 0 0 0 2.507-1.679 3.928 3.928 0 0 0 .588-2.967 3.9 3.9 0 0 0-.59-1.423c-.288-.431-.66-.8-1.092-1.086-10.987-7.325-23.627-11.121-36.563-11.121Z"/>
					<path id="Vector_23" fill="#0F0F0F" d="M125.924 152.596a7.656 7.656 0 0 1-4.264-1.298 7.65 7.65 0 0 1-3.289-4.908 7.654 7.654 0 0 1 1.146-5.795c7.852-11.779 19.846-19.8 33.767-22.583 13.922-2.784 28.072.01 39.852 7.862a7.672 7.672 0 0 1 3.286 4.908 7.664 7.664 0 0 1-1.149 5.798 7.659 7.659 0 0 1-4.908 3.286 7.678 7.678 0 0 1-5.795-1.147c-17.274-11.515-40.692-6.833-52.207 10.44a7.659 7.659 0 0 1-4.908 3.286 7.792 7.792 0 0 1-1.531.151Zm37.9-31.861c-3.256 0-6.537.322-9.801.975-12.933 2.585-24.074 10.035-31.368 20.977a3.918 3.918 0 0 0-.586 2.962 3.933 3.933 0 0 0 1.682 2.512 3.938 3.938 0 0 0 2.965.585 3.928 3.928 0 0 0 2.509-1.679c12.672-19.001 38.433-24.155 57.439-11.485a3.935 3.935 0 0 0 2.962.585 3.92 3.92 0 0 0 2.509-1.679 3.913 3.913 0 0 0 .588-2.967 3.923 3.923 0 0 0-1.682-2.509 48.895 48.895 0 0 0-27.217-8.277Z"/>
					<path id="Vector_24" fill="#0F0F0F" d="M141.145 167.701a7.667 7.667 0 0 1-4.267-1.297 7.661 7.661 0 0 1-3.286-4.91 7.679 7.679 0 0 1 1.147-5.796 35.916 35.916 0 0 1 23.005-15.387 35.92 35.92 0 0 1 27.147 5.36 7.665 7.665 0 0 1 3.289 4.908 7.659 7.659 0 0 1-1.147 5.796 7.666 7.666 0 0 1-4.91 3.288 7.677 7.677 0 0 1-5.793-1.146c-9.512-6.341-22.405-3.762-28.746 5.747a7.653 7.653 0 0 1-4.91 3.287c-.504.1-1.016.151-1.529.15Zm23.775-24.33c-2.14 0-4.292.211-6.439.641a32.163 32.163 0 0 0-20.605 13.778 3.928 3.928 0 0 0-.588 2.967 3.933 3.933 0 0 0 1.685 2.509 3.906 3.906 0 0 0 2.962.586 3.926 3.926 0 0 0 2.511-1.679c7.493-11.239 22.734-14.289 33.976-6.794a3.916 3.916 0 0 0 2.962.586 3.925 3.925 0 0 0 2.511-1.68 3.914 3.914 0 0 0 .586-2.967 3.914 3.914 0 0 0-1.682-2.509 32.128 32.128 0 0 0-17.879-5.438Z"/>
					<path id="Vector_25" fill="#C3C9FB" d="M205.197 190.529a14.956 14.956 0 0 1-2.12 11.231 14.958 14.958 0 0 1-9.454 6.426L156.9 215.83a14.924 14.924 0 0 1-15.379-6.212 14.958 14.958 0 0 1-.157-16.593 14.958 14.958 0 0 1 9.454-6.426l36.723-7.644a14.943 14.943 0 0 1 11.225 2.13 14.934 14.934 0 0 1 6.431 9.444Z"/>
					<path id="Vector_26" fill="#8693E2" d="M205.197 190.529a14.956 14.956 0 0 1-2.12 11.231 14.958 14.958 0 0 1-9.454 6.426L156.9 215.83a14.917 14.917 0 0 1-11.871-2.576 14.912 14.912 0 0 1-6.026-10.546c7.92 2.343 18.794 2.615 30.347.209 15.778-3.284 28.399-10.618 33.121-18.345a14.514 14.514 0 0 1 2.726 5.957Z"/>
					<path id="Vector_27" fill="#FFD9B0" d="M205.197 190.529a14.956 14.956 0 0 1-2.12 11.231 14.958 14.958 0 0 1-9.454 6.426l-1.106.232a14.935 14.935 0 0 1-15.382-6.213 14.956 14.956 0 0 1-.154-16.592 14.956 14.956 0 0 1 9.452-6.426l1.106-.232a14.948 14.948 0 0 1 5.825-.052 14.914 14.914 0 0 1 9.556 6.264 14.925 14.925 0 0 1 2.277 5.362Z"/>
					<path id="Vector_28" fill="#EDB57E" d="M205.197 190.529a14.956 14.956 0 0 1-2.12 11.231 14.958 14.958 0 0 1-9.454 6.426l-1.106.232a14.908 14.908 0 0 1-15.596-6.555c2.328.729 4.865.888 7.425.354l1.106-.231a14.983 14.983 0 0 0 9.449-6.452 14.874 14.874 0 0 0 2.177-5.391 14.878 14.878 0 0 0-.053-5.815 14.558 14.558 0 0 0-2.062-5.018 14.901 14.901 0 0 1 10.234 11.219Z"/>
					<path id="Vector_29" fill="#0F0F0F" d="M153.855 218.03c-7.794 0-14.809-5.464-16.459-13.391A16.814 16.814 0 0 1 139.782 192a16.833 16.833 0 0 1 10.651-7.249l36.724-7.644c9.076-1.89 17.997 3.96 19.888 13.037a16.817 16.817 0 0 1-2.386 12.642 16.829 16.829 0 0 1-10.651 7.246l-36.724 7.643a16.837 16.837 0 0 1-3.429.355Zm36.734-37.503c-.88 0-1.77.088-2.663.276l-36.721 7.644a13.066 13.066 0 0 0-8.267 5.619 13.049 13.049 0 0 0 .148 14.487 13.053 13.053 0 0 0 13.431 5.429l36.727-7.643a13.062 13.062 0 0 0 8.264-5.62 13.05 13.05 0 0 0-2.696-17.261 13.063 13.063 0 0 0-8.223-2.931Z"/>
					<path id="Vector_30" fill="#0F0F0F" d="M189.47 210.618c-7.795 0-14.809-5.464-16.459-13.391a16.818 16.818 0 0 1 2.389-12.64 16.822 16.822 0 0 1 10.648-7.248l1.106-.232c9.072-1.885 18.002 3.96 19.891 13.037a16.817 16.817 0 0 1-2.386 12.642 16.829 16.829 0 0 1-10.651 7.246l-1.106.231a16.888 16.888 0 0 1-3.432.355Zm1.116-30.091c-.88 0-1.77.088-2.663.276l-1.106.229a13.052 13.052 0 0 0-8.267 5.622 13.056 13.056 0 0 0 .142 14.493 13.048 13.048 0 0 0 13.44 5.423l1.107-.231a13.063 13.063 0 0 0 8.267-5.62 13.045 13.045 0 0 0 1.845-9.806 13.064 13.064 0 0 0-12.765-10.386Z"/>
					<path id="Vector_31" fill="#33D443" d="M87.292 272.107c25.231 0 45.684-20.453 45.684-45.684 0-25.231-20.453-45.685-45.684-45.685-25.231 0-45.685 20.454-45.685 45.685s20.454 45.684 45.685 45.684Z"/>
					<path id="Vector_32" fill="#7FD685" d="M132.971 226.43c0 25.221-20.441 45.682-45.68 45.682-14.597 0-27.601-6.846-35.964-17.529a45.399 45.399 0 0 0 23.177 6.316c25.241 0 45.68-20.442 45.68-45.682a45.481 45.481 0 0 0-9.738-28.191c13.476 7.946 22.525 22.624 22.525 39.404Z"/>
					<path id="Vector_33" fill="#0F0F0F" d="M47.292 270.626c-.482 0-.946-.185-1.295-.518a60.007 60.007 0 0 1-13.919-19.85 1.88 1.88 0 0 1 .348-2.096 1.884 1.884 0 0 1 2.7-.026c.178.178.317.39.412.623a56.264 56.264 0 0 0 13.049 18.611 1.888 1.888 0 0 1-.237 2.931 1.884 1.884 0 0 1-1.058.325Zm11.136 8.272c-.328 0-.65-.086-.936-.249a60.487 60.487 0 0 1-4.772-3.039 1.89 1.89 0 0 1-.434-2.613 1.887 1.887 0 0 1 2.607-.47 56.645 56.645 0 0 0 4.475 2.851 1.887 1.887 0 0 1 .208 3.13c-.33.253-.733.39-1.148.39Zm28.864-4.903c-26.232 0-47.57-21.341-47.57-47.572 0-26.232 21.338-47.571 47.57-47.571 26.231 0 47.57 21.339 47.57 47.571 0 26.231-21.339 47.572-47.57 47.572Zm0-91.371c-24.15 0-43.8 19.649-43.8 43.799 0 24.149 19.65 43.798 43.8 43.798 24.149 0 43.799-19.649 43.799-43.798 0-24.15-19.647-43.799-43.8-43.799Z"/>
					<path id="Vector_34" fill="#0F0F0F" d="M87.292 273.995c-13.125 0-23.408-20.898-23.408-47.572 0-26.674 10.283-47.571 23.408-47.571 13.124 0 23.408 20.894 23.408 47.571 0 26.676-10.284 47.572-23.408 47.572Zm0-91.371c-10.643 0-19.637 20.056-19.637 43.799 0 23.742 8.994 43.798 19.637 43.798s19.636-20.056 19.636-43.798c0-23.743-8.993-43.799-19.636-43.799Z"/>
					<path id="Vector_35" fill="#0F0F0F" d="M87.292 273.995a1.884 1.884 0 0 1-1.886-1.885v-91.374a1.886 1.886 0 1 1 3.771 0v91.369a1.885 1.885 0 0 1-1.885 1.885v.005Z"/>
					<path id="Vector_36" fill="#0F0F0F" d="M132.976 228.308H41.607a1.884 1.884 0 0 1-1.333-3.219 1.888 1.888 0 0 1 1.333-.552h91.369a1.889 1.889 0 0 1 1.334 3.219 1.886 1.886 0 0 1-1.334.552Z"/>
					<path id="Vector_37" fill="#fff" d="M69.533 205.365a4.75 4.75 0 1 0 0-9.498 4.75 4.75 0 0 0 0 9.498Z"/>
					<path id="Vector_38" fill="#0F0F0F" d="M69.533 207.251a6.646 6.646 0 0 1-6.638-6.638c0-3.66 2.98-6.632 6.638-6.632a6.641 6.641 0 0 1 6.635 6.635 6.64 6.64 0 0 1-6.635 6.635Zm0-9.499a2.866 2.866 0 1 0 0 5.732 2.866 2.866 0 0 0 0-5.732Z"/>
					<path id="Vector_39" fill="#fff" d="M108.059 217.824a4.75 4.75 0 1 0 0-9.5 4.75 4.75 0 0 0 0 9.5Z"/>
					<path id="Vector_40" fill="#0F0F0F" d="M108.06 219.712a6.646 6.646 0 0 1-6.638-6.638c0-3.661 2.979-6.635 6.638-6.635 3.658 0 6.635 2.977 6.635 6.638a6.64 6.64 0 0 1-6.635 6.635Zm0-9.502a2.87 2.87 0 0 0-2.812 3.426 2.864 2.864 0 0 0 2.252 2.252 2.87 2.87 0 0 0 2.943-1.219 2.863 2.863 0 0 0-.357-3.619 2.862 2.862 0 0 0-2.026-.84Z"/>
					<path id="Vector_41" fill="#fff" d="M68.482 254.276a4.75 4.75 0 1 0 0-9.5 4.75 4.75 0 0 0 0 9.5Z"/>
					<path id="Vector_42" fill="#0F0F0F" d="M68.485 256.162c-3.658 0-6.638-2.975-6.638-6.636 0-3.66 2.98-6.635 6.638-6.635s6.635 2.977 6.635 6.638a6.638 6.638 0 0 1-6.635 6.633Zm0-9.499a2.866 2.866 0 1 0 0 5.731 2.866 2.866 0 0 0 0-5.731Z"/>
					<path id="Vector_43" fill="#00D8E0" d="M226.646 106.888c15.869 0 28.733-12.864 28.733-28.733s-12.864-28.733-28.733-28.733-28.733 12.864-28.733 28.733c0 15.87 12.864 28.733 28.733 28.733Z"/>
					<path id="Vector_44" fill="#25A3A9" d="M255.387 78.163c0 15.855-12.884 28.713-28.741 28.713-12.416 0-23.018-7.882-27.024-18.955a28.59 28.59 0 0 0 16.295 5.066 28.727 28.727 0 0 0 28.744-28.74c0-3.443-.594-6.727-1.69-9.759a28.72 28.72 0 0 1 12.416 23.675Z"/>
					<path id="Vector_45" fill="#0F0F0F" d="M267.953 80.04a1.884 1.884 0 0 1-1.886-1.885c0-12.805-6.278-24.866-16.795-32.263a1.887 1.887 0 0 1 2.17-3.085 43.293 43.293 0 0 1 18.397 35.35 1.885 1.885 0 0 1-1.886 1.886v-.002ZM241.96 41.679c-.24 0-.478-.046-.701-.136a39.677 39.677 0 0 0-4.443-1.478 1.884 1.884 0 0 1-1.305-2.3 1.887 1.887 0 0 1 2.278-1.344c1.647.44 3.286.986 4.873 1.622a1.889 1.889 0 0 1 1.149 2.107 1.885 1.885 0 0 1-1.851 1.529Zm-15.317 67.096c-16.881 0-30.619-13.736-30.619-30.619s13.738-30.621 30.622-30.621c16.883 0 30.621 13.735 30.621 30.624 0 16.888-13.738 30.616-30.624 30.616Zm0-57.469c-14.801 0-26.847 12.044-26.847 26.85 0 14.807 12.043 26.848 26.85 26.848 14.807 0 26.85-12.044 26.85-26.845 0-14.802-12.046-26.853-26.853-26.853Z"/>
					<path id="Vector_46" fill="#0F0F0F" d="M217.243 86.392a1.888 1.888 0 0 1-1.886-1.886V64.862a1.888 1.888 0 0 1 1.886-1.886 1.886 1.886 0 0 1 1.885 1.886v19.644a1.884 1.884 0 0 1-1.885 1.886Z"/>
					<path id="Vector_47" fill="#0F0F0F" d="M210.301 73.69a1.886 1.886 0 0 1-1.333-3.218l6.939-6.94a1.894 1.894 0 0 1 1.334-.553 1.887 1.887 0 0 1 1.334.553l6.942 6.94a1.89 1.89 0 0 1 .463 2.085 1.888 1.888 0 0 1-3.128.58l-5.607-5.607-5.607 5.607a1.88 1.88 0 0 1-1.337.553Zm25.746 19.641a1.888 1.888 0 0 1-1.886-1.885V71.804a1.888 1.888 0 0 1 1.886-1.886 1.884 1.884 0 0 1 1.886 1.886v19.642a1.885 1.885 0 0 1-1.886 1.885Z"/>
					<path id="Vector_48" fill="#0F0F0F" d="M236.047 93.331a1.876 1.876 0 0 1-1.333-.553l-6.939-6.94a1.889 1.889 0 0 1-.048-2.712 1.883 1.883 0 0 1 2.713.048l5.607 5.606 5.607-5.606a1.887 1.887 0 0 1 3.102.594 1.879 1.879 0 0 1-.435 2.07l-6.939 6.94a1.879 1.879 0 0 1-1.335.553Z"/>
				</g>
			</g>
		</symbol>
	</defs>
</svg>