<svg xmlns="http://www.w3.org/2000/svg" aria-hidden="true" style="position:absolute;width:0;height:0;overflow:hidden">
  <defs>
    <symbol id="icon-ellipse" viewBox="0 0 34 32">
      <path fill="#f593bc" d="M32.889 16c0 8.837-7.163 16-16 16s-16-7.163-16-16 7.163-16 16-16 16 7.163 16 16z" style="fill:var(--color1, #f593bc)"/>
    </symbol>
    <symbol id="icon-ellipse-active" viewBox="0 0 32 32">
      <path fill="#fff" d="M31.385 16c0 8.497-6.888 15.385-15.385 15.385S.615 24.497.615 16 7.503.615 16 .615 31.385 7.503 31.385 16z" style="fill:var(--color2, #fff)"/>
    </symbol>
    <symbol id="icon-exclamation" viewBox="0 0 35 32">
      <path fill="#fff" d="M17.495 22.477c-.978 0-1.798.82-1.798 1.798s.82 1.798 1.798 1.798c.942 0 1.798-.82 1.755-1.755a1.756 1.756 0 0 0-1.755-1.841z" style="fill:var(--color2, #fff)"/>
      <path fill="#fff" d="M34.139 28.85c1.129-1.949 1.136-4.273.014-6.215L22.889 3.128C21.774 1.164 19.76-.001 17.502-.001s-4.273 1.172-5.387 3.122L.837 22.649A6.19 6.19 0 0 0 .859 28.9a6.155 6.155 0 0 0 5.373 3.086h22.499c2.251 0 4.273-1.172 5.409-3.136zm-2.446-1.41a3.399 3.399 0 0 1-2.971 1.719H6.223a3.354 3.354 0 0 1-2.935-1.683 3.402 3.402 0 0 1-.007-3.431L14.559 4.524a3.337 3.337 0 0 1 2.942-1.705c1.23 0 2.33.64 2.942 1.712l11.271 19.521c.604 1.05.597 2.316-.022 3.388z" style="fill:var(--color2, #fff)"/>
      <path fill="#fff" d="M17.049 9.854c-.856.245-1.388 1.021-1.388 1.964.043.568.079 1.144.122 1.712.122 2.165.245 4.287.367 6.452.043.734.611 1.266 1.345 1.266s1.309-.568 1.345-1.309c0-.446 0-.856.043-1.309.079-1.388.165-2.776.245-4.165.043-.899.122-1.798.165-2.697 0-.324-.043-.611-.165-.899a1.802 1.802 0 0 0-2.079-1.014z" style="fill:var(--color2, #fff)"/>
    </symbol>
    <symbol id="icon-left-arrow" viewBox="0 0 63 32">
      <path fill="#fff" d="M25.602.444c.15.251.374.443.504.443.135 0 .234.075.234.176 0 .096-.15.176-.334.176-.284 0-.334.117-.334.789 0 .731.035.795.459.843.299.037.479.171.514.4.035.192.209.475.389.635.534.459.234.885-.613.885-.633 0-.703.043-.633.347.05.213.249.368.514.4.344.043.459.176.563.677.075.336.095.805.05 1.024-.07.336-.199.4-.833.4-.848 0-.962.229-.284.576.549.283.678.832.264 1.146-.165.128-.234.235-.15.235.399.005 9.913.565 13.638.805 6.053.389 18.245 1.306 18.659 1.413.449.112.598.549.294.88-.18.197-.504.245-1.202.187-.873-.075-.843-.059.374.187 1.68.336 2.124.539 2.05.944-.08.416-.603.384-5.46-.368-2.244-.347-4.897-.672-5.904-.725l-1.83-.096 2.493.331c2.164.288 8.367 1.37 10.063 1.76.434.096.583.224.583.491 0 .453-.065.448-4.822-.421-2.194-.405-5.415-.896-7.151-1.098-3.525-.405-13.448-1.088-15.383-1.061l-1.247.021.997.155c1.476.235 13.453 1.653 20.21 2.394 4.558.501 6.058.725 6.567.992.733.373 1.376 1.162 1.147 1.402-.169.181-7.136-.485-19.277-1.845-5.47-.613-8.746-.906-9.23-.832l-.748.117.917.123c.504.069 5.67.608 11.474 1.2s11.534 1.194 12.725 1.333c1.197.144 2.613.256 3.176.256 1.062 0 1.92.389 1.361.619-.145.059-4.223-.293-9.065-.784-12.257-1.248-15.408-1.413-6.787-.363 2.478.304 5.161.661 5.989.795.823.139 3.411.421 5.739.629 6.253.56 6.068.528 6.128 1.098.065.619-.224.699-1.855.528-1.062-.112-1.321-.091-1.441.133-.125.235-.324.219-1.606-.112-1.985-.512-1.945-.507-10.626-1.2-12.675-1.008-14.007-1.013-3.989-.005 8.582.864 16.181 1.797 16.43 2.026.11.101.534.203.947.235.733.053.748.069.748.677v.624l-3.077-.075-.11.72c-.06.389-.209.763-.324.811-.12.048-3.276-.203-7.001-.555-8.467-.8-16.575-1.472-19.507-1.616-1.232-.059-2.583-.155-2.992-.208-.563-.075-.703-.048-.563.107.11.123 3.361.517 8.148.986 14.486 1.429 23.76 2.437 23.965 2.608.11.091.185.507.165.912-.025.603-.1.757-.384.8-.189.032-7.385-.635-15.967-1.477s-16.001-1.536-16.475-1.546c-.583-.011-.982.085-1.257.304-.454.368-.823 1.349-.798 2.112.01.283-.125.683-.299.891s-.399.629-.499.949c-.165.517-.15.576.15.576.185 0 .374.117.424.267.145.411-.279.843-.708.725-.304-.085-.399.005-.568.539-.19.608-.234.635-.833.549-.514-.075-.648-.027-.713.251-.105.427-.748.453-.898.037-.06-.171.005-.368.174-.496.239-.187.135-.293-.848-.842-.613-.347-1.501-.683-1.955-.747-.464-.064-.962-.155-1.132-.208-.314-.096-.374-.613-.1-.901.13-.139.025-.251-.359-.389-.299-.107-.683-.197-.858-.197-.289 0-.374-.176-.309-.656.015-.117-.289-.293-.688-.4-1.466-.379-1.551-.432-1.611-.986-.03-.283-.209-.64-.404-.789-2.713-2.122-3.825-2.821-4.672-2.933-.947-.128-1.546-.587-1.376-1.061.095-.267-.653-.997-1.017-.997-.09 0-.464-.283-.813-.619-1.247-1.189-3.884-3.295-4.124-3.295-.529 0-.214-.565.713-1.285.763-.592.977-.859.967-1.205-.015-.405.035-.443.583-.411.464.027.748-.101 1.267-.571 2.304-2.106 8.916-6.452 15.368-10.105 1.147-.651 2.189-1.306 2.304-1.45s.429-.267.698-.267c.299 0 .633-.16.853-.411.558-.624 1.685-.645 2.059-.037zM22.52 2.123c-.209.144-.209.181.01.256.563.192 1.98.288 1.98.128 0-.128-.314-.229-1.666-.533-.045-.011-.19.059-.324.149zm-2.418 1.205c-.499.261-.913.539-.913.619s.259.144.573.144c.464 0 .583-.075.623-.4.035-.293.174-.416.509-.453.249-.027.419-.128.369-.213-.13-.235-.13-.235-1.162.304zM17.858 4.72c0 .043.15.08.334.08s.334-.123.334-.277c0-.219-.065-.235-.334-.08-.184.107-.334.235-.334.277zm-1.331.72c0 .037.159.069.339.069.185 0 .294-.08.239-.176-.09-.16-.578-.069-.578.107zm5.654 2.213c.499.075 1.217.128 1.581.123l.663-.011-.663-.123c-.364-.069-1.082-.123-1.581-.123h-.917l.917.133zM10.473 9.109c-1.765 1.157-3.76 2.608-3.76 2.736 0 .256.643 0 .713-.283.055-.224.284-.379.683-.453.334-.064.598-.224.598-.363 0-.453.648-.619 2.812-.725 2.029-.101 2.169-.085 2.284.229.17.485.399.603 1.147.587l.663-.016-.559-.171c-.319-.096-.593-.309-.638-.496-.06-.235-.309-.368-.858-.453-.434-.069-.868-.208-.987-.315-.284-.245-.249-1.008.05-1.13.135-.053.204-.187.15-.283-.14-.245-.404-.112-2.299 1.136zm3.241-.859c.115.123 3.81.597 6.403.827 4.009.352 3.027.08-1.431-.405-4.607-.496-5.076-.533-4.971-.421zm9.504 1.109c.155.043.464.048.668.011s.075-.075-.294-.08c-.364-.005-.534.027-.374.069zm-6.402 1.611c.299.037.783.037 1.082 0s.06-.069-.539-.069c-.603 0-.843.032-.543.069zm2.867.234c.683.069 1.7.123 2.244.117l.997-.011-1.167-.107a32.63 32.63 0 0 0-2.244-.117l-1.082-.011 1.252.128zm3.954.299c.12.048.334.048.499 0s.075-.091-.209-.091c-.284.005-.409.043-.289.091zm21.621 1.248c.12.048.334.048.499 0 .165-.053.075-.091-.209-.091s-.409.037-.289.091zm-15.138 0c.12.048.334.048.499 0 .165-.053.075-.091-.209-.091-.279 0-.404.037-.289.091zm-25.286.485c-.294.235-.289.245.04.357.194.064.489.005.688-.144.334-.245.334-.261.04-.347-.165-.048-.344-.091-.389-.096s-.214.096-.379.229zm20.838.096c.234.144 1.361.267 1.745.187.324-.069-.683-.32-1.331-.331-.444-.005-.583.037-.414.144zm-16.78.965c.115.123 2.827.56 8.896 1.429 3.126.448 5.729.811 5.774.811s.045-.149 0-.347c-.05-.208-.259-.368-.524-.4-.299-.037-.434-.155-.419-.363.015-.176-.04-.309-.125-.309-.08 0-1.671-.123-3.516-.277a229.788 229.788 0 0 0-6.278-.416c-1.596-.08-3.126-.155-3.396-.171-.264-.016-.454.005-.414.043zm-6.372.667-1.017.736.399.32c.364.293.404.293.459.016.1-.517.489-.704 1.272-.608.713.091.733.08.698-.427-.02-.336-.15-.555-.364-.629l-.384-.133c-.025-.005-.494.315-1.062.725zm24.199-.453c.055.059.199.064.314.016.135-.059.1-.096-.1-.107-.165-.005-.264.037-.214.091zm11.803 2.319c.155.043.464.048.663.011.204-.037.075-.075-.289-.08-.369-.005-.534.027-.374.069zm-24.274-.005c.055.059.199.064.314.016.135-.053.1-.096-.1-.107-.165-.011-.269.032-.214.091zm-10.88.33c.399.315.648.389.913.283.404-.165.663-.133 9.215 1.056 6.752.944 7.021.971 7.021.731 0-.165-6.901-1.221-12.227-1.877-6.098-.752-5.615-.736-4.922-.192zm11.952-.138c.12.048.334.048.499 0s.075-.091-.209-.091c-.279.005-.409.043-.289.091zm1.247.17c.164.048.414.048.583 0 .16-.043.025-.08-.289-.08-.319 0-.454.037-.294.08zm2.119.331c1.416.261 1.935.309 1.78.149-.13-.133-1.68-.373-2.443-.379-.319 0-.015.101.663.229zm2.378.373c.055.059.199.064.314.016.135-.053.1-.096-.1-.107-.165-.011-.264.032-.214.091zm1.197.24c.748.208 1.282.208 1.167.005-.055-.096-.449-.171-.883-.16-.698.016-.728.032-.284.155zm4.458.827c.055.059.199.064.314.016.135-.059.1-.096-.1-.107-.165-.011-.264.032-.214.091zm1.197.202c.284.048.583.155.698.251.11.091 1.68.283 3.49.421 6.373.485 6.911.432 1.631-.155-2.927-.325-5.545-.592-5.819-.592h-.499l.499.075zm-15 .688c.055.059.199.064.314.016.135-.059.1-.096-.1-.107-.164-.011-.269.032-.214.091zm1.237.192c.115.048.299.048.414 0s.025-.091-.21-.091c-.229.005-.319.043-.204.091zm1.167.182c.12.053.334.053.499 0 .165-.048.075-.091-.209-.091-.279 0-.409.037-.289.091zm24.284.175c.199.037.548.037.748 0 .209-.037.04-.069-.374-.069-.419 0-.583.032-.374.069zm-22.953 0c.12.048.334.048.499 0s.075-.091-.209-.091-.409.043-.289.091zm24.863.171c.155.043.464.048.668.011s.075-.075-.294-.08c-.364-.011-.534.021-.374.069zm-12.018.069c.598.075 2.194.171 3.575.224 1.381.048 2.159.053 1.745.005-1.311-.144-4.707-.363-5.57-.363-.778 0-.763.011.249.133zm-11.683-.064c.12.048.334.048.499 0s.075-.091-.209-.091c-.279.005-.404.043-.289.091zm25.366.171c.155.043.464.048.663.011.204-.037.075-.075-.289-.08-.369-.005-.539.027-.374.069zm-24.119 0c.165.048.414.048.583 0 .16-.043.025-.08-.289-.08-.319 0-.449.037-.294.08zm25.864.187c.199.037.549.037.748 0 .209-.037.04-.069-.374-.069s-.583.032-.374.069zm-23.74.144c1.346.251 2.104.315 1.965.165-.115-.123-1.915-.389-2.628-.395-.319 0-.02.101.663.229zm25.401.032c.199.037.549.037.748 0 .209-.037.04-.069-.374-.069s-.578.032-.374.069zm-10.392 0c.349.037.898.037 1.247 0 .339-.037.06-.069-.623-.069s-.967.032-.623.069zm11.893.181c.204.037.583.037.833 0 .259-.037.09-.069-.374-.069-.469-.005-.668.027-.459.069zm-8.986 0c.199.037.548.037.748 0 .209-.037.04-.069-.374-.069-.414-.005-.578.027-.374.069zm11.519.325c.683.123 2.114.272 3.161.325l1.915.096-2.413-.32c-2.927-.395-4.598-.453-2.663-.101zm1.954 1.275c.12.048.334.048.499 0s.075-.091-.209-.091c-.279 0-.404.043-.289.091zm-39.791 1.189c.165.128.424.197.583.155.155-.043 1.132.053 2.179.213 1.042.16 2.942.325 4.224.363l2.329.069-2.578-.256a288.948 288.948 0 0 1-4.493-.496c-2.708-.341-2.623-.341-2.244-.048zm10.731 2.138c0 .176.489.267.578.107.055-.096-.055-.176-.239-.176-.185-.005-.339.032-.339.069zm-5.949 1.109c.165.048.414.048.583 0 .159-.043.025-.08-.289-.08-.319 0-.454.037-.294.08zm1.331.176c.164.048.414.048.583 0 .16-.043.025-.08-.289-.08-.319 0-.454.037-.294.08zm1.411.187c.204.037.583.037.833 0 .254-.037.09-.069-.374-.069s-.663.032-.459.069zm1.915.181c.249.037.663.037.913 0s.04-.069-.459-.069c-.494-.005-.703.032-.454.069zm-3.5.688c.135.139 3.077.603 3.839.608 1.142.005.633-.32-.683-.437a43.06 43.06 0 0 1-1.616-.165c-.608-.101-1.636-.107-1.541-.005zm3.126 1.856c.763.448 1.047.443.414-.005-.284-.203-.608-.352-.748-.347-.135.011.02.171.334.352z" style="fill:var(--color2, #fff)"/>
    </symbol>
    <symbol id="icon-menu" viewBox="0 0 32 32">
      <path fill="#fff" d="M0 0h32v3.2H0V0zM0 14.399h32v3.2H0v-3.2zM0 28.8h32V32H0v-3.2z" style="fill:var(--color2, #fff)"/>
    </symbol>
    <symbol id="icon-right-arrow" viewBox="0 0 63 32">
      <path fill="#fff" d="M37.331.444c-.15.251-.374.443-.504.443-.135 0-.234.075-.234.176 0 .096.15.176.334.176.284 0 .334.117.334.789 0 .731-.035.795-.459.843-.299.037-.479.171-.514.4-.035.192-.209.475-.389.635-.534.459-.234.885.613.885.633 0 .703.043.633.347-.05.213-.249.368-.514.4-.344.043-.459.176-.563.677-.075.336-.095.805-.05 1.024.07.336.199.4.833.4.848 0 .962.229.284.576-.549.283-.678.832-.264 1.146.165.128.234.235.15.235-.399.005-9.913.565-13.638.805-6.053.389-18.245 1.306-18.659 1.413-.449.112-.598.549-.294.88.179.197.504.245 1.202.187.873-.075.843-.059-.374.187-1.68.336-2.124.539-2.049.944.08.416.603.384 5.46-.368 2.244-.347 4.897-.672 5.904-.725l1.83-.096-2.493.331c-2.164.288-8.367 1.37-10.063 1.76-.434.096-.583.224-.583.491 0 .453.065.448 4.822-.421 2.194-.405 5.415-.896 7.151-1.098 3.525-.405 13.448-1.088 15.383-1.061l1.247.021-.997.155c-1.476.235-13.453 1.653-20.21 2.394-4.558.501-6.059.725-6.567.992-.733.373-1.376 1.162-1.147 1.402.17.181 7.136-.485 19.277-1.845 5.47-.613 8.746-.907 9.23-.832l.748.117-.917.123c-.504.069-5.67.608-11.474 1.2S8.276 17.746 7.085 17.885c-1.197.144-2.613.256-3.176.256-1.062 0-1.92.389-1.361.619.145.059 4.223-.293 9.065-.784 12.257-1.248 15.408-1.413 6.787-.363-2.478.304-5.161.661-5.989.795-.823.139-3.411.421-5.739.629-6.253.56-6.068.528-6.128 1.098-.065.619.224.699 1.855.528 1.062-.112 1.321-.091 1.441.133.125.235.324.219 1.606-.112 1.985-.512 1.945-.507 10.626-1.2 12.675-1.008 14.007-1.013 3.989-.005-8.582.864-16.181 1.797-16.43 2.026-.11.101-.534.203-.947.235-.733.053-.748.069-.748.677v.624l3.077-.075.11.72c.06.389.209.763.324.811.12.048 3.276-.203 7.001-.555 8.467-.8 16.575-1.472 19.507-1.616 1.232-.059 2.583-.155 2.992-.208.563-.075.703-.048.563.107-.11.123-3.361.517-8.148.986-14.486 1.429-23.76 2.437-23.965 2.608-.11.091-.184.507-.165.912.025.603.1.757.384.8.189.032 7.385-.635 15.966-1.477s16.001-1.536 16.475-1.546c.583-.011.982.085 1.257.304.454.368.823 1.349.798 2.112-.01.283.125.683.299.891s.399.629.499.949c.165.517.15.576-.15.576-.185 0-.374.117-.424.267-.145.411.279.843.708.725.304-.085.399.005.568.539.19.608.234.635.833.549.514-.075.648-.027.713.251.105.427.748.453.898.037.06-.171-.005-.368-.175-.496-.239-.187-.135-.293.848-.842.613-.347 1.501-.683 1.955-.747.464-.064.962-.155 1.132-.208.314-.096.374-.613.1-.901-.13-.139-.025-.251.359-.389.299-.107.683-.197.858-.197.289 0 .374-.176.309-.656-.015-.117.289-.293.688-.4 1.466-.379 1.551-.432 1.611-.986.03-.283.209-.64.404-.789 2.713-2.122 3.825-2.821 4.672-2.933.947-.128 1.546-.587 1.376-1.061-.095-.267.653-.997 1.017-.997.09 0 .464-.283.813-.619 1.247-1.189 3.884-3.295 4.124-3.295.529 0 .214-.565-.713-1.285-.763-.592-.977-.858-.967-1.205.015-.405-.035-.443-.583-.411-.464.027-.748-.101-1.267-.571-2.304-2.106-8.916-6.452-15.368-10.105-1.147-.651-2.189-1.306-2.304-1.45s-.429-.267-.698-.267c-.299 0-.633-.16-.853-.411-.558-.624-1.685-.645-2.059-.037zm3.082 1.679c.209.144.209.181-.01.256-.563.192-1.98.288-1.98.128 0-.128.314-.229 1.666-.533.045-.011.19.059.324.149zm2.418 1.205c.499.261.913.539.913.619s-.259.144-.573.144c-.464 0-.583-.075-.623-.4-.035-.293-.175-.416-.509-.453-.249-.027-.419-.128-.369-.213.13-.235.13-.235 1.162.304zm2.244 1.392c0 .043-.15.08-.334.08s-.334-.123-.334-.277c0-.219.065-.235.334-.08.184.107.334.235.334.277zm1.332.72c0 .037-.159.069-.339.069-.185 0-.294-.08-.239-.176.09-.16.578-.069.578.107zm-5.655 2.213c-.499.075-1.217.128-1.581.123l-.663-.011.663-.123c.364-.069 1.082-.123 1.581-.123h.917l-.917.133zM52.46 9.109c1.765 1.157 3.76 2.608 3.76 2.736 0 .256-.643 0-.713-.283-.055-.224-.284-.379-.683-.453-.334-.064-.598-.224-.598-.363 0-.453-.648-.619-2.812-.725-2.029-.101-2.169-.085-2.284.229-.17.485-.399.603-1.147.587l-.663-.016.559-.171c.319-.096.593-.309.638-.496.06-.235.309-.368.858-.453.434-.069.868-.208.987-.315.284-.245.249-1.008-.05-1.13-.135-.053-.204-.187-.15-.283.14-.245.404-.112 2.299 1.136zm-3.241-.859c-.115.123-3.81.597-6.403.827-4.009.352-3.027.08 1.431-.405 4.607-.496 5.076-.533 4.971-.421zm-9.504 1.109c-.155.043-.464.048-.668.011s-.075-.075.294-.08c.364-.005.534.027.374.069zm6.402 1.611c-.299.037-.783.037-1.082 0s-.06-.069.539-.069c.603 0 .843.032.543.069zm-2.867.234c-.683.069-1.7.123-2.244.117l-.997-.011 1.167-.107a32.63 32.63 0 0 1 2.244-.117l1.082-.011-1.252.128zm-3.954.299c-.12.048-.334.048-.499 0s-.075-.091.209-.091c.284.005.409.043.289.091zm-21.621 1.248c-.12.048-.334.048-.499 0-.165-.053-.075-.091.209-.091s.409.037.289.091zm15.139 0c-.12.048-.334.048-.499 0-.165-.053-.075-.091.209-.091.279 0 .404.037.289.091zm25.286.485c.294.235.289.245-.04.357-.194.064-.489.005-.688-.144-.334-.245-.334-.261-.04-.347.164-.048.344-.091.389-.096s.214.096.379.229zm-20.838.096c-.234.144-1.361.267-1.745.187-.324-.069.683-.32 1.331-.331.444-.005.583.037.414.144zm16.779.965c-.115.123-2.827.56-8.896 1.429-3.126.448-5.729.811-5.774.811s-.045-.149 0-.347c.05-.208.259-.368.524-.4.299-.037.434-.155.419-.363-.015-.176.04-.309.125-.309.08 0 1.67-.123 3.516-.277 1.845-.149 4.682-.341 6.278-.416 1.596-.08 3.127-.155 3.396-.171.264-.016.454.005.414.043zm6.373.667 1.017.736-.399.32c-.364.293-.404.293-.459.016-.1-.517-.489-.704-1.272-.608-.713.091-.733.08-.698-.427.02-.336.15-.555.364-.629l.384-.133c.025-.005.494.315 1.062.725zm-24.2-.453c-.055.059-.199.064-.314.016-.135-.059-.1-.096.1-.107.165-.005.264.037.214.091zM24.412 16.83a1.827 1.827 0 0 1-.663.011c-.204-.037-.075-.075.289-.08.369-.005.534.027.374.069zm24.273-.005c-.055.059-.199.064-.314.016-.135-.053-.1-.096.1-.107.165-.011.269.032.214.091zm10.881.33c-.399.315-.648.389-.913.283-.404-.165-.663-.133-9.215 1.056-6.752.944-7.021.97-7.021.73 0-.165 6.901-1.221 12.227-1.877 6.098-.752 5.615-.736 4.922-.192zm-11.953-.138c-.12.048-.334.048-.499 0s-.075-.091.209-.091c.279.005.409.043.289.091zm-1.246.17a1.198 1.198 0 0 1-.583 0c-.16-.043-.025-.08.289-.08.319 0 .454.037.294.08zm-2.119.331c-1.416.261-1.935.309-1.78.149.13-.133 1.68-.373 2.443-.379.319 0 .015.101-.663.229zm-2.379.373c-.055.059-.199.064-.314.016-.135-.053-.1-.096.1-.107.165-.011.264.032.214.091zm-1.197.24c-.748.208-1.282.208-1.167.005.055-.096.449-.171.883-.16.698.016.728.032.284.155zm-4.458.827c-.055.059-.199.064-.314.016-.135-.059-.1-.096.1-.107.165-.011.264.032.214.091zm-1.196.202c-.284.048-.583.155-.698.251-.11.091-1.68.283-3.49.421-6.373.485-6.911.432-1.631-.155 2.927-.325 5.545-.592 5.819-.592h.499l-.499.075zm14.999.688c-.055.059-.199.064-.314.016-.135-.059-.1-.096.1-.107.164-.011.269.032.214.091zm-1.237.192c-.115.048-.299.048-.414 0s-.025-.091.209-.091c.229.005.319.043.204.091zm-1.167.182c-.12.053-.334.053-.499 0-.165-.048-.075-.091.209-.091.279 0 .409.037.289.091zm-24.284.176a2.534 2.534 0 0 1-.748 0c-.209-.037-.04-.069.374-.069.419 0 .583.032.374.069zm22.953 0c-.12.048-.334.048-.499 0s-.075-.091.209-.091.409.043.289.091zm-24.862.17c-.155.043-.464.048-.668.011s-.075-.075.294-.08c.364-.011.534.021.374.069zm12.017.069c-.598.075-2.194.171-3.575.224-1.381.048-2.159.053-1.745.005 1.311-.144 4.707-.363 5.57-.363.778 0 .763.011-.249.133zm11.683-.064c-.12.048-.334.048-.499 0s-.075-.091.209-.091c.279.005.404.043.289.091zm-25.366.171a1.827 1.827 0 0 1-.663.011c-.204-.037-.075-.075.289-.08.369-.005.539.027.374.069zm24.12 0a1.198 1.198 0 0 1-.583 0c-.16-.043-.025-.08.289-.08.319 0 .449.037.294.08zm-25.865.187a2.534 2.534 0 0 1-.748 0c-.209-.037-.04-.069.374-.069s.583.032.374.069zm23.74.144c-1.346.251-2.104.315-1.965.165.115-.123 1.915-.389 2.628-.395.319 0 .02.101-.663.229zm-25.4.032a2.534 2.534 0 0 1-.748 0c-.209-.037-.04-.069.374-.069s.578.032.374.069zm10.391 0a7.018 7.018 0 0 1-1.247 0c-.339-.037-.06-.069.623-.069s.967.032.623.069zm-11.892.181a3.134 3.134 0 0 1-.833 0c-.259-.037-.09-.069.374-.069.469-.005.668.027.459.069zm8.985 0a2.534 2.534 0 0 1-.748 0c-.209-.037-.04-.069.374-.069.414-.005.578.027.374.069zm-11.518.325c-.683.123-2.114.272-3.161.325l-1.915.096 2.413-.32c2.927-.395 4.598-.453 2.663-.101zm-1.955 1.275c-.12.048-.334.048-.499 0s-.075-.091.209-.091c.279 0 .404.043.289.091zm39.791 1.189c-.165.128-.424.197-.583.155-.155-.043-1.132.053-2.179.213-1.042.16-2.942.325-4.224.363l-2.329.069 2.578-.256c1.411-.144 3.441-.368 4.493-.496 2.708-.341 2.623-.341 2.244-.048zm-10.73 2.138c0 .176-.489.267-.578.107-.055-.096.055-.176.239-.176.185-.005.339.032.339.069zm5.949 1.109a1.198 1.198 0 0 1-.583 0c-.159-.043-.025-.08.289-.08.319 0 .454.037.294.08zm-1.332.176a1.198 1.198 0 0 1-.583 0c-.16-.043-.025-.08.289-.08.319 0 .454.037.294.08zm-1.411.187a3.134 3.134 0 0 1-.833 0c-.254-.037-.09-.069.374-.069s.663.032.459.069zm-1.915.181c-.249.037-.663.037-.913 0s-.04-.069.459-.069c.494-.005.703.032.454.069zm3.501.688c-.135.139-3.077.603-3.839.608-1.142.005-.633-.32.683-.437a43.06 43.06 0 0 0 1.616-.165c.608-.101 1.636-.107 1.541-.005zm-3.127 1.856c-.763.448-1.047.443-.414-.005.284-.203.608-.352.748-.347.135.011-.02.171-.334.352z" style="fill:var(--color2, #fff)"/>
    </symbol>
    <symbol id="icon-close" viewBox="0 0 32 32">
      <path d="m2.869 0 29.13 29.916L29.13 32 0 2.084 2.869 0z"/>
      <path d="M29.131 0 .001 29.916 2.87 32 32 2.084 29.131 0z"/>
    </symbol>
  </defs>
</svg>
