<svg width="306" height="312" viewBox="0 0 306 312" fill="none" xmlns="http://www.w3.org/2000/svg">
<rect x="2.5" y="2.5" width="301" height="307" rx="29.5" stroke="black" stroke-width="5"/>
<g clip-path="url(#clip0_85_5744)">
<path d="M141.272 206.716C144.271 209.584 148.417 211.358 152.998 211.358C157.575 211.358 161.715 209.588 164.715 206.726L211.579 161.993C218.048 155.816 218.048 145.802 211.579 139.626C205.107 133.449 194.617 133.449 188.147 139.626L169.568 157.361L169.567 53.2022C169.567 44.4663 162.15 37.3867 152.999 37.3867C143.848 37.3867 136.43 44.4663 136.43 53.2022V157.358L117.852 139.626C111.382 133.449 100.89 133.448 94.4201 139.624C87.9501 145.801 87.9495 155.815 94.4201 161.992L141.272 206.716Z" fill="url(#paint0_linear_85_5744)"/>
<path d="M260.696 195.542C251.545 195.542 244.126 202.624 244.126 211.358V242.99H61.8706V211.358C61.8706 202.624 54.4528 195.542 45.302 195.542C36.1512 195.542 28.7329 202.624 28.7329 211.358V258.805C28.7329 267.54 36.1512 274.621 45.302 274.621H260.696C269.846 274.621 277.264 267.54 277.264 258.805V211.358C277.264 202.624 269.846 195.542 260.696 195.542Z" fill="url(#paint1_linear_85_5744)"/>
<path d="M135.799 211.928C140.391 216.319 146.499 218.738 152.999 218.738C159.489 218.738 165.592 216.325 170.185 211.943L217.049 167.209C226.523 158.164 226.523 143.447 217.048 134.401C212.458 130.02 206.355 127.607 199.863 127.607C193.372 127.607 187.269 130.02 182.679 134.402L177.303 139.534L177.302 53.1988C177.302 40.4073 166.4 30 153 30C139.599 30 128.696 40.4073 128.696 53.1988V139.531L123.321 134.402C118.731 130.02 112.627 127.606 106.135 127.606C99.6434 127.606 93.541 130.019 88.9509 134.4C79.4747 143.445 79.4747 158.163 88.9509 167.208L135.799 211.928ZM99.8894 144.841C100.708 144.056 101.681 143.433 102.753 143.009C103.825 142.586 104.975 142.369 106.135 142.372C108.496 142.372 110.714 143.249 112.384 144.843L130.961 162.575C132.043 163.607 133.422 164.31 134.922 164.595C136.422 164.88 137.977 164.734 139.39 164.175C140.804 163.616 142.011 162.67 142.861 161.456C143.711 160.242 144.165 158.815 144.165 157.355V53.1988C144.165 48.5491 148.128 44.7656 153 44.7656C157.87 44.7656 161.834 48.5491 161.834 53.1988L161.835 157.358C161.835 158.818 162.288 160.246 163.138 161.46C163.988 162.674 165.196 163.62 166.609 164.179C168.023 164.738 169.578 164.884 171.078 164.599C172.578 164.314 173.957 163.611 175.038 162.578L193.617 144.843C194.436 144.057 195.409 143.435 196.481 143.011C197.553 142.587 198.703 142.37 199.863 142.373C202.224 142.373 204.442 143.25 206.11 144.842C209.555 148.131 209.555 153.481 206.111 156.769L159.249 201.501C158.43 202.286 157.456 202.909 156.383 203.334C155.311 203.758 154.16 203.975 152.999 203.972C151.836 203.975 150.684 203.757 149.61 203.331C148.536 202.906 147.561 202.28 146.742 201.492L99.8894 156.768C96.445 153.48 96.445 148.129 99.8894 144.841Z" fill="black" stroke="#E59FB8" stroke-width="5"/>
<path d="M236.394 237.604H238.394V235.604V211.355C238.394 199.755 248.312 190.156 260.697 190.156C273.082 190.156 283 199.755 283 211.355V258.802C283 270.402 273.082 280 260.697 280H45.3035C32.9182 280 23 270.402 23 258.802V211.355C23 199.755 32.9183 190.156 45.3035 190.156C57.6881 190.156 67.6064 199.755 67.6064 211.355V235.604V237.604H69.6064H236.394ZM260.697 269.235C266.584 269.235 271.531 264.643 271.531 258.802V211.355C271.531 205.514 266.585 200.922 260.698 200.922C254.811 200.922 249.863 205.514 249.863 211.355V242.986C249.863 245.873 247.384 248.369 244.128 248.369H61.872C58.6165 248.369 56.1377 245.873 56.1377 242.986V211.355C56.1377 205.514 51.1906 200.922 45.3035 200.922C39.4159 200.922 34.4688 205.514 34.4688 211.355V258.802C34.4688 264.643 39.416 269.235 45.3035 269.235H260.697Z" fill="black" stroke="#E59FB8" stroke-width="4"/>
</g>
<defs>
<linearGradient id="paint0_linear_85_5744" x1="152.439" y1="187.098" x2="152.439" y2="56.8085" gradientUnits="userSpaceOnUse">
<stop stop-color="#2BD639"/>
<stop offset="1" stop-color="#18591E"/>
</linearGradient>
<linearGradient id="paint1_linear_85_5744" x1="150.192" y1="236.426" x2="152.75" y2="274.638" gradientUnits="userSpaceOnUse">
<stop stop-color="#00D8E0"/>
<stop offset="1" stop-color="#00767A"/>
</linearGradient>
<clipPath id="clip0_85_5744">
<rect width="264" height="252" fill="white" transform="translate(21 30)"/>
</clipPath>
</defs>
</svg>
