<svg width="306" height="312" viewBox="0 0 306 312" fill="none" xmlns="http://www.w3.org/2000/svg">
<rect x="2.5" y="2.5" width="301" height="307" rx="29.5" stroke="black" stroke-width="5"/>
<path d="M148.005 261.774H30.0113C27.1632 261.774 24.8545 259.571 24.8545 256.852V77.6214C24.8545 74.903 27.1632 72.6995 30.0113 72.6995H148.005C150.853 72.6995 153.162 74.903 153.162 77.6214V256.852C153.162 259.57 150.853 261.774 148.005 261.774Z" fill="#F0E1EE"/>
<path d="M153.162 77.6197V244.73C153.162 247.448 150.853 249.652 148.005 249.652H42.6363C39.7882 249.652 37.4795 247.448 37.4795 244.73V77.6197C37.4795 74.9013 39.7882 72.6978 42.6363 72.6978H148.005C150.853 72.6978 153.162 74.9013 153.162 77.6197Z" fill="#F0E1EE"/>
<path d="M189.02 242.27H50.3697C47.5216 242.27 45.2129 240.066 45.2129 237.348V58.1175C45.2129 55.3991 47.5216 53.1956 50.3697 53.1956H189.02C191.868 53.1956 194.177 55.3991 194.177 58.1175V237.348C194.177 240.066 191.868 242.27 189.02 242.27Z" fill="#F0E1EE"/>
<path d="M194.18 58.119V225.229C194.18 227.948 191.871 230.151 189.023 230.151H62.9913C60.1432 230.151 57.8345 227.948 57.8345 225.229V58.119C57.8345 55.4006 60.1432 53.197 62.9913 53.197H189.023C191.871 53.197 194.18 55.4006 194.18 58.119Z" fill="#F0E1EE"/>
<path d="M65.5698 217.847V38.6136C65.5698 35.8952 67.8785 33.6917 70.7266 33.6917H209.377C212.225 33.6917 214.534 35.8952 214.534 38.6136V217.847C214.534 220.565 212.225 222.769 209.377 222.769H70.7266C67.879 222.769 65.5698 220.565 65.5698 217.847Z" fill="#F0E1EE"/>
<path d="M154.362 100.236H195.188C195.871 100.236 196.527 99.9768 197.011 99.5153C197.494 99.0538 197.766 98.4278 197.766 97.7751V58.6407C197.766 57.988 197.494 57.362 197.011 56.9005C196.527 56.439 195.871 56.1797 195.188 56.1797H154.362C153.678 56.1797 153.022 56.439 152.539 56.9005C152.055 57.362 151.783 57.988 151.783 58.6407V97.7751C151.783 98.4278 152.055 99.0538 152.539 99.5153C153.022 99.9768 153.678 100.236 154.362 100.236Z" fill="url(#paint0_linear_85_5755)"/>
<path d="M164.674 100.238H154.36C152.937 100.238 151.782 99.1353 151.782 97.7768V58.6424C151.782 57.2839 152.937 56.1814 154.36 56.1814H164.674C163.251 56.1814 162.096 57.2839 162.096 58.6424V97.7768C162.096 99.1353 163.251 100.238 164.674 100.238Z" fill="#ECC52E"/>
<path d="M135.023 97.9582H82.3349C80.1984 97.9582 78.4673 96.3059 78.4673 94.2668C78.4673 92.2276 80.1984 90.5753 82.3349 90.5753H135.023C137.16 90.5753 138.891 92.2276 138.891 94.2668C138.891 96.3059 137.16 97.9582 135.023 97.9582ZM166.636 129.165H113.469C111.333 129.165 109.601 127.513 109.601 125.474C109.601 123.435 111.333 121.782 113.469 121.782H166.636C168.772 121.782 170.504 123.435 170.504 125.474C170.504 127.513 168.772 129.165 166.636 129.165ZM135.023 81.8964H82.3349C80.1984 81.8964 78.4673 80.2441 78.4673 78.2049C78.4673 76.1658 80.1984 74.5135 82.3349 74.5135H135.023C137.16 74.5135 138.891 76.1658 138.891 78.2049C138.891 80.2441 137.16 81.8964 135.023 81.8964ZM135.023 65.8346H82.3349C80.1984 65.8346 78.4673 64.1823 78.4673 62.1431C78.4673 60.104 80.1984 58.4517 82.3349 58.4517H135.023C137.16 58.4517 138.891 60.104 138.891 62.1431C138.891 64.1823 137.16 65.8346 135.023 65.8346ZM161.675 170.009H82.3349C80.1984 170.009 78.4673 168.356 78.4673 166.317C78.4673 164.278 80.1984 162.626 82.3349 162.626H161.675C163.811 162.626 165.542 164.278 165.542 166.317C165.542 168.356 163.811 170.009 161.675 170.009ZM145.082 149.358H82.3349C80.1984 149.358 78.4673 147.705 78.4673 145.666C78.4673 143.627 80.1984 141.975 82.3349 141.975H145.082C147.218 141.975 148.949 143.627 148.949 145.666C148.949 147.705 147.218 149.358 145.082 149.358ZM198.01 149.358H161.846C159.71 149.358 157.979 147.705 157.979 145.666C157.979 143.627 159.71 141.975 161.846 141.975H198.01C200.146 141.975 201.877 143.627 201.877 145.666C201.877 147.705 200.146 149.358 198.01 149.358Z" fill="#B4D2D7"/>
<path d="M228.534 191.557C231.382 191.557 233.691 193.76 233.691 196.479V199.821C233.691 212.49 222.97 222.767 209.743 222.767L131.552 225.228L89.0376 222.767C102.265 222.767 112.991 212.49 112.991 199.821V196.479C112.991 193.76 115.3 191.557 118.148 191.557H228.534ZM214.533 160.317V191.557H160.789C170.087 172.642 190.126 160.273 212.311 160.273C213.053 160.273 213.796 160.287 214.533 160.317Z" fill="#F0E1EE"/>
<path d="M194.176 191.559V225.23C194.176 227.947 191.866 230.152 189.02 230.152H157.708C157.13 228.291 156.661 226.391 156.295 224.452C155.696 221.302 155.387 218.053 155.387 214.741C155.387 208.544 156.465 202.461 158.6 196.658C159.244 194.91 159.971 193.212 160.786 191.559H194.176Z" fill="#B4D2D7"/>
<path d="M251.608 238.738L277.786 260.971C282.125 265.055 282.284 271.565 278.142 275.482C274.005 279.395 267.153 279.232 262.857 275.119L236.71 252.766L251.608 238.738Z" fill="#F3D332"/>
<path d="M259.375 245.336C255.418 250.894 250.422 255.709 244.638 259.541L236.712 252.768L251.609 238.736L259.375 245.336Z" fill="#ECC52E"/>
<path d="M194.177 225.229V237.346C194.177 240.063 191.866 242.268 189.02 242.268H163.21C160.884 238.498 159.028 234.433 157.708 230.15H189.02C191.866 230.15 194.177 227.945 194.177 225.229Z" fill="#F0E1EE"/>
<path d="M165.699 214.743C165.699 209.546 166.627 204.558 168.333 199.919C174.716 182.562 191.994 170.121 212.306 170.121C238.046 170.121 258.913 190.099 258.913 214.743C258.913 239.386 238.046 259.365 212.306 259.365C186.566 259.365 165.699 239.387 165.699 214.743Z" fill="#5A82D4"/>
<path d="M248.008 243.416C239.468 253.167 226.643 259.363 212.307 259.363C186.565 259.363 165.7 239.385 165.7 214.741C165.7 209.543 166.629 204.557 168.33 199.916C171.486 191.337 177.308 183.959 184.842 178.693C181.239 182.795 178.441 187.483 176.581 192.533C174.88 197.175 173.951 202.16 173.951 207.358C173.951 232.002 194.816 251.981 220.558 251.981C230.82 251.981 240.309 248.801 248.008 243.416Z" fill="#5E7DB9"/>
<path d="M183.209 214.742C183.205 211.59 183.761 208.461 184.854 205.487C188.839 194.649 199.626 186.882 212.308 186.882C228.38 186.882 241.408 199.355 241.408 214.742C241.408 230.128 228.38 242.602 212.308 242.602C196.237 242.602 183.209 230.128 183.209 214.742Z" fill="#F0E1EE"/>
<path d="M237.356 228.92C232.292 237.11 222.969 242.598 212.309 242.598C196.236 242.598 183.21 230.126 183.21 214.74C183.21 211.496 183.787 208.381 184.855 205.487C187.139 199.288 191.643 194.057 197.571 190.716C196.607 192.266 195.803 193.915 195.168 195.643C194.075 198.616 193.519 201.745 193.523 204.896C193.523 220.282 206.549 232.754 222.623 232.754C228.002 232.754 233.035 231.356 237.356 228.92Z" fill="#F0E1EE"/>
<path d="M154.378 103.927H195.204C198.758 103.927 201.65 101.168 201.65 97.7749V58.6415C201.65 55.2488 198.758 52.489 195.204 52.489H154.378C150.824 52.489 147.932 55.2488 147.932 58.6415V67.9006C147.932 69.9398 149.663 71.5921 151.8 71.5921C153.936 71.5921 155.667 69.9398 155.667 67.9006V59.8719H193.915V96.5449H155.667V85.662C155.667 83.6228 153.936 81.9705 151.8 81.9705C149.663 81.9705 147.932 83.6228 147.932 85.662V97.7754C147.932 101.168 150.824 103.927 154.378 103.927ZM82.3471 97.9615H135.036C137.172 97.9615 138.903 96.3092 138.903 94.27C138.903 92.2309 137.172 90.5785 135.036 90.5785H82.3471C80.2106 90.5785 78.4795 92.2309 78.4795 94.27C78.4795 96.3092 80.2111 97.9615 82.3471 97.9615ZM170.516 125.477C170.516 123.438 168.785 121.786 166.648 121.786H113.481C111.345 121.786 109.614 123.438 109.614 125.477C109.614 127.516 111.345 129.169 113.481 129.169H166.648C167.674 129.169 168.658 128.78 169.383 128.087C170.108 127.395 170.516 126.456 170.516 125.477ZM82.3471 81.8997H135.036C137.172 81.8997 138.903 80.2474 138.903 78.2082C138.903 76.169 137.172 74.5167 135.036 74.5167H82.3471C80.2106 74.5167 78.4795 76.169 78.4795 78.2082C78.4795 80.2474 80.2111 81.8997 82.3471 81.8997ZM82.3471 65.8378H135.036C137.172 65.8378 138.903 64.1855 138.903 62.1464C138.903 60.1072 137.172 58.4549 135.036 58.4549H82.3471C80.2106 58.4549 78.4795 60.1072 78.4795 62.1464C78.4795 64.1855 80.2111 65.8378 82.3471 65.8378ZM82.3471 170.012H161.687C163.823 170.012 165.554 168.36 165.554 166.321C165.554 164.281 163.823 162.629 161.687 162.629H82.3471C80.2106 162.629 78.4795 164.281 78.4795 166.321C78.4795 168.36 80.2111 170.012 82.3471 170.012ZM82.3471 149.361H145.094C147.23 149.361 148.961 147.709 148.961 145.67C148.961 143.63 147.23 141.978 145.094 141.978H82.3471C80.2106 141.978 78.4795 143.63 78.4795 145.67C78.4795 147.709 80.2111 149.361 82.3471 149.361ZM198.022 141.978H161.859C159.722 141.978 157.991 143.63 157.991 145.67C157.991 147.709 159.722 149.361 161.859 149.361H198.022C200.158 149.361 201.89 147.709 201.89 145.67C201.89 143.63 200.158 141.978 198.022 141.978Z" fill="black"/>
<path d="M280.514 258.342C280.467 258.298 280.419 258.255 280.369 258.213L256.569 238C260.33 231.461 262.476 224.133 262.761 216.496C262.798 215.518 262.425 214.566 261.726 213.849C261.027 213.133 260.059 212.71 259.034 212.675C256.895 212.615 255.107 214.196 255.03 216.233C254.445 237.978 235.148 255.889 212.319 255.672C188.753 255.672 169.58 237.31 169.58 214.742C169.223 192.624 189.177 173.499 212.319 173.812C230.348 173.812 246.529 184.731 252.584 200.982C252.932 201.899 253.646 202.648 254.57 203.064C255.494 203.48 256.553 203.53 257.516 203.203C258.479 202.877 259.267 202.2 259.709 201.32C260.15 200.44 260.209 199.43 259.872 198.509C253.412 181.172 237.188 168.978 218.413 166.786V36.1524C218.413 32.7597 215.521 30 211.967 30H68.1593C64.6048 30 61.7134 32.7597 61.7134 36.1524V49.5042H47.8029C44.2483 49.5042 41.3569 52.264 41.3569 55.6567V69.008H27.446C23.8914 69.008 21 71.7677 21 75.1604V259.313C21 262.706 23.8914 265.466 27.446 265.466H150.597C154.151 265.466 157.043 262.706 157.043 259.313V245.962H173.833C183.098 256.411 196.913 263.055 212.32 263.055C220.786 263.055 228.96 261.057 236.232 257.304L260.214 277.804C265.916 283.196 275.155 283.493 280.877 278.104C286.602 272.881 286.256 263.507 280.514 258.342ZM69.4485 37.3829H210.677V166.46C194.24 166.971 179.302 175.129 170.375 187.868H154.672C152.535 187.868 150.804 189.521 150.804 191.56C150.804 193.599 152.535 195.251 154.672 195.251H166.123C165.602 196.381 165.126 197.53 164.697 198.695C162.804 203.841 161.845 209.24 161.845 214.742C161.845 216.202 161.917 217.647 162.051 219.075H108.244C113.552 214.221 116.869 207.387 116.869 199.82V195.252H137.908C140.044 195.252 141.776 193.599 141.776 191.56C141.776 189.521 140.044 187.869 137.908 187.869H113.001C112.493 187.869 111.99 187.964 111.521 188.15C111.052 188.335 110.625 188.607 110.266 188.95C109.907 189.293 109.622 189.7 109.428 190.147C109.234 190.595 109.134 191.075 109.134 191.56V199.82C109.134 210.437 100.125 219.075 89.0521 219.075H69.4485V37.3829ZM49.0921 238.578V188.118C49.0921 186.079 47.361 184.426 45.2245 184.426C43.0881 184.426 41.3569 186.079 41.3569 188.118V239.809C41.3569 243.201 44.2483 245.961 47.8029 245.961H149.308V258.082H28.7352V76.3909H41.3569V172.515C41.3569 174.554 43.0881 176.206 45.2245 176.206C47.361 176.206 49.0921 174.554 49.0921 172.515V56.8872H61.7139V222.766C61.7139 224.806 63.445 226.458 65.5815 226.458H163.35C164.458 230.7 166.167 234.778 168.43 238.579H49.0921V238.578ZM275.432 272.86C272.756 275.406 268.216 275.146 265.45 272.368L242.957 253.14C246.458 250.573 249.596 247.585 252.294 244.251L275.147 263.659C277.784 266.083 278.09 270.417 275.432 272.86Z" fill="black"/>
<path d="M212.321 183.19C194.474 182.948 179.082 197.692 179.353 214.742C179.353 232.14 194.143 246.293 212.321 246.293C230.498 246.293 245.288 232.14 245.288 214.742C245.288 197.345 230.498 183.19 212.321 183.19ZM212.321 238.91C198.408 238.91 187.089 228.068 187.089 214.742C186.877 201.683 198.658 190.388 212.321 190.573C226.233 190.573 237.552 201.414 237.552 214.742C237.552 228.068 226.234 238.91 212.321 238.91Z" fill="black"/>
<defs>
<linearGradient id="paint0_linear_85_5755" x1="162.388" y1="76.9218" x2="193.869" y2="76.9218" gradientUnits="userSpaceOnUse">
<stop stop-color="#ECC52E"/>
<stop offset="1" stop-color="#FAE05A"/>
</linearGradient>
</defs>
</svg>
