<svg width="306" height="312" viewBox="0 0 306 312" fill="none" xmlns="http://www.w3.org/2000/svg">
<rect x="2.5" y="2.5" width="301" height="307" rx="29.5" stroke="black" stroke-width="5"/>
<path d="M251.454 107.118L184.516 100.934L157.927 39.4379C156.065 35.1317 149.935 35.1317 148.073 39.4379L121.484 100.934L54.5456 107.118C49.858 107.551 47.9642 113.357 51.5008 116.452L102.005 160.642L87.2248 225.96C86.1899 230.534 91.1492 234.122 95.1963 231.729L152.999 197.544L210.802 231.729C214.85 234.122 219.809 230.534 218.774 225.96L203.993 160.642L254.498 116.452C258.035 113.357 256.141 107.551 251.454 107.118Z" fill="url(#paint0_linear_85_5732)"/>
<path d="M84.5703 37.3209C87.9827 42.0421 97.6145 62.3158 103.121 74.1312C103.987 75.9888 101.647 77.6665 100.153 76.2594C90.65 67.3101 74.4012 51.7807 70.9893 47.06C68.289 43.3244 69.1408 38.1159 72.8909 35.4275C76.6405 32.7374 81.87 33.5853 84.5703 37.3209ZM221.43 37.3209C218.018 42.0421 208.386 62.3158 202.88 74.1312C202.014 75.9888 204.354 77.6665 205.848 76.2594C215.351 67.3101 231.599 51.7807 235.011 47.06C237.711 43.3244 236.86 38.1159 233.11 35.4275C229.359 32.7374 224.13 33.5853 221.43 37.3209ZM275.354 175.757C269.801 173.953 247.481 170.974 234.506 169.339C232.467 169.081 231.572 171.811 233.372 172.802C244.82 179.1 264.612 189.8 270.165 191.603C274.558 193.031 279.282 190.64 280.714 186.264C282.147 181.888 279.747 177.184 275.354 175.757ZM30.6464 175.757C36.1991 173.953 58.5189 170.974 71.4936 169.339C73.5334 169.081 74.4275 171.811 72.6274 172.802C61.1795 179.1 41.3879 189.8 35.8351 191.603C31.4415 193.031 26.7178 190.64 25.2854 186.264C23.852 181.888 26.2528 177.184 30.6464 175.757ZM144.889 269.814C144.889 263.997 148.966 241.938 151.428 229.146C151.815 227.134 154.698 227.134 155.085 229.146C157.548 241.938 161.625 263.997 161.625 269.814C161.625 274.417 157.878 278.149 153.256 278.149C148.635 278.148 144.889 274.417 144.889 269.814Z" fill="#FFF082"/>
<path d="M167.595 61.8008L157.927 39.4379C156.065 35.1317 149.935 35.1317 148.073 39.4379L121.484 100.934L54.5456 107.118C49.858 107.551 47.9642 113.357 51.5008 116.452L102.005 160.642L87.2248 225.96C86.1899 230.534 91.1492 234.122 95.1963 231.729L102.89 227.179C115.502 145.863 150.959 86.1716 167.595 61.8008Z" fill="#FFC850"/>
<path d="M208.271 162.026L257.05 119.345C259.866 116.882 260.895 113.146 259.738 109.597C258.58 106.047 255.542 103.628 251.81 103.283L187.158 97.3108L175.053 69.3111C174.852 68.8465 174.561 68.4258 174.197 68.0731C173.833 67.7205 173.403 67.4427 172.931 67.2556C172.459 67.0686 171.955 66.976 171.447 66.983C170.939 66.9901 170.438 67.0968 169.971 67.2969C169.03 67.701 168.287 68.4611 167.908 69.4101C167.529 70.3592 167.544 71.4194 167.949 72.3575L180.963 102.457C181.238 103.093 181.68 103.643 182.242 104.05C182.804 104.456 183.466 104.705 184.158 104.769L251.096 110.952C251.95 111.032 252.268 111.628 252.381 111.976C252.495 112.325 252.59 112.994 251.945 113.557L201.441 157.748C200.919 158.205 200.53 158.793 200.315 159.451C200.101 160.11 200.068 160.813 200.221 161.489L215.001 226.805C215.19 227.639 214.718 228.124 214.421 228.34C214.123 228.555 213.514 228.852 212.777 228.415L154.973 194.231C154.375 193.879 153.693 193.692 152.999 193.692C152.304 193.692 151.622 193.879 151.024 194.231L93.2219 228.416C92.4856 228.853 91.8761 228.556 91.5776 228.34C91.28 228.125 90.8088 227.639 90.997 226.807L98.6272 193.09C98.8527 192.094 98.6716 191.049 98.1236 190.185C97.5756 189.322 96.7057 188.71 95.7051 188.486C94.7046 188.261 93.6554 188.442 92.7884 188.987C91.9214 189.533 91.3076 190.4 91.082 191.396L83.4518 225.113C82.6279 228.754 84 232.379 87.0313 234.572C88.6669 235.756 90.5499 236.353 92.4438 236.353C94.0613 236.353 95.6866 235.917 97.1705 235.04L152.999 202.023L208.828 235.04C212.05 236.945 215.935 236.766 218.966 234.572C221.998 232.379 223.369 228.754 222.545 225.113L208.271 162.026Z" fill="black"/>
<path d="M48.949 119.345L97.728 162.026L94.5579 176.038C94.3325 177.034 94.5138 178.079 95.0619 178.942C95.6099 179.806 96.4799 180.417 97.4805 180.642C97.7605 180.705 98.0467 180.737 98.3338 180.737C99.2113 180.736 100.062 180.438 100.747 179.892C101.432 179.345 101.91 178.583 102.103 177.731L105.778 161.488C105.931 160.813 105.899 160.109 105.684 159.451C105.469 158.793 105.08 158.204 104.558 157.748L54.0542 113.557C53.4101 112.994 53.505 112.325 53.6179 111.976C53.7319 111.628 54.05 111.031 54.9034 110.952L121.841 104.769C122.533 104.705 123.194 104.456 123.757 104.05C124.319 103.643 124.761 103.093 125.035 102.457L151.626 40.9616C151.964 40.1774 152.633 40.0603 153 40.0603C153.368 40.0603 154.037 40.1774 154.375 40.9616L161.597 57.664C162.003 58.6023 162.766 59.3416 163.719 59.7193C164.672 60.097 165.737 60.0823 166.679 59.6782C167.621 59.2742 168.363 58.5139 168.742 57.5648C169.121 56.6157 169.107 55.5553 168.701 54.6171L161.479 37.9147C159.997 34.4867 156.748 32.3569 153 32.3569C149.253 32.3569 146.004 34.4861 144.522 37.9147L118.84 97.3107L54.1887 103.283C50.4572 103.628 47.4196 106.047 46.2615 109.597C45.104 113.146 46.1342 116.881 48.949 119.345Z" fill="black"/>
<path d="M104.479 85.5914C105.195 86.2552 106.137 86.6239 107.115 86.6231C107.762 86.623 108.398 86.4612 108.966 86.1525C109.534 85.8438 110.015 85.3981 110.366 84.8563C110.716 84.3144 110.924 83.6937 110.971 83.0509C111.018 82.4082 110.902 81.764 110.634 81.1774C108.811 77.1819 92.6782 41.9446 87.7086 35.0696C86.7731 33.7678 85.5876 32.6637 84.2208 31.8213C82.854 30.9788 81.333 30.4147 79.7458 30.1616C76.517 29.6377 73.283 30.3973 70.6306 32.3C65.1558 36.2262 63.9085 43.8556 67.8494 49.3091C72.8195 56.1846 101.254 82.602 104.479 85.5914ZM75.1496 38.5526C75.6283 38.2069 76.1713 37.9593 76.7469 37.8242C77.3225 37.6892 77.9193 37.6693 78.5027 37.7658C79.0865 37.8589 79.646 38.0664 80.1488 38.3762C80.6516 38.6861 81.0877 39.0922 81.4319 39.571C83.7708 42.8059 89.7103 54.8329 95.0856 66.1317C86.0323 57.469 76.4654 48.0442 74.1271 44.8093C72.6772 42.8033 73.1361 39.9967 75.1496 38.5526ZM196.628 85.8975C197.285 86.3698 198.076 86.6239 198.886 86.6236C199.864 86.6245 200.806 86.2558 201.522 85.5919C204.747 82.6025 233.18 56.1856 238.15 49.3106C242.092 43.8576 240.845 36.2277 235.369 32.3016C232.716 30.3993 229.478 29.6398 226.254 30.1636C224.667 30.4167 223.146 30.9807 221.779 31.8231C220.412 32.6655 219.227 33.7695 218.291 35.0712C213.322 41.9462 197.189 77.1834 195.366 81.1789C194.996 81.9895 194.92 82.9026 195.15 83.7629C195.38 84.6231 195.902 85.3774 196.628 85.8975ZM224.568 39.5715C224.913 39.0925 225.349 38.6862 225.851 38.3763C226.354 38.0663 226.914 37.8588 227.498 37.7658C228.081 37.6694 228.678 37.6893 229.253 37.8242C229.829 37.9592 230.372 38.2066 230.851 38.5521C232.864 39.9967 233.323 42.8033 231.873 44.8093C229.535 48.0442 219.967 57.4695 210.915 66.1322C216.291 54.8334 222.23 42.8069 224.568 39.5715ZM283.666 178.161C282.942 176.731 281.94 175.459 280.719 174.418C279.498 173.377 278.082 172.587 276.552 172.095V172.095C268.466 169.469 229.857 164.866 225.482 164.35C224.595 164.247 223.698 164.452 222.945 164.932C222.192 165.411 221.629 166.135 221.351 166.981C221.074 167.828 221.1 168.743 221.424 169.573C221.748 170.403 222.351 171.095 223.13 171.532C226.97 173.684 260.879 192.639 268.965 195.265C270.194 195.666 271.479 195.871 272.772 195.872C274.672 195.872 276.559 195.426 278.302 194.544C279.737 193.823 281.014 192.825 282.059 191.609C283.104 190.393 283.897 188.982 284.391 187.459C284.893 185.938 285.088 184.333 284.964 182.737C284.839 181.141 284.398 179.586 283.666 178.161ZM277.038 185.07C276.856 185.63 276.565 186.149 276.18 186.597C275.796 187.044 275.326 187.411 274.798 187.676C274.272 187.945 273.697 188.106 273.108 188.151C272.518 188.197 271.926 188.126 271.364 187.941C267.559 186.706 255.636 180.491 244.599 174.533C257.041 176.202 270.35 178.183 274.154 179.419C274.717 179.6 275.238 179.891 275.687 180.274C276.136 180.657 276.505 181.125 276.771 181.65C277.041 182.174 277.203 182.747 277.249 183.334C277.294 183.921 277.223 184.511 277.038 185.07ZM84.6489 166.982C84.3721 166.135 83.8091 165.41 83.0558 164.93C82.3026 164.45 81.4056 164.246 80.5177 164.351C76.1421 164.867 37.5333 169.469 29.4478 172.095V172.096C27.9182 172.588 26.5017 173.377 25.2806 174.418C24.0594 175.46 23.0578 176.732 22.3338 178.161C21.6017 179.586 21.1608 181.142 21.0364 182.738C20.9121 184.334 21.1068 185.939 21.6093 187.459C22.1035 188.983 22.8963 190.393 23.9416 191.61C24.987 192.826 26.2642 193.823 27.6993 194.545C29.4114 195.416 31.3063 195.871 33.2289 195.873C34.5218 195.872 35.8064 195.667 37.0352 195.266C45.1217 192.64 79.0302 173.686 82.8705 171.533C83.6492 171.096 84.2519 170.403 84.5761 169.574C84.9003 168.744 84.926 167.828 84.6489 166.982ZM34.636 187.942C34.0744 188.126 33.4817 188.197 32.8923 188.151C32.3029 188.106 31.7284 187.944 31.202 187.676C30.6742 187.411 30.2045 187.044 29.82 186.596C29.4355 186.149 29.1439 185.63 28.9621 185.07C28.7772 184.51 28.7056 183.92 28.7514 183.333C28.7971 182.746 28.9594 182.174 29.2287 181.649C29.4951 181.124 29.8636 180.656 30.3128 180.273C30.7619 179.89 31.2829 179.6 31.8455 179.418C35.6508 178.182 48.959 176.201 61.4005 174.532C50.3646 180.491 38.4413 186.706 34.636 187.942ZM153.256 215.959C152.362 215.959 151.496 216.267 150.805 216.832C150.113 217.396 149.64 218.182 149.464 219.055C148.6 223.358 141.021 261.344 141.021 269.814C141.021 276.534 146.51 282 153.256 282C160.003 282 165.491 276.533 165.491 269.814C165.491 261.343 157.912 223.358 157.048 219.055C156.873 218.182 156.399 217.396 155.708 216.831C155.017 216.267 154.15 215.958 153.256 215.959ZM153.256 274.297C150.775 274.297 148.755 272.286 148.755 269.814C148.755 265.828 150.991 252.611 153.256 240.313C155.521 252.611 157.757 265.828 157.757 269.814C157.757 272.286 155.738 274.297 153.256 274.297Z" fill="black"/>
<defs>
<linearGradient id="paint0_linear_85_5732" x1="143.006" y1="149.526" x2="197.331" y2="195.059" gradientUnits="userSpaceOnUse">
<stop stop-color="#FFC850"/>
<stop offset="1" stop-color="#FFF97B"/>
</linearGradient>
</defs>
</svg>
