<svg width="306" height="312" viewBox="0 0 306 312" fill="none" xmlns="http://www.w3.org/2000/svg">
<path d="M217.353 55.7203L252.885 224.479C255.857 238.592 246.826 252.438 232.713 255.412L135.89 275.798C121.78 278.768 107.931 269.739 104.96 255.626L69.4251 86.8673C66.4532 72.7546 75.4846 58.9084 89.5947 55.9365L186.42 35.5482C200.53 32.5788 214.381 41.6076 217.353 55.7203Z" fill="#F2DE96"/>
<path d="M249.805 243.18C247.958 246.292 245.485 248.986 242.541 251.09C239.598 253.195 236.249 254.665 232.708 255.407L135.89 275.798C121.77 278.775 107.936 269.744 104.957 255.621L69.4353 86.8773C68.3122 81.5764 68.8673 76.0573 71.0237 71.0863C73.1801 66.1153 76.8307 61.939 81.4687 59.1372C79.2718 69.5539 78.1688 80.1714 78.1775 90.8172C78.1775 175.574 146.868 244.264 231.599 244.264C237.684 244.268 243.764 243.905 249.805 243.18Z" fill="#C3AA8D"/>
<path d="M196.804 241.868C196.992 242.757 197.002 243.674 196.835 244.567C196.668 245.46 196.327 246.312 195.831 247.073C195.335 247.834 194.693 248.49 193.944 249.003C193.194 249.517 192.35 249.877 191.461 250.064L171.485 254.268C169.69 254.646 167.818 254.296 166.282 253.294C164.745 252.292 163.669 250.721 163.291 248.925C162.913 247.13 163.263 245.259 164.265 243.722C165.267 242.185 166.839 241.109 168.634 240.731L188.61 236.525C189.499 236.337 190.416 236.327 191.309 236.494C192.202 236.661 193.054 237.002 193.815 237.498C194.576 237.994 195.232 238.636 195.746 239.385C196.259 240.135 196.617 240.979 196.804 241.868ZM224.992 214.829L126.593 235.547C123.765 236.142 120.816 235.59 118.395 234.011C115.974 232.433 114.28 229.957 113.684 227.129L86.271 96.9268C85.6755 94.0988 86.2278 91.15 87.8065 88.7293C89.3851 86.3085 91.8608 84.614 94.6888 84.0185L193.088 63.3008C195.916 62.7053 198.865 63.2576 201.285 64.8363C203.706 66.4149 205.401 68.8906 205.996 71.7186L233.407 201.921C234.002 204.749 233.45 207.698 231.871 210.118C230.293 212.539 227.82 214.234 224.992 214.829Z" fill="white"/>
<path d="M233.595 204.946C233.432 207.305 232.505 209.548 230.953 211.334C229.402 213.119 227.311 214.351 224.997 214.842L126.598 235.544C123.769 236.142 120.819 235.592 118.396 234.015C115.972 232.439 114.274 229.965 113.674 227.137L86.2709 96.9168C85.9753 95.5177 85.9584 94.0742 86.221 92.6686C86.4837 91.263 87.0208 89.923 87.8016 88.7251C88.5825 87.5273 89.5918 86.495 90.7718 85.6874C91.9518 84.8798 93.2794 84.3127 94.6787 84.0185L98.7845 83.1536C96.4038 91.8971 95.2005 100.919 95.2067 109.981C95.2067 166.183 140.766 211.742 196.945 211.742C209.866 211.742 222.211 209.341 233.595 204.946Z" fill="#DDDDDD"/>
<path d="M130.454 278.252C125.081 278.252 119.821 276.701 115.218 273.696C112.131 271.696 109.473 269.103 107.395 266.068C105.317 263.033 103.862 259.617 103.114 256.016L67.5821 87.2569C66.814 83.6593 66.7671 79.9451 67.4443 76.3293C68.1214 72.7135 69.5091 69.268 71.5271 66.1922C73.528 63.1061 76.1211 60.4475 79.1564 58.3704C82.1917 56.2932 85.6088 54.8386 89.21 54.0909L186.033 33.7051C201.141 30.522 216.016 40.2272 219.196 55.333L254.73 224.092C257.911 239.198 248.208 254.077 233.103 257.255L136.277 277.644C134.363 278.048 132.411 278.251 130.454 278.252ZM191.805 36.8731C190.159 36.8731 188.487 37.0416 186.81 37.3936L89.9844 57.7794C83.656 59.112 78.2201 62.8331 74.685 68.2539C71.1499 73.6747 69.938 80.1465 71.2706 86.4775L106.805 255.236C107.452 258.353 108.711 261.31 110.508 263.936C112.306 266.563 114.606 268.807 117.277 270.538C119.938 272.284 122.919 273.485 126.048 274.071C129.177 274.657 132.39 274.617 135.503 273.953L232.328 253.567C245.397 250.814 253.793 237.941 251.04 224.869L215.508 56.1074C213.109 44.7127 203.014 36.8731 191.805 36.8731Z" fill="#0F0F0F"/>
<path d="M124.322 237.672C121.868 237.672 119.469 236.963 117.365 235.592C115.956 234.679 114.742 233.495 113.793 232.109C112.845 230.723 112.18 229.163 111.839 227.519L84.4254 97.3141C84.075 95.672 84.0537 93.9768 84.3627 92.3265C84.6717 90.6762 85.3049 89.1035 86.2256 87.6994C87.1395 86.2901 88.3238 85.0759 89.71 84.1273C91.0962 83.1787 92.6568 82.5145 94.3015 82.173L192.698 61.4553C196.015 60.7612 199.472 61.4108 202.311 63.2617C205.15 65.1126 207.139 68.0138 207.842 71.3289L235.255 201.534C235.605 203.176 235.627 204.871 235.318 206.521C235.009 208.172 234.375 209.744 233.455 211.148C232.541 212.558 231.356 213.772 229.97 214.72C228.584 215.669 227.023 216.333 225.379 216.675L126.982 237.392C126.108 237.578 125.216 237.671 124.322 237.672ZM195.336 64.9502C194.722 64.9502 194.099 65.0131 193.475 65.1463L95.0759 85.864C92.7392 86.3593 90.6943 87.761 89.3896 89.7618C88.085 91.7626 87.6271 94.1992 88.1164 96.5372L115.53 226.742C116.025 229.095 117.41 231.117 119.427 232.432C121.443 233.749 123.852 234.199 126.205 233.701L224.604 212.984C226.941 212.489 228.986 211.087 230.291 209.086C231.595 207.085 232.053 204.649 231.564 202.311L204.151 72.1058C203.722 70.0843 202.613 68.2708 201.009 66.9685C199.405 65.6661 197.402 64.9537 195.336 64.9502ZM170.042 256.305C168.352 256.305 166.698 255.817 165.25 254.872C164.28 254.243 163.444 253.428 162.791 252.475C162.138 251.521 161.681 250.447 161.446 249.315C160.967 247.031 161.414 244.649 162.689 242.694C163.964 240.739 165.963 239.369 168.247 238.886L188.223 234.68C189.354 234.439 190.522 234.425 191.658 234.638C192.795 234.851 193.878 235.287 194.845 235.922C195.815 236.55 196.651 237.365 197.304 238.319C197.957 239.273 198.414 240.346 198.649 241.478C199.135 243.781 198.695 246.132 197.407 248.103C196.778 249.074 195.963 249.909 195.009 250.562C194.055 251.215 192.98 251.673 191.848 251.907L171.872 256.114C171.27 256.241 170.657 256.305 170.042 256.305ZM190.038 238.262C189.696 238.262 189.347 238.298 189 238.371L169.021 242.577C167.706 242.853 166.58 243.625 165.846 244.752C165.111 245.878 164.86 247.221 165.136 248.536C165.413 249.851 166.185 250.98 167.311 251.714C168.438 252.448 169.785 252.694 171.095 252.423L191.071 248.216C192.376 247.94 193.518 247.157 194.246 246.04C194.975 244.923 195.231 243.563 194.958 242.258C194.72 241.129 194.101 240.116 193.205 239.388C192.31 238.661 191.192 238.265 190.038 238.262ZM125.046 64.9301C124.58 64.9294 124.131 64.7561 123.785 64.4436C123.439 64.131 123.221 63.7015 123.173 63.2378C123.125 62.774 123.251 62.3091 123.526 61.9325C123.801 61.556 124.205 61.2947 124.662 61.1989L127.835 60.5301C128.322 60.4313 128.83 60.5295 129.245 60.8032C129.661 61.0769 129.952 61.5039 130.054 61.9911C130.156 62.4783 130.062 62.9862 129.791 63.4039C129.52 63.8217 129.095 64.1154 128.609 64.2211L125.436 64.8873C125.308 64.9151 125.177 64.9294 125.046 64.9301ZM136.174 62.5868C135.708 62.5861 135.259 62.4128 134.913 62.1002C134.567 61.7877 134.349 61.3582 134.301 60.8944C134.254 60.4307 134.379 59.9657 134.654 59.5892C134.929 59.2127 135.334 58.9513 135.79 58.8556L156.457 54.5033C156.947 54.4003 157.457 54.4959 157.876 54.7692C158.295 55.0424 158.588 55.4709 158.691 55.9604C158.794 56.4498 158.698 56.9602 158.425 57.3791C158.152 57.798 157.724 58.0913 157.234 58.1943L136.567 62.544C136.438 62.5719 136.306 62.5863 136.174 62.5868Z" fill="#0F0F0F"/>
<path d="M35.3691 54.1387C38.6583 53.4627 41.6753 51.8326 44.0434 49.4521C46.4179 47.0823 48.041 44.0651 48.7099 40.7778C48.7202 40.6923 48.7614 40.6136 48.8258 40.5564C48.8902 40.4993 48.9733 40.4678 49.0594 40.4678C49.1455 40.4678 49.2286 40.4993 49.293 40.5564C49.3574 40.6136 49.3986 40.6923 49.4089 40.7778C50.0785 44.0654 51.7026 47.0826 54.0779 49.4521C56.446 51.8328 59.4631 53.4629 62.7522 54.1387C62.8358 54.151 62.9121 54.193 62.9673 54.2569C63.0225 54.3208 63.0528 54.4025 63.0528 54.4869C63.0528 54.5714 63.0225 54.653 62.9673 54.7169C62.9121 54.7809 62.8358 54.8228 62.7522 54.8351C59.4681 55.5196 56.4555 57.1489 54.0849 59.5226C51.7143 61.8963 50.0891 64.911 49.4089 68.1961C49.3986 68.2815 49.3574 68.3603 49.293 68.4174C49.2286 68.4745 49.1455 68.5061 49.0594 68.5061C48.9733 68.5061 48.8902 68.4745 48.8258 68.4174C48.7614 68.3603 48.7202 68.2815 48.7099 68.1961C48.0417 64.9047 46.4114 61.8858 44.0258 59.5218C41.6666 57.1386 38.6543 55.5078 35.3691 54.8351" fill="#FFD9B0"/>
<path d="M62.7572 54.8252C59.4691 55.5082 56.4528 57.1387 54.0804 59.5156C51.708 61.8925 50.0832 64.9118 49.4063 68.2012C49.3908 68.2828 49.3472 68.3565 49.2832 68.4095C49.2192 68.4625 49.1387 68.4915 49.0556 68.4915C48.9724 68.4915 48.8919 68.4625 48.8279 68.4095C48.7639 68.3565 48.7203 68.2828 48.7048 68.2012C48.0779 65.0681 46.5738 62.1776 44.3677 59.8663C46.9245 59.3975 49.2456 58.0727 50.9496 56.1097C52.6535 54.1466 53.6388 51.6622 53.7434 49.0649C53.834 49.2007 53.9697 49.3365 54.0829 49.4496C56.4497 51.83 59.4677 53.4572 62.7572 54.1262C63.1418 54.2167 63.1418 54.7573 62.7572 54.8252Z" fill="#EDB57E"/>
<path d="M49.0595 70.3809C48.5418 70.3825 48.0397 70.2041 47.6392 69.8761C47.2388 69.5481 46.9649 69.091 46.8645 68.5832C46.2726 65.6523 44.8224 62.9637 42.6983 60.8593C40.6008 58.7339 37.9182 57.281 34.992 56.6856C34.5067 56.5865 34.0799 56.3005 33.8037 55.8893C33.5275 55.4781 33.4242 54.9748 33.5161 54.4881C33.4242 54.0014 33.5275 53.498 33.8037 53.0869C34.0799 52.6757 34.5067 52.3897 34.992 52.2906C37.9201 51.6907 40.6056 50.2386 42.7109 48.1169C44.8238 46.0103 46.2678 43.3269 46.862 40.4031C46.9608 39.8929 47.2342 39.4332 47.6352 39.1028C48.0362 38.7724 48.5399 38.5921 49.0595 38.5928H49.062C50.1356 38.5953 51.0357 39.337 51.2544 40.398C51.849 43.325 53.2949 46.0112 55.4105 48.1194C57.5162 50.2401 60.2016 51.6912 63.1294 52.2906C63.6411 52.3868 64.1032 52.6587 64.4359 53.0593C64.7686 53.4599 64.951 53.964 64.9516 54.4848C64.9521 55.0055 64.7709 55.51 64.4392 55.9114C64.1074 56.3127 63.646 56.5857 63.1344 56.6831C60.208 57.2859 57.5226 58.7339 55.411 60.8478C53.2993 62.9616 51.8541 65.6485 51.2544 68.5756C51.1557 69.0844 50.8828 69.5429 50.4827 69.8724C50.0826 70.2018 49.5803 70.3816 49.062 70.3809H49.0595ZM40.184 54.4856C42.1077 55.4202 43.8589 56.6742 45.3635 58.1941C46.8811 59.6984 48.1317 61.4499 49.062 63.3736C50.9299 59.4929 54.0588 56.3604 57.9374 54.4881C56.012 53.5534 54.2569 52.3024 52.7454 50.7871C51.235 49.2795 49.989 47.5286 49.0595 45.6076C48.1311 47.5286 46.8859 49.2796 45.376 50.7871C43.8646 52.3019 42.1096 53.5521 40.184 54.4856Z" fill="#0F0F0F"/>
<path d="M268.549 265.975C268.549 268.46 267.562 270.844 265.804 272.602C264.046 274.359 261.663 275.347 259.177 275.347C256.691 275.347 254.308 274.359 252.55 272.602C250.792 270.844 249.805 268.46 249.805 265.975C249.806 264.744 250.049 263.525 250.521 262.388C250.992 261.251 251.684 260.218 252.555 259.348C253.426 258.479 254.46 257.789 255.598 257.319C256.736 256.849 257.955 256.608 259.186 256.609C261.669 256.61 264.05 257.596 265.806 259.352C267.562 261.108 268.548 263.492 268.549 265.975Z" fill="#00D8E0"/>
<path d="M268.549 265.97C268.549 268.454 267.564 270.838 265.809 272.597C264.054 274.356 261.673 275.347 259.188 275.353C257.259 275.35 255.377 274.753 253.797 273.645C252.218 272.536 251.017 270.969 250.358 269.155C252.012 270.164 253.937 270.635 255.87 270.506C257.803 270.377 259.648 269.654 261.153 268.434C262.659 267.215 263.75 265.561 264.278 263.697C264.805 261.833 264.744 259.852 264.101 258.025C265.46 258.859 266.582 260.027 267.361 261.418C268.14 262.809 268.547 264.376 268.549 265.97Z" fill="#00D8E0"/>
<path d="M259.186 277.239C256.2 277.235 253.337 276.047 251.225 273.935C249.114 271.824 247.926 268.961 247.922 265.975C247.927 262.99 249.116 260.13 251.228 258.02C253.339 255.911 256.201 254.725 259.186 254.723C262.168 254.727 265.028 255.913 267.136 258.022C269.245 260.131 270.431 262.99 270.435 265.972C270.435 272.183 265.389 277.239 259.186 277.239ZM259.186 258.495C257.201 258.495 255.298 259.282 253.893 260.684C252.488 262.086 251.697 263.988 251.693 265.972C251.696 267.959 252.486 269.863 253.891 271.267C255.295 272.672 257.2 273.462 259.186 273.465C261.171 273.465 263.076 272.676 264.479 271.272C265.883 269.868 266.672 267.964 266.672 265.979C266.672 263.993 265.883 262.089 264.479 260.685C263.076 259.281 261.171 258.495 259.186 258.495Z" fill="#0F0F0F"/>
<path d="M272.195 141.477C272.195 143.963 271.207 146.347 269.45 148.104C267.692 149.862 265.308 150.849 262.823 150.849C260.337 150.849 257.953 149.862 256.196 148.104C254.438 146.347 253.451 143.963 253.451 141.477C253.452 140.247 253.695 139.029 254.167 137.892C254.639 136.755 255.33 135.723 256.201 134.854C257.071 133.984 258.105 133.295 259.242 132.825C260.38 132.355 261.598 132.113 262.829 132.114C265.312 132.114 267.694 133.101 269.451 134.857C271.207 136.612 272.194 138.994 272.195 141.477Z" fill="#33D443"/>
<path d="M272.195 141.475C272.195 143.96 271.209 146.343 269.454 148.102C267.7 149.861 265.319 150.852 262.834 150.858C260.904 150.855 259.023 150.258 257.443 149.15C255.864 148.041 254.663 146.474 254.004 144.661C255.658 145.669 257.584 146.141 259.517 146.012C261.45 145.883 263.296 145.159 264.801 143.94C266.306 142.72 267.398 141.065 267.925 139.201C268.452 137.336 268.39 135.355 267.747 133.527C269.105 134.362 270.227 135.53 271.005 136.921C271.784 138.312 272.193 139.881 272.195 141.475Z" fill="#7FD685"/>
<path d="M262.831 152.744C259.845 152.741 256.981 151.553 254.869 149.441C252.757 147.33 251.569 144.467 251.565 141.48C251.57 138.495 252.759 135.634 254.872 133.525C256.984 131.415 259.846 130.23 262.831 130.229C265.814 130.232 268.673 131.418 270.782 133.527C272.891 135.636 274.077 138.495 274.08 141.477C274.08 147.688 269.034 152.741 262.831 152.741V152.744ZM262.831 134C260.846 133.999 258.942 134.786 257.537 136.188C256.132 137.59 255.34 139.492 255.336 141.477C255.339 143.464 256.13 145.369 257.535 146.773C258.94 148.178 260.845 148.968 262.831 148.97C264.817 148.97 266.721 148.181 268.125 146.777C269.529 145.373 270.318 143.469 270.318 141.484C270.318 139.498 269.529 137.594 268.125 136.19C266.721 134.786 264.817 134 262.831 134Z" fill="#0F0F0F"/>
<path d="M198.237 118.22C197.486 118.372 196.712 118.373 195.961 118.225C195.209 118.077 194.494 117.781 193.857 117.355C181.336 109.005 166.283 106.036 151.479 108.995C136.675 111.957 123.922 120.486 115.575 133.007C114.706 134.269 113.376 135.139 111.871 135.429C110.366 135.718 108.808 135.404 107.533 134.554C106.258 133.703 105.369 132.386 105.058 130.885C104.746 129.385 105.038 127.822 105.87 126.535C115.944 111.419 131.332 101.128 149.191 97.5554C167.052 93.9851 185.213 97.568 200.329 107.648C201.289 108.288 202.037 109.198 202.479 110.263C202.922 111.329 203.038 112.501 202.815 113.633C202.591 114.764 202.036 115.804 201.221 116.621C200.407 117.437 199.368 117.994 198.237 118.22Z" fill="#FF84A0"/>
<path d="M200.495 107.788C194.284 104.277 187.551 101.783 180.552 100.401C171.763 98.6701 162.718 98.6915 153.938 100.464C136.069 104.037 120.689 114.346 110.619 129.446C110.011 130.346 109.669 131.399 109.633 132.484C109.598 133.569 109.87 134.642 110.418 135.579C109.372 135.535 108.358 135.203 107.489 134.618C106.85 134.196 106.301 133.651 105.874 133.016C105.447 132.38 105.15 131.666 105 130.915C104.85 130.164 104.85 129.391 105 128.64C105.15 127.889 105.447 127.175 105.875 126.54C115.94 111.417 131.324 101.131 149.193 97.5578C157.972 95.7912 167.012 95.7622 175.802 97.4723C184.567 99.217 192.901 102.678 200.324 107.655C200.379 107.69 200.435 107.731 200.495 107.788Z" fill="#F76189"/>
<path d="M189.995 138.015C189.244 138.167 188.471 138.168 187.72 138.02C186.969 137.871 186.254 137.576 185.618 137.15C167.48 125.057 142.887 129.975 130.794 148.113C129.935 149.4 128.601 150.293 127.083 150.596C125.566 150.899 123.991 150.587 122.704 149.728C121.417 148.87 120.524 147.535 120.221 146.018C119.918 144.501 120.23 142.925 121.089 141.638C136.748 118.152 168.601 111.781 192.087 127.443C193.047 128.083 193.795 128.993 194.237 130.058C194.68 131.124 194.797 132.296 194.573 133.428C194.349 134.559 193.794 135.599 192.98 136.416C192.165 137.232 191.126 137.789 189.995 138.015Z" fill="#FF84A0"/>
<path d="M192.658 127.865C169.675 115.497 140.579 122.434 125.826 144.56C124.568 146.478 124.568 148.859 125.629 150.717C124.581 150.655 123.568 150.315 122.695 149.732C121.414 148.867 120.525 147.531 120.222 146.015C119.919 144.499 120.226 142.925 121.076 141.633C136.75 118.155 168.599 111.789 192.097 127.433C192.288 127.558 192.484 127.707 192.658 127.865Z" fill="#F76189"/>
<path d="M181.756 157.813C181.005 157.964 180.231 157.966 179.48 157.818C178.728 157.669 178.013 157.374 177.376 156.948C167 150.031 152.932 152.842 146.013 163.219C145.144 164.481 143.814 165.351 142.309 165.64C140.804 165.93 139.246 165.616 137.971 164.765C136.696 163.915 135.807 162.597 135.496 161.097C135.184 159.597 135.476 158.034 136.308 156.747C146.792 141.017 168.118 136.753 183.848 147.24C184.807 147.88 185.556 148.79 185.998 149.856C186.441 150.921 186.557 152.094 186.333 153.225C186.11 154.357 185.555 155.397 184.74 156.213C183.926 157.03 182.887 157.586 181.756 157.813Z" fill="#FF84A0"/>
<path d="M184.7 147.921C169.499 140.444 150.699 145.204 141.052 159.673C140.446 160.573 140.103 161.624 140.063 162.709C140.024 163.793 140.289 164.867 140.828 165.808C139.801 165.752 138.807 165.424 137.947 164.859C137.087 164.294 136.392 163.512 135.932 162.591C135.473 161.67 135.265 160.645 135.33 159.618C135.395 158.591 135.731 157.599 136.303 156.744C146.792 141.012 168.118 136.748 183.848 147.238C184.15 147.439 184.436 147.665 184.7 147.921Z" fill="#F76189"/>
<path d="M110.705 137.495C109.196 137.495 107.723 137.05 106.441 136.195C105.595 135.635 104.868 134.912 104.304 134.069C103.739 133.226 103.348 132.28 103.152 131.284C102.95 130.291 102.947 129.267 103.144 128.272C103.341 127.277 103.733 126.331 104.298 125.489C114.657 109.953 130.472 99.3782 148.826 95.7074C167.181 92.0365 185.844 95.7224 201.377 106.079C202.223 106.639 202.949 107.361 203.514 108.203C204.078 109.046 204.47 109.992 204.666 110.987C204.868 111.981 204.87 113.006 204.673 114.001C204.475 114.996 204.083 115.942 203.517 116.785C202.957 117.63 202.235 118.355 201.392 118.919C200.55 119.483 199.604 119.875 198.609 120.071C196.59 120.473 194.529 120.068 192.814 118.922C180.708 110.851 166.162 107.985 151.851 110.846C137.545 113.707 125.217 121.949 117.146 134.053C116.586 134.899 115.864 135.625 115.021 136.189C114.178 136.754 113.231 137.146 112.236 137.341C111.728 137.442 111.215 137.492 110.707 137.492L110.705 137.495ZM162.72 98.0959C158.351 98.0959 153.945 98.5284 149.563 99.4034C132.197 102.878 117.237 112.885 107.436 127.581C107.147 128.012 106.946 128.496 106.846 129.006C106.745 129.515 106.747 130.039 106.85 130.548C107.057 131.579 107.655 132.471 108.532 133.057C109.41 133.643 110.461 133.849 111.497 133.643C112.005 133.543 112.489 133.343 112.919 133.054C113.35 132.766 113.72 132.395 114.006 131.963C122.635 119.017 135.812 110.205 151.109 107.147C166.409 104.088 181.96 107.155 194.903 115.786C195.781 116.37 196.829 116.578 197.87 116.372C198.901 116.166 199.793 115.568 200.377 114.693C200.666 114.262 200.867 113.778 200.968 113.268C201.069 112.759 201.068 112.235 200.965 111.726C200.865 111.217 200.664 110.734 200.375 110.303C200.087 109.872 199.715 109.503 199.283 109.217C188.296 101.892 175.656 98.0959 162.72 98.0959Z" fill="#0F0F0F"/>
<path d="M125.924 152.596C124.415 152.596 122.942 152.153 121.66 151.298C120.814 150.739 120.088 150.017 119.523 149.174C118.959 148.332 118.567 147.385 118.371 146.39C118.169 145.397 118.166 144.373 118.363 143.378C118.56 142.383 118.952 141.437 119.517 140.595C127.369 128.816 139.363 120.795 153.284 118.012C167.206 115.228 181.356 118.022 193.136 125.874C193.981 126.434 194.706 127.156 195.271 127.999C195.835 128.841 196.226 129.787 196.422 130.782C196.623 131.776 196.626 132.801 196.428 133.796C196.231 134.791 195.838 135.737 195.273 136.58C194.713 137.425 193.991 138.151 193.148 138.715C192.306 139.279 191.36 139.67 190.365 139.866C189.371 140.067 188.347 140.07 187.352 139.873C186.358 139.676 185.412 139.284 184.57 138.719C167.296 127.204 143.878 131.886 132.363 149.159C131.803 150.004 131.081 150.73 130.238 151.294C129.396 151.858 128.45 152.249 127.455 152.445C126.951 152.546 126.438 152.596 125.924 152.596ZM163.824 120.735C160.568 120.735 157.287 121.056 154.023 121.71C141.09 124.295 129.949 131.745 122.655 142.687C122.367 143.117 122.166 143.601 122.066 144.109C121.965 144.618 121.967 145.141 122.069 145.649C122.278 146.685 122.874 147.575 123.751 148.161C124.626 148.744 125.677 148.95 126.716 148.746C127.224 148.646 127.708 148.446 128.139 148.158C128.569 147.869 128.938 147.499 129.225 147.067C141.897 128.066 167.658 122.912 186.664 135.582C187.094 135.87 187.578 136.07 188.086 136.171C188.595 136.271 189.118 136.27 189.626 136.167C190.659 135.961 191.552 135.363 192.135 134.488C192.425 134.057 192.626 133.573 192.727 133.063C192.828 132.554 192.827 132.03 192.723 131.521C192.623 131.012 192.422 130.529 192.134 130.098C191.845 129.667 191.474 129.298 191.041 129.012C182.99 123.616 173.516 120.736 163.824 120.735Z" fill="#0F0F0F"/>
<path d="M141.145 167.701C139.636 167.701 138.161 167.259 136.878 166.404C135.164 165.26 133.994 163.518 133.592 161.494C133.19 159.47 133.595 157.416 134.739 155.698C137.365 151.74 140.751 148.341 144.7 145.7C148.649 143.059 153.083 141.227 157.744 140.311C162.399 139.365 167.195 139.352 171.855 140.272C176.514 141.192 180.945 143.027 184.891 145.671C185.737 146.231 186.463 146.953 187.027 147.796C187.592 148.638 187.983 149.584 188.18 150.579C188.382 151.573 188.384 152.597 188.187 153.592C187.991 154.587 187.598 155.533 187.033 156.375C186.473 157.221 185.751 157.947 184.908 158.512C184.065 159.076 183.118 159.468 182.123 159.663C181.129 159.865 180.106 159.867 179.112 159.67C178.117 159.473 177.172 159.081 176.33 158.517C166.818 152.176 153.925 154.755 147.584 164.264C147.024 165.11 146.301 165.836 145.458 166.4C144.615 166.964 143.669 167.355 142.674 167.551C142.17 167.651 141.658 167.702 141.145 167.701ZM164.92 143.371C162.78 143.371 160.628 143.582 158.481 144.012C154.306 144.832 150.335 146.472 146.799 148.837C143.262 151.202 140.229 154.245 137.876 157.79C137.587 158.221 137.386 158.705 137.285 159.215C137.184 159.724 137.185 160.248 137.288 160.757C137.497 161.788 138.093 162.68 138.973 163.266C139.845 163.85 140.901 164.061 141.935 163.852C142.97 163.646 143.86 163.048 144.446 162.173C151.939 150.934 167.18 147.884 178.422 155.379C179.297 155.965 180.353 156.171 181.384 155.965C181.893 155.865 182.377 155.665 182.808 155.377C183.239 155.088 183.609 154.717 183.895 154.285C184.185 153.854 184.385 153.37 184.486 152.861C184.586 152.351 184.585 151.827 184.481 151.318C184.381 150.81 184.18 150.326 183.891 149.895C183.603 149.465 183.231 149.096 182.799 148.809C177.51 145.265 171.287 143.372 164.92 143.371Z" fill="#0F0F0F"/>
<path d="M205.197 190.529C206.005 194.405 205.243 198.444 203.077 201.76C200.901 205.069 197.501 207.38 193.623 208.186L156.9 215.83C154.98 216.229 153.001 216.247 151.076 215.881C149.15 215.516 147.315 214.774 145.675 213.7C144.036 212.625 142.624 211.238 141.521 209.618C140.417 207.998 139.644 206.176 139.244 204.257C138.436 200.38 139.198 196.341 141.364 193.025C143.54 189.716 146.94 187.405 150.818 186.599L187.541 178.955C189.46 178.556 191.439 178.539 193.365 178.904C195.291 179.27 197.126 180.011 198.766 181.085C200.405 182.16 201.817 183.547 202.92 185.167C204.024 186.788 204.797 188.609 205.197 190.529Z" fill="#C3C9FB"/>
<path d="M205.197 190.529C206.005 194.405 205.243 198.444 203.077 201.76C200.901 205.069 197.501 207.38 193.623 208.186L156.9 215.83C154.851 216.257 152.736 216.248 150.691 215.804C148.645 215.36 146.717 214.492 145.029 213.254C143.341 212.017 141.933 210.439 140.895 208.622C139.857 206.805 139.212 204.79 139.003 202.708C146.923 205.051 157.797 205.323 169.35 202.917C185.128 199.633 197.749 192.299 202.471 184.572C203.791 186.282 204.731 188.286 205.197 190.529Z" fill="#8693E2"/>
<path d="M205.197 190.529C206.005 194.405 205.243 198.444 203.077 201.76C200.901 205.069 197.501 207.38 193.623 208.186L192.517 208.418C190.598 208.817 188.618 208.835 186.692 208.47C184.765 208.104 182.93 207.363 181.29 206.288C179.65 205.213 178.239 203.825 177.135 202.205C176.032 200.584 175.258 198.762 174.859 196.842C174.052 192.966 174.815 188.928 176.981 185.613C179.157 182.304 182.556 179.993 186.433 179.187L187.539 178.955C189.458 178.556 191.437 178.538 193.364 178.903C195.29 179.269 197.125 180.01 198.765 181.084C200.405 182.159 201.817 183.546 202.92 185.167C204.024 186.787 204.797 188.609 205.197 190.529Z" fill="#FFD9B0"/>
<path d="M205.197 190.529C206.005 194.405 205.243 198.444 203.077 201.76C200.901 205.069 197.501 207.38 193.623 208.186L192.517 208.418C189.559 209.034 186.484 208.737 183.699 207.566C180.914 206.396 178.55 204.407 176.921 201.863C179.249 202.592 181.786 202.751 184.346 202.217L185.452 201.986C189.331 201.17 192.729 198.85 194.901 195.534C195.974 193.898 196.714 192.066 197.078 190.143C197.443 188.22 197.425 186.244 197.025 184.328C196.658 182.541 195.959 180.839 194.963 179.31C199.992 180.851 204.05 185.017 205.197 190.529Z" fill="#EDB57E"/>
<path d="M153.855 218.03C146.061 218.03 139.046 212.566 137.396 204.639C136.485 200.276 137.343 195.73 139.782 192C140.994 190.151 142.559 188.559 144.386 187.315C146.214 186.071 148.268 185.2 150.433 184.751L187.157 177.107C196.233 175.217 205.154 181.067 207.045 190.144C207.957 194.508 207.098 199.055 204.659 202.786C203.446 204.634 201.882 206.226 200.054 207.469C198.227 208.712 196.172 209.583 194.008 210.032L157.284 217.675C156.135 217.914 154.986 218.03 153.855 218.03ZM190.589 180.527C189.709 180.527 188.819 180.615 187.926 180.803L151.205 188.447C149.525 188.795 147.931 189.47 146.512 190.434C145.094 191.399 143.879 192.633 142.938 194.066C141.529 196.226 140.791 198.754 140.818 201.332C140.844 203.91 141.633 206.423 143.086 208.553C144.538 210.683 146.589 212.336 148.979 213.302C151.37 214.268 153.993 214.505 156.517 213.982L193.244 206.339C196.635 205.635 199.607 203.614 201.508 200.719C203.398 197.824 204.062 194.297 203.354 190.913C202.739 187.981 201.136 185.349 198.812 183.458C196.488 181.567 193.585 180.532 190.589 180.527Z" fill="#0F0F0F"/>
<path d="M189.47 210.618C181.675 210.618 174.661 205.154 173.011 197.227C172.101 192.864 172.96 188.317 175.4 184.587C176.611 182.739 178.175 181.147 180.002 179.903C181.829 178.66 183.884 177.788 186.048 177.339L187.154 177.107C196.226 175.222 205.156 181.067 207.045 190.144C207.957 194.508 207.098 199.055 204.659 202.786C203.446 204.634 201.882 206.226 200.054 207.469C198.227 208.712 196.172 209.583 194.008 210.032L192.902 210.263C191.75 210.502 190.601 210.618 189.47 210.618ZM190.586 180.527C189.706 180.527 188.816 180.615 187.923 180.803L186.817 181.032C185.137 181.38 183.543 182.056 182.124 183.021C180.706 183.985 179.491 185.22 178.55 186.654C177.139 188.813 176.399 191.343 176.424 193.922C176.449 196.502 177.238 199.016 178.692 201.147C180.145 203.278 182.198 204.931 184.59 205.896C186.982 206.861 189.607 207.096 192.132 206.57L193.239 206.339C194.918 205.991 196.513 205.315 197.931 204.351C199.35 203.387 200.564 202.153 201.506 200.719C203.396 197.824 204.06 194.297 203.351 190.913C202.737 187.981 201.133 185.349 198.809 183.458C196.485 181.567 193.582 180.532 190.586 180.527Z" fill="#0F0F0F"/>
<path d="M87.2918 272.107C112.523 272.107 132.976 251.654 132.976 226.423C132.976 201.192 112.523 180.738 87.2918 180.738C62.0609 180.738 41.6072 201.192 41.6072 226.423C41.6072 251.654 62.0609 272.107 87.2918 272.107Z" fill="#33D443"/>
<path d="M132.971 226.43C132.971 251.651 112.53 272.112 87.2917 272.112C72.6938 272.112 59.6899 265.266 51.3274 254.583C58.3457 258.731 66.3516 260.913 74.5041 260.899C99.745 260.899 120.184 240.457 120.184 215.217C120.184 204.574 116.546 194.796 110.446 187.026C123.922 194.972 132.971 209.65 132.971 226.43Z" fill="#7FD685"/>
<path d="M47.2919 270.626C46.8098 270.626 46.3462 270.441 45.997 270.108C40.0551 264.507 35.3188 257.753 32.078 250.258C31.9722 250.03 31.9132 249.783 31.9045 249.531C31.8957 249.28 31.9374 249.029 32.027 248.794C32.1166 248.559 32.2523 248.344 32.4262 248.162C32.6001 247.98 32.8087 247.835 33.0395 247.735C33.2704 247.635 33.519 247.582 33.7706 247.58C34.0222 247.577 34.2717 247.625 34.5045 247.721C34.7373 247.816 34.9486 247.957 35.1261 248.136C35.3035 248.314 35.4434 248.526 35.5376 248.759C38.5761 255.786 43.0163 262.119 48.5868 267.37C48.861 267.63 49.0512 267.965 49.1326 268.334C49.214 268.702 49.183 269.087 49.0435 269.437C48.9041 269.788 48.6626 270.089 48.3503 270.301C48.038 270.513 47.6693 270.626 47.2919 270.626ZM58.4277 278.898C58.0995 278.898 57.7771 278.812 57.4924 278.649C55.8552 277.711 54.2628 276.697 52.7202 275.61C52.3191 275.318 52.0487 274.881 51.9674 274.392C51.8862 273.903 52.0008 273.402 52.2863 272.997C52.5718 272.592 53.0053 272.315 53.493 272.227C53.9808 272.14 54.4836 272.247 54.8926 272.527C56.3392 273.547 57.8326 274.498 59.368 275.378C59.7279 275.585 60.0094 275.906 60.1687 276.289C60.328 276.673 60.3563 277.098 60.2491 277.499C60.1419 277.9 59.9053 278.255 59.5759 278.508C59.2466 278.761 58.843 278.898 58.4277 278.898ZM87.2917 273.995C61.0601 273.995 39.7214 252.654 39.7214 226.423C39.7214 200.191 61.0601 178.852 87.2917 178.852C113.523 178.852 134.862 200.191 134.862 226.423C134.862 252.654 113.523 273.995 87.2917 273.995ZM87.2917 182.624C63.142 182.624 43.4928 202.273 43.4928 226.423C43.4928 250.572 63.142 270.221 87.2917 270.221C111.441 270.221 131.091 250.572 131.091 226.423C131.091 202.273 111.444 182.624 87.2917 182.624Z" fill="#0F0F0F"/>
<path d="M87.2918 273.995C74.1672 273.995 63.8838 253.097 63.8838 226.423C63.8838 199.749 74.1672 178.852 87.2918 178.852C100.416 178.852 110.7 199.746 110.7 226.423C110.7 253.099 100.416 273.995 87.2918 273.995ZM87.2918 182.624C76.6488 182.624 67.6552 202.68 67.6552 226.423C67.6552 250.165 76.6488 270.221 87.2918 270.221C97.9348 270.221 106.928 250.165 106.928 226.423C106.928 202.68 97.9348 182.624 87.2918 182.624Z" fill="#0F0F0F"/>
<path d="M87.2917 273.995C86.7916 273.995 86.312 273.797 85.9583 273.443C85.6047 273.089 85.406 272.61 85.406 272.11V180.736C85.406 180.235 85.6047 179.756 85.9583 179.402C86.312 179.049 86.7916 178.85 87.2917 178.85C87.7918 178.85 88.2715 179.049 88.6251 179.402C88.9788 179.756 89.1774 180.235 89.1774 180.736V272.105C89.1774 272.605 88.9788 273.084 88.6251 273.438C88.2715 273.792 87.7918 273.99 87.2917 273.99V273.995Z" fill="#0F0F0F"/>
<path d="M132.976 228.308H41.6071C41.107 228.308 40.6274 228.11 40.2737 227.756C39.9201 227.402 39.7214 226.923 39.7214 226.423C39.7214 225.922 39.9201 225.443 40.2737 225.089C40.6274 224.736 41.107 224.537 41.6071 224.537H132.976C133.476 224.537 133.956 224.736 134.31 225.089C134.663 225.443 134.862 225.922 134.862 226.423C134.862 226.923 134.663 227.402 134.31 227.756C133.956 228.11 133.476 228.308 132.976 228.308Z" fill="#0F0F0F"/>
<path d="M69.5332 205.365C72.1562 205.365 74.2827 203.239 74.2827 200.616C74.2827 197.993 72.1562 195.866 69.5332 195.866C66.9101 195.866 64.7837 197.993 64.7837 200.616C64.7837 203.239 66.9101 205.365 69.5332 205.365Z" fill="white"/>
<path d="M69.5332 207.251C65.8749 207.251 62.8955 204.274 62.8955 200.613C62.8955 196.953 65.8749 193.981 69.5332 193.981C73.1915 193.981 76.1684 196.955 76.1684 200.616C76.1684 204.277 73.194 207.251 69.5332 207.251ZM69.5332 197.752C68.9663 197.752 68.4122 197.92 67.9408 198.235C67.4694 198.55 67.1021 198.998 66.8851 199.522C66.6682 200.045 66.6114 200.622 66.722 201.178C66.8326 201.734 67.1056 202.244 67.5065 202.645C67.9073 203.046 68.418 203.319 68.974 203.43C69.53 203.54 70.1064 203.483 70.6301 203.267C71.1538 203.05 71.6015 202.682 71.9165 202.211C72.2314 201.739 72.3995 201.185 72.3995 200.618C72.3995 199.858 72.0975 199.129 71.56 198.592C71.0225 198.054 70.2934 197.752 69.5332 197.752Z" fill="#0F0F0F"/>
<path d="M108.06 217.824C110.683 217.824 112.809 215.697 112.809 213.074C112.809 210.451 110.683 208.325 108.06 208.325C105.437 208.325 103.31 210.451 103.31 213.074C103.31 215.697 105.437 217.824 108.06 217.824Z" fill="white"/>
<path d="M108.06 219.712C104.401 219.712 101.422 216.735 101.422 213.074C101.422 209.413 104.401 206.439 108.06 206.439C111.718 206.439 114.695 209.416 114.695 213.077C114.695 216.737 111.72 219.712 108.06 219.712ZM108.06 210.21C107.493 210.21 106.939 210.379 106.467 210.693C105.996 211.008 105.628 211.456 105.411 211.98C105.194 212.504 105.138 213.08 105.248 213.636C105.359 214.192 105.632 214.703 106.033 215.103C106.434 215.504 106.944 215.777 107.5 215.888C108.056 215.998 108.633 215.942 109.157 215.725C109.68 215.508 110.128 215.14 110.443 214.669C110.758 214.198 110.926 213.644 110.926 213.077C110.926 212.316 110.624 211.587 110.086 211.05C109.549 210.512 108.82 210.21 108.06 210.21Z" fill="#0F0F0F"/>
<path d="M68.4824 254.276C71.1055 254.276 73.2319 252.149 73.2319 249.526C73.2319 246.903 71.1055 244.777 68.4824 244.777C65.8593 244.777 63.7329 246.903 63.7329 249.526C63.7329 252.149 65.8593 254.276 68.4824 254.276Z" fill="white"/>
<path d="M68.4849 256.162C64.8266 256.162 61.8472 253.187 61.8472 249.526C61.8472 245.866 64.8266 242.891 68.4849 242.891C72.1432 242.891 75.1201 245.868 75.1201 249.529C75.1201 253.19 72.1457 256.162 68.4849 256.162ZM68.4849 246.663C67.918 246.663 67.3638 246.831 66.8925 247.146C66.4211 247.461 66.0537 247.908 65.8368 248.432C65.6198 248.956 65.5631 249.532 65.6737 250.088C65.7843 250.644 66.0573 251.155 66.4581 251.556C66.859 251.956 67.3697 252.229 67.9257 252.34C68.4817 252.451 69.058 252.394 69.5818 252.177C70.1055 251.96 70.5532 251.593 70.8681 251.121C71.1831 250.65 71.3512 250.096 71.3512 249.529C71.3512 248.769 71.0492 248.04 70.5117 247.502C69.9741 246.965 69.2451 246.663 68.4849 246.663Z" fill="#0F0F0F"/>
<path d="M226.646 106.888C242.515 106.888 255.379 94.0241 255.379 78.1551C255.379 62.2862 242.515 49.4219 226.646 49.4219C210.777 49.4219 197.913 62.2862 197.913 78.1551C197.913 94.0241 210.777 106.888 226.646 106.888Z" fill="#00D8E0"/>
<path d="M255.387 78.1628C255.387 94.0179 242.503 106.876 226.646 106.876C214.23 106.876 203.628 98.9937 199.622 87.9207C204.412 91.2291 210.097 92.9966 215.917 92.987C219.692 92.9893 223.431 92.2475 226.919 90.804C230.407 89.3605 233.577 87.2436 236.246 84.5744C238.916 81.9051 241.033 78.7358 242.477 75.2478C243.921 71.7597 244.663 68.0213 244.661 64.2462C244.661 60.8042 244.067 57.5205 242.971 54.4883C246.805 57.1322 249.938 60.6687 252.101 64.793C254.264 68.9173 255.392 73.5057 255.387 78.1628Z" fill="#25A3A9"/>
<path d="M267.953 80.0408C267.453 80.0408 266.973 79.8422 266.62 79.4885C266.266 79.1349 266.067 78.6552 266.067 78.1551C266.067 65.3499 259.789 53.2888 249.272 45.8918C248.863 45.6041 248.585 45.1656 248.499 44.6729C248.457 44.4289 248.462 44.1789 248.517 43.9372C248.571 43.6956 248.672 43.4669 248.814 43.2644C248.957 43.0618 249.138 42.8893 249.347 42.7567C249.556 42.624 249.789 42.5339 250.033 42.4914C250.526 42.4056 251.033 42.519 251.442 42.8068C257.116 46.7947 261.748 52.0875 264.95 58.2394C268.151 64.3914 269.828 71.2225 269.839 78.1576C269.839 78.6577 269.64 79.1374 269.286 79.491C268.933 79.8447 268.453 80.0433 267.953 80.0433V80.0408ZM241.96 41.6779C241.72 41.6779 241.482 41.6318 241.259 41.5421C239.813 40.9638 238.317 40.466 236.816 40.0637C236.34 39.9281 235.937 39.611 235.693 39.1807C235.449 38.7505 235.384 38.2415 235.511 37.7636C235.639 37.2857 235.949 36.8771 236.375 36.6259C236.801 36.3746 237.309 36.3009 237.789 36.4205C239.436 36.8605 241.075 37.4061 242.662 38.0422C243.068 38.2054 243.405 38.5049 243.615 38.8894C243.825 39.2739 243.894 39.7194 243.811 40.1494C243.728 40.5794 243.498 40.9671 243.16 41.246C242.823 41.5249 242.398 41.6776 241.96 41.6779ZM226.643 108.774C209.762 108.774 196.024 95.0385 196.024 78.1551C196.024 61.2717 209.762 47.5336 226.646 47.5336C243.529 47.5336 257.267 61.2692 257.267 78.1576C257.267 95.0461 243.529 108.774 226.643 108.774ZM226.643 51.3051C211.842 51.3051 199.796 63.3485 199.796 78.1551C199.796 92.9617 211.839 105.003 226.646 105.003C241.453 105.003 253.496 92.9592 253.496 78.1576C253.496 63.356 241.45 51.3051 226.643 51.3051Z" fill="#0F0F0F"/>
<path d="M217.243 86.3919C216.743 86.3919 216.263 86.1932 215.909 85.8395C215.556 85.4859 215.357 85.0063 215.357 84.5061V64.862C215.357 64.3619 215.556 63.8823 215.909 63.5286C216.263 63.175 216.743 62.9763 217.243 62.9763C217.743 62.9763 218.222 63.175 218.576 63.5286C218.93 63.8823 219.128 64.3619 219.128 64.862V84.5061C219.128 85.0063 218.93 85.4859 218.576 85.8395C218.222 86.1932 217.743 86.3919 217.243 86.3919Z" fill="#0F0F0F"/>
<path d="M210.301 73.6897C209.928 73.6894 209.564 73.5786 209.254 73.3714C208.944 73.1641 208.703 72.8698 208.56 72.5254C208.417 72.181 208.38 71.8021 208.453 71.4366C208.525 71.071 208.705 70.7351 208.968 70.4714L215.907 63.532C216.083 63.3568 216.29 63.2177 216.519 63.1229C216.748 63.0281 216.994 62.9792 217.241 62.9792C217.489 62.9792 217.734 63.0281 217.963 63.1229C218.192 63.2177 218.4 63.3568 218.575 63.532L225.517 70.4714C225.702 70.6441 225.851 70.8522 225.954 71.0835C226.057 71.3149 226.112 71.5646 226.117 71.8178C226.121 72.071 226.075 72.3225 225.98 72.5573C225.885 72.7921 225.744 73.0054 225.565 73.1844C225.386 73.3635 225.173 73.5047 224.938 73.5995C224.703 73.6943 224.451 73.7409 224.198 73.7364C223.945 73.732 223.695 73.6766 223.464 73.5735C223.233 73.4704 223.025 73.3218 222.852 73.1366L217.245 67.5297L211.638 73.1366C211.463 73.3122 211.255 73.4516 211.026 73.5465C210.797 73.6414 210.549 73.6901 210.301 73.6897ZM236.047 93.3313C235.547 93.3313 235.067 93.1326 234.713 92.779C234.36 92.4253 234.161 91.9457 234.161 91.4456V71.804C234.161 71.3039 234.36 70.8242 234.713 70.4706C235.067 70.1169 235.547 69.9183 236.047 69.9183C236.547 69.9183 237.027 70.1169 237.38 70.4706C237.734 70.8242 237.933 71.3039 237.933 71.804V91.4456C237.933 91.9457 237.734 92.4253 237.38 92.779C237.027 93.1326 236.547 93.3313 236.047 93.3313Z" fill="#0F0F0F"/>
<path d="M236.047 93.3314C235.799 93.3314 235.554 93.2826 235.326 93.1877C235.097 93.0928 234.889 92.9536 234.714 92.7782L227.775 85.8388C227.59 85.6662 227.441 85.458 227.338 85.2267C227.235 84.9954 227.18 84.7457 227.175 84.4925C227.171 84.2393 227.217 83.9878 227.312 83.753C227.407 83.5182 227.548 83.3049 227.727 83.1258C227.906 82.9467 228.119 82.8056 228.354 82.7107C228.589 82.6159 228.841 82.5693 229.094 82.5738C229.347 82.5782 229.597 82.6337 229.828 82.7367C230.059 82.8398 230.267 82.9884 230.44 83.1737L236.047 88.7805L241.654 83.1737C241.828 82.9935 242.036 82.8497 242.266 82.7508C242.496 82.6519 242.743 82.5997 242.994 82.5974C243.244 82.5951 243.492 82.6427 243.724 82.7374C243.956 82.8321 244.166 82.9721 244.344 83.149C244.521 83.326 244.661 83.5365 244.756 83.7682C244.851 83.9999 244.899 84.2482 244.896 84.4986C244.894 84.7489 244.843 84.9964 244.744 85.2265C244.645 85.4566 244.502 85.6648 244.321 85.8388L237.382 92.7782C237.207 92.9536 237 93.0928 236.771 93.1877C236.542 93.2826 236.295 93.3314 236.047 93.3314Z" fill="#0F0F0F"/>
<rect x="2.5" y="2.5" width="301" height="307" rx="29.5" stroke="black" stroke-width="5"/>
</svg>
